<svg width="32" height="32" viewBox="0 0 32 32" fill="none" xmlns="http://www.w3.org/2000/svg">
<circle cx="16" cy="16" r="15.514" fill="#D6E8E6" stroke="#C74323" stroke-width="0.971991"/>
<path d="M9.90066 12.7524C9.90066 13.8496 8.92886 14.8012 7.65045 14.8012C6.37204 14.8012 5.40024 13.8496 5.40024 12.7524C5.40024 11.6552 6.37204 10.7036 7.65045 10.7036C8.92886 10.7036 9.90066 11.6552 9.90066 12.7524Z" fill="#FFF0E1" stroke="#C74323" stroke-width="0.971991"/>
<path d="M14.8256 8.69672C14.8256 9.79394 13.8538 10.7456 12.5754 10.7456C11.297 10.7456 10.3252 9.79394 10.3252 8.69672C10.3252 7.59949 11.297 6.64788 12.5754 6.64788C13.8538 6.64788 14.8256 7.59949 14.8256 8.69672Z" fill="#FFF0E1" stroke="#C74323" stroke-width="0.971991"/>
<path d="M21.393 8.69672C21.393 9.79394 20.4212 10.7456 19.1428 10.7456C17.8644 10.7456 16.8926 9.79394 16.8926 8.69672C16.8926 7.5995 17.8644 6.64788 19.1428 6.64788C20.4212 6.64788 21.393 7.5995 21.393 8.69672Z" fill="#FFF0E1" stroke="#C74323" stroke-width="0.971991"/>
<path d="M26.3179 12.7524C26.3179 13.8496 25.3461 14.8013 24.0677 14.8013C22.7893 14.8013 21.8175 13.8496 21.8175 12.7524C21.8175 11.6552 22.7893 10.7036 24.0677 10.7036C25.3461 10.7036 26.3179 11.6552 26.3179 12.7524Z" fill="#FFF0E1" stroke="#C74323" stroke-width="0.971991"/>
<path d="M18.6314 15.5656L18.6314 15.5656L18.6335 15.5678C19.2497 16.2295 19.7971 16.8272 20.3621 17.4441C20.6793 17.7905 21.0022 18.143 21.3459 18.5163L21.7034 18.1872L21.3732 18.5437C21.46 18.6242 21.5472 18.7044 21.6342 18.7844C22.2835 19.3821 22.9257 19.9732 23.4039 20.6293C23.9283 21.3488 24.2146 22.0936 24.0857 22.9424C23.8022 23.8252 23.122 24.6794 21.9193 24.9288C21.7902 24.9504 21.5434 24.9476 21.1503 24.9125C20.8274 24.8836 20.4456 24.8375 20.0091 24.7847C19.9261 24.7747 19.8412 24.7644 19.7544 24.754C18.6767 24.6246 17.3353 24.4742 15.9465 24.4742H15.7495C14.3602 24.4742 13.0183 24.6272 11.941 24.7579C11.8643 24.7672 11.7892 24.7763 11.7155 24.7853C11.267 24.84 10.8757 24.8877 10.5462 24.9167C10.1506 24.9515 9.90556 24.9527 9.77984 24.9295C8.57385 24.6807 7.89394 23.8345 7.61069 22.9441C7.48661 22.1006 7.77491 21.358 8.30107 20.6389C8.78014 19.9842 9.4219 19.3935 10.0705 18.7965C10.1583 18.7158 10.2461 18.635 10.3337 18.5538L10.3469 18.5416L10.3591 18.5285C10.9776 17.8643 11.5301 17.2611 12.0972 16.6419C12.4134 16.2966 12.7342 15.9464 13.0736 15.5778C13.57 15.0497 14.1346 14.5766 14.7802 14.3716L14.7802 14.3716L14.7882 14.3689C14.8853 14.3362 14.9809 14.3122 15.075 14.2964L15.075 14.2964L15.0795 14.2956C15.3146 14.2537 15.5667 14.2524 15.8589 14.2524C16.149 14.2524 16.406 14.2533 16.6365 14.287C16.7292 14.3029 16.8231 14.3266 16.9186 14.3588L16.9186 14.3589L16.9267 14.3614C17.5746 14.5672 18.1509 15.043 18.6314 15.5656Z" fill="#FFF0E1" stroke="#C74323" stroke-width="0.971991"/>
</svg>
