<svg xmlns="http://www.w3.org/2000/svg" fill="none" viewBox="63.6 95.96 472.8 395.74">
<path d="M434.4 448.891H394.656V449.178H434.4V448.891Z" fill="#EBEBEB"/>
<path d="M451.14 456.55H428.112V456.837H451.14V456.55Z" fill="#EBEBEB"/>
<path d="M453.324 255.047C453.324 262.833 447.672 265.892 440.712 265.892C433.752 265.892 428.112 262.833 428.112 255.047C428.112 247.262 433.752 240.96 440.712 240.96C447.672 240.96 453.324 247.25 453.324 255.047Z" fill="#E0E0E0"/>
<path d="M428.148 238.752C428.148 238.752 427.572 245.732 431.388 249.274L438.72 244.272C437.136 240.937 428.148 238.752 428.148 238.752Z" fill="#E0E0E0"/>
<path d="M456.408 239.694C456.408 239.694 448.116 239.844 444.324 243.834L450.96 250.332C454.8 248.48 456.408 239.694 456.408 239.694Z" fill="#E0E0E0"/>
<path d="M432.216 260.406C431.724 271.147 433.848 302.071 436.752 306.475C433.248 305.521 431.148 308.005 432.696 310.546H485.856C485.856 310.546 492.252 277.921 459.456 275.23C453.264 268.847 450.54 258.048 450.54 258.048L432.216 260.406Z" fill="#E0E0E0"/>
<path d="M483.06 302.254C484.525 303.023 486.233 303.248 487.86 302.887C489.68 302.584 491.42 301.943 492.984 301.001C496.199 299.111 498.59 296.17 499.716 292.721C500.691 289.209 500.434 285.487 498.984 282.129C498.276 280.398 497.391 278.738 496.344 277.173C495.852 276.357 495.216 275.621 494.676 274.873C494.136 274.126 493.404 273.228 492.816 272.366C491.596 270.624 490.559 268.772 489.72 266.834C488.844 264.79 488.345 262.614 488.244 260.406C488.131 258.028 488.744 255.67 490.008 253.621C491.318 251.553 493.228 249.895 495.504 248.848C499.88 247.015 504.787 246.706 509.376 247.975C511.599 248.521 513.747 249.32 515.772 250.355C517.773 251.402 519.673 252.618 521.448 253.989C522.137 254.517 522.579 255.285 522.677 256.125C522.775 256.965 522.521 257.808 521.97 258.468C521.419 259.129 520.618 259.552 519.741 259.646C518.865 259.74 517.985 259.496 517.296 258.968C517.202 258.898 517.114 258.821 517.032 258.739C514.445 256.229 511.299 254.314 507.828 253.138C504.51 251.96 500.867 251.936 497.532 253.069C496.023 253.632 494.726 254.618 493.812 255.898C492.916 257.234 492.453 258.795 492.48 260.383C492.493 262.129 492.817 263.86 493.44 265.5C494.111 267.23 494.955 268.894 495.96 270.468C496.464 271.285 497.028 272.044 497.58 272.849C498.132 273.654 498.78 274.528 499.356 275.436C500.502 277.209 501.455 279.09 502.2 281.048C503.824 285.092 504.034 289.531 502.8 293.698C501.465 297.869 498.595 301.432 494.724 303.726C492.818 304.921 490.692 305.756 488.46 306.187C487.276 306.418 486.062 306.477 484.86 306.36C483.57 306.262 482.317 305.897 481.188 305.29C480.774 305.06 480.473 304.682 480.35 304.239C480.228 303.795 480.294 303.324 480.534 302.927C480.774 302.531 481.169 302.242 481.632 302.124C482.094 302.007 482.586 302.07 483 302.3H483.06V302.254Z" fill="#E0E0E0"/>
<path d="M271.272 161.644C274.872 148.097 273 140.53 273 140.53C273 140.53 270.324 137.356 271.86 134.297C274.112 135.371 276.274 136.609 278.328 138C279.672 136.528 290.328 137.356 293.664 138.379C292.2 136.401 293.328 133.653 293.328 133.653C296.448 135.12 298.963 137.551 300.468 140.553C303.072 145.624 302.568 156.998 302.568 156.998C302.568 156.998 342.396 145.118 345.672 184.793H273.672C273.672 184.793 268.356 172.569 271.272 161.644Z" fill="#E0E0E0"/>
<path d="M94.476 354.085C96.876 352.935 102.312 351.958 107.04 347.392C107.472 341.734 115.308 334.926 128.196 335.662C141.396 336.421 147.312 368.702 136.308 359.053C138.876 367.011 139.644 385.135 162.552 402.144C179.004 414.357 179.088 438.024 166.152 438.024H103.5C97.764 438.024 103.5 427.731 110.076 428.559C116.076 424.442 114.948 399.188 114.948 399.188C114.948 399.188 105.948 373.888 111.984 365.194C105 368.598 89.112 365.539 94.476 354.085Z" fill="#E0E0E0"/>
<path d="M190.248 398.51C194.82 411.482 188.952 427.432 171.336 423.994L172.632 427.444C192.204 438.369 210.804 414 190.248 398.51Z" fill="#E0E0E0"/>
<path d="M211.392 314.64V437.529H65.916V314.64H211.392ZM213.72 312.421H63.6V439.76H213.72V312.421Z" fill="#F0F0F0"/>
<path d="M71.964 312.421H69.648V439.76H71.964V312.421Z" fill="#F0F0F0"/>
<path d="M99.096 312.421H96.78V439.76H99.096V312.421Z" fill="#F0F0F0"/>
<path d="M126.24 312.421H123.924V439.76H126.24V312.421Z" fill="#F0F0F0"/>
<path d="M153.384 312.421H151.068V439.76H153.384V312.421Z" fill="#F0F0F0"/>
<path d="M180.528 312.421H178.212V439.76H180.528V312.421Z" fill="#F0F0F0"/>
<path d="M207.66 312.421H205.344V439.76H207.66V312.421Z" fill="#F0F0F0"/>
<path d="M86.796 376.085H64.344V396.98H86.796V376.085Z" fill="#F0F0F0"/>
<path d="M372.744 314.64V437.529H227.256V314.64H372.744ZM375.06 312.421H224.94V439.76H375.06V312.421V312.421Z" fill="#F0F0F0"/>
<path d="M233.304 312.421H230.988V439.76H233.304V312.421Z" fill="#F0F0F0"/>
<path d="M260.436 312.421H258.12V439.76H260.436V312.421Z" fill="#F0F0F0"/>
<path d="M287.58 312.421H285.264V439.76H287.58V312.421Z" fill="#F0F0F0"/>
<path d="M314.724 312.421H312.408V439.76H314.724V312.421Z" fill="#F0F0F0"/>
<path d="M341.868 312.421H339.552V439.76H341.868V312.421Z" fill="#F0F0F0"/>
<path d="M369.012 312.421H366.696V439.76H369.012V312.421Z" fill="#F0F0F0"/>
<path d="M248.136 376.085H225.684V396.98H248.136V376.085Z" fill="#F0F0F0"/>
<path d="M534.084 314.64V437.529H388.608V314.64H534.084ZM536.4 312.421H386.28V439.76H536.4V312.421Z" fill="#F0F0F0"/>
<path d="M394.644 312.421H392.328V439.76H394.644V312.421Z" fill="#F0F0F0"/>
<path d="M421.776 312.421H419.46V439.76H421.776V312.421Z" fill="#F0F0F0"/>
<path d="M448.92 312.421H446.604V439.76H448.92V312.421Z" fill="#F0F0F0"/>
<path d="M476.064 312.421H473.748V439.76H476.064V312.421Z" fill="#F0F0F0"/>
<path d="M503.208 312.421H500.892V439.76H503.208V312.421Z" fill="#F0F0F0"/>
<path d="M530.352 312.421H528.036V439.76H530.352V312.421Z" fill="#F0F0F0"/>
<path d="M409.476 376.085H387.024V396.98H409.476V376.085Z" fill="#F0F0F0"/>
<path d="M211.392 187.301V310.19H65.916V187.301H211.392ZM213.72 185.07H63.6V312.409H213.72V185.07Z" fill="#F0F0F0"/>
<path d="M71.964 185.07H69.648V312.409H71.964V185.07Z" fill="#F0F0F0"/>
<path d="M99.096 185.07H96.78V312.409H99.096V185.07Z" fill="#F0F0F0"/>
<path d="M126.24 185.07H123.924V312.409H126.24V185.07Z" fill="#F0F0F0"/>
<path d="M153.384 185.07H151.068V312.409H153.384V185.07Z" fill="#F0F0F0"/>
<path d="M180.528 185.07H178.212V312.409H180.528V185.07Z" fill="#F0F0F0"/>
<path d="M207.66 185.07H205.344V312.409H207.66V185.07Z" fill="#F0F0F0"/>
<path d="M86.796 248.745H64.344V269.641H86.796V248.745Z" fill="#F0F0F0"/>
<path d="M372.744 187.301V310.19H227.256V187.301H372.744ZM375.06 185.07H224.94V312.409H375.06V185.07V185.07Z" fill="#F0F0F0"/>
<path d="M233.304 185.07H230.988V312.409H233.304V185.07Z" fill="#F0F0F0"/>
<path d="M260.436 185.07H258.12V312.409H260.436V185.07Z" fill="#F0F0F0"/>
<path d="M287.58 185.07H285.264V312.409H287.58V185.07Z" fill="#F0F0F0"/>
<path d="M314.724 185.07H312.408V312.409H314.724V185.07Z" fill="#F0F0F0"/>
<path d="M341.868 185.07H339.552V312.409H341.868V185.07Z" fill="#F0F0F0"/>
<path d="M369.012 185.07H366.696V312.409H369.012V185.07Z" fill="#F0F0F0"/>
<path d="M248.136 248.745H225.684V269.641H248.136V248.745Z" fill="#F0F0F0"/>
<path d="M534.084 187.301V310.19H388.608V187.301H534.084ZM536.4 185.07H386.28V312.409H536.4V185.07Z" fill="#F0F0F0"/>
<path d="M394.644 185.07H392.328V312.409H394.644V185.07Z" fill="#F0F0F0"/>
<path d="M421.776 185.07H419.46V312.409H421.776V185.07Z" fill="#F0F0F0"/>
<path d="M448.92 185.07H446.604V312.409H448.92V185.07Z" fill="#F0F0F0"/>
<path d="M476.064 185.07H473.748V312.409H476.064V185.07Z" fill="#F0F0F0"/>
<path d="M503.208 185.07H500.892V312.409H503.208V185.07Z" fill="#F0F0F0"/>
<path d="M530.352 185.07H528.036V312.409H530.352V185.07Z" fill="#F0F0F0"/>
<path d="M409.476 248.745H387.024V269.641H409.476V248.745Z" fill="#F0F0F0"/>
<path d="M211.392 98.187V182.85H65.916V98.187H211.392ZM213.72 95.956H63.6V185.15H213.72V95.956Z" fill="#F0F0F0"/>
<path d="M71.964 95.9675H69.648V185.104H71.964V95.9675Z" fill="#F0F0F0"/>
<path d="M99.096 95.9675H96.78V185.104H99.096V95.9675Z" fill="#F0F0F0"/>
<path d="M126.24 95.9675H123.924V185.104H126.24V95.9675Z" fill="#F0F0F0"/>
<path d="M153.384 95.9675H151.068V185.104H153.384V95.9675Z" fill="#F0F0F0"/>
<path d="M180.528 95.9675H178.212V185.104H180.528V95.9675Z" fill="#F0F0F0"/>
<path d="M207.66 95.9675H205.344V185.104H207.66V95.9675Z" fill="#F0F0F0"/>
<path d="M86.796 121.44H64.344V142.335H86.796V121.44Z" fill="#F0F0F0"/>
<path d="M372.744 98.187V182.85H227.256V98.187H372.744ZM375.06 95.956H224.94V185.15H375.06V95.956V95.956Z" fill="#F0F0F0"/>
<path d="M233.304 95.9675H230.988V185.104H233.304V95.9675Z" fill="#F0F0F0"/>
<path d="M260.436 95.9675H258.12V185.104H260.436V95.9675Z" fill="#F0F0F0"/>
<path d="M287.58 95.9675H285.264V185.104H287.58V95.9675Z" fill="#F0F0F0"/>
<path d="M314.724 95.9675H312.408V185.104H314.724V95.9675Z" fill="#F0F0F0"/>
<path d="M341.868 95.9675H339.552V185.104H341.868V95.9675Z" fill="#F0F0F0"/>
<path d="M369.012 95.9675H366.696V185.104H369.012V95.9675Z" fill="#F0F0F0"/>
<path d="M248.136 121.44H225.684V142.335H248.136V121.44Z" fill="#F0F0F0"/>
<path d="M534.084 98.187V182.85H388.608V98.187H534.084ZM536.4 95.956H386.28V185.15H536.4V95.956Z" fill="#F0F0F0"/>
<path d="M394.644 95.9675H392.328V185.104H394.644V95.9675Z" fill="#F0F0F0"/>
<path d="M421.776 95.9675H419.46V185.104H421.776V95.9675Z" fill="#F0F0F0"/>
<path d="M448.92 95.9675H446.604V185.104H448.92V95.9675Z" fill="#F0F0F0"/>
<path d="M476.064 95.9675H473.748V185.104H476.064V95.9675Z" fill="#F0F0F0"/>
<path d="M503.208 95.9675H500.892V185.104H503.208V95.9675Z" fill="#F0F0F0"/>
<path d="M530.352 95.9675H528.036V185.104H530.352V95.9675Z" fill="#F0F0F0"/>
<path d="M409.476 121.44H387.024V142.335H409.476V121.44Z" fill="#F0F0F0"/>
<path d="M300 491.694C428.499 491.694 532.668 485.866 532.668 478.676C532.668 471.486 428.499 465.658 300 465.658C171.501 465.658 67.332 471.486 67.332 478.676C67.332 485.866 171.501 491.694 300 491.694Z" fill="#F5F5F5"/>
<path d="M160.14 124.959C148.596 132.871 167.916 149.443 150.696 153.169C133.476 156.895 145.896 185.771 162.396 187.473C178.896 189.175 209.904 193.718 213.9 170.108C217.5 148.557 206.04 148.822 207.456 139.898C209.184 129.007 205.908 122.13 195.456 116.334C181.2 108.353 156.54 107.18 160.14 124.959Z" fill="#263238"/>
<path d="M215.244 473.444C205.032 472.696 199.764 466.003 200.136 458.908C200.328 454.998 187.272 454.653 187.272 454.653C189.948 466.774 187.44 468.453 186.744 471.638C186.048 474.824 186.432 478.228 189.144 478.297C192.384 478.366 193.86 477.779 197.88 477.929C202.584 478.101 205.752 478.285 214.092 478.297C217.416 478.297 219.78 473.8 215.244 473.444Z" fill="#ABDCD6"/>
<path d="M213.384 245.145C213.384 245.145 214.392 301.944 207.9 344.735C207.66 380.949 201.024 460.563 201.024 460.563C196.568 461.573 191.923 461.53 187.488 460.437C187.488 460.437 168.288 402.293 174.396 344.126C164.796 283.176 165.108 245.145 165.108 245.145H213.384Z" fill="#263238"/>
<path opacity="0.2" d="M166.248 273.401C167.448 290.456 169.728 314.594 174.396 344.115C173.94 348.485 173.616 352.866 173.436 357.213C193.788 322.15 196.26 266.8 166.248 273.401Z" fill="black"/>
<path d="M134.004 472.443C133.644 467.343 134.048 462.219 135.204 457.229C135.204 457.229 123.936 454.929 123.576 458.701C122.94 465.601 118.932 472.018 110.052 473.133C104.976 473.766 106.872 478.297 110.496 478.297C119.568 478.297 116.496 478.159 121.644 477.986C126.048 477.848 126.936 478.366 130.476 478.297C133.368 478.239 134.028 475.537 134.004 472.443Z" fill="#ABDCD6"/>
<path d="M195.804 245.145C195.804 245.145 178.548 324.081 167.184 357.845C155.268 393.254 136.128 457.838 135.984 460.494C130.764 461.437 125.856 461.782 121.776 460.494C121.776 460.494 115.128 387.883 130.392 349.439C134.232 269.192 156.792 245.203 156.792 245.203L195.804 245.145Z" fill="#263238"/>
<path d="M199.02 172.063C198.966 172.064 198.912 172.052 198.864 172.028C198.815 172.004 198.774 171.968 198.744 171.925C198.612 171.741 198.456 171.557 198.312 171.373C197.316 170.143 196.092 168.613 197.304 166.842C198.72 164.784 201.648 165.485 203.796 166.003L204.684 166.21C206.292 166.68 208.019 166.611 209.58 166.014C211.524 165.094 212.604 163.162 213.648 161.276C214.27 160.04 215.048 158.881 215.964 157.826C216.216 157.55 216.48 157.286 216.756 157.021C217.812 156.114 218.633 154.984 219.156 153.721C219.167 153.68 219.186 153.642 219.213 153.61C219.24 153.577 219.274 153.55 219.312 153.531C219.351 153.511 219.393 153.5 219.436 153.497C219.48 153.494 219.523 153.499 219.564 153.514C219.607 153.525 219.646 153.545 219.681 153.572C219.716 153.599 219.744 153.632 219.766 153.669C219.787 153.707 219.8 153.748 219.805 153.79C219.809 153.832 219.805 153.875 219.792 153.916C219.236 155.282 218.347 156.5 217.2 157.47L216.432 158.252C215.552 159.272 214.806 160.392 214.212 161.587C213.12 163.553 211.992 165.589 209.844 166.601C208.149 167.262 206.269 167.347 204.516 166.842L203.604 166.635C201.552 166.141 198.996 165.485 197.832 167.21C196.884 168.59 197.832 169.763 198.816 170.994C198.96 171.189 199.116 171.373 199.26 171.557C199.312 171.626 199.334 171.711 199.32 171.795C199.307 171.88 199.259 171.955 199.188 172.006C199.139 172.039 199.081 172.059 199.02 172.063Z" fill="white"/>
<path d="M227.34 163.461L224.94 159.344C224.089 157.854 222.849 156.601 221.34 155.71L218.46 154.031C217.536 153.492 216.443 153.28 215.373 153.434C214.303 153.587 213.323 154.095 212.604 154.87L210.372 157.274C209.963 157.711 209.649 158.222 209.449 158.776C209.249 159.331 209.165 159.918 209.205 160.504C209.244 161.089 209.404 161.662 209.677 162.187C209.949 162.713 210.328 163.181 210.792 163.564L212.94 165.358C212.94 165.358 218.292 171.039 224.532 172.155L225.636 170.81C226.499 169.797 227.103 168.605 227.398 167.329C227.694 166.053 227.674 164.728 227.34 163.461V163.461Z" fill="#FFC3BD"/>
<path d="M211.128 178.572L212.244 179.929C212.676 180.447 213.132 180.976 213.6 181.493C214.548 182.528 215.496 183.563 216.504 184.529C218.421 186.44 220.504 188.191 222.732 189.761C224.746 191.201 226.938 192.395 229.26 193.315C230.331 193.712 231.43 194.039 232.548 194.292C233.089 194.415 233.639 194.503 234.192 194.557H234.396H234.504C234.504 194.557 234.612 194.557 234.504 194.557H234.24H233.688L233.076 194.661C232.583 194.756 232.104 194.906 231.648 195.109C231.125 195.321 230.629 195.591 230.172 195.914C229.735 196.217 229.332 196.564 228.972 196.949C228.678 197.268 228.413 197.61 228.18 197.972C228.015 198.248 227.867 198.532 227.736 198.824C227.648 199.03 227.572 199.241 227.508 199.456C227.465 199.603 227.432 199.753 227.412 199.905C227.394 200.046 227.394 200.189 227.412 200.33C227.412 200.525 227.412 200.433 227.484 200.33C227.531 199.886 227.531 199.44 227.484 198.996C227.318 197.657 227.07 196.328 226.74 195.017C226.092 192.142 225.192 189.118 224.268 186.07L218.364 167.532V167.475C218.015 166.365 218.089 165.172 218.574 164.111C219.06 163.049 219.923 162.188 221.011 161.681C222.099 161.174 223.339 161.056 224.51 161.346C225.681 161.636 226.705 162.317 227.4 163.266C231.434 168.829 235.066 174.65 238.272 180.688C239.951 183.804 241.461 187.002 242.796 190.268C243.528 192.079 244.149 193.93 244.656 195.811C244.968 196.974 245.188 198.158 245.316 199.353C245.385 200.175 245.385 201.002 245.316 201.825C245.242 203.167 244.925 204.486 244.38 205.723C244.17 206.203 243.925 206.668 243.648 207.115C242.912 208.273 241.946 209.281 240.804 210.082C240.175 210.537 239.495 210.923 238.776 211.232C238.121 211.508 237.437 211.716 236.736 211.853C236.427 211.919 236.115 211.969 235.8 212.003C235.512 212.003 235.224 212.026 234.936 212.072H234.324H233.676C232.476 212.072 231.348 212.071 230.196 211.956C227.92 211.774 225.666 211.389 223.464 210.806C219.278 209.654 215.292 207.918 211.632 205.655C208.169 203.542 204.951 201.083 202.032 198.317C200.616 196.96 199.248 195.569 197.976 194.097C197.34 193.361 196.716 192.614 196.104 191.797L195.204 190.589L194.736 189.957L194.196 189.175C192.784 187.092 192.259 184.57 192.729 182.127C193.199 179.685 194.628 177.508 196.722 176.044C198.817 174.581 201.417 173.943 203.987 174.261C206.557 174.58 208.903 175.83 210.54 177.756L211.128 178.572Z" fill="#FFC3BD"/>
<path d="M215.688 189.842C215.484 194.442 223.092 205.149 213.696 211.336C215.448 215.096 216.936 240.592 213.384 245.146C208.2 248.803 180.132 248.09 156.864 245.146C155.88 235.946 161.172 216.833 154.692 187.059C154.335 185.428 154.34 183.743 154.708 182.114C155.076 180.485 155.798 178.949 156.827 177.605C157.857 176.262 159.17 175.142 160.682 174.317C162.193 173.493 163.869 172.984 165.6 172.822C167.556 172.627 169.62 172.477 171.744 172.374C179.155 171.867 186.593 171.867 194.004 172.374C196.404 172.581 198.888 172.88 201.204 173.202C205.346 173.75 209.126 175.76 211.805 178.837C214.483 181.914 215.868 185.838 215.688 189.842V189.842Z" fill="#ABDCD6"/>
<path d="M171.036 148.35C172.812 155.25 174.54 166.417 171.72 172.374C171.72 172.374 181.188 172.822 194.7 183.161C201.06 174.202 194.808 172.454 194.808 172.454C189.192 171.189 188.292 164.645 188.304 159.539L171.036 148.35Z" fill="#FFC3BD"/>
<path opacity="0.2" d="M188.304 159.54L178.488 153.18C178.401 154.62 178.703 156.058 179.364 157.355C181.43 161.064 184.795 163.956 188.868 165.52C188.463 163.55 188.274 161.546 188.304 159.54Z" fill="black"/>
<path d="M166.368 135.769C169.164 146.924 170.1 151.708 177.012 156.469C187.392 163.691 200.796 157.987 201.468 146.257C202.08 135.7 197.412 119.221 185.28 116.645C173.148 114.069 163.584 124.603 166.368 135.769Z" fill="#FFC3BD"/>
<path d="M183.828 140.427C183.996 141.347 184.644 142.002 185.268 141.899C185.892 141.795 186.264 140.956 186.096 140.047C185.928 139.139 185.28 138.46 184.656 138.575C184.032 138.69 183.66 139.507 183.828 140.427Z" fill="#263238"/>
<path d="M195.6 138.587C195.768 139.507 196.416 140.162 197.04 140.059C197.664 139.955 198.036 139.116 197.868 138.207C197.7 137.299 197.052 136.62 196.428 136.735C195.804 136.85 195.48 137.667 195.6 138.587Z" fill="#263238"/>
<path d="M196.2 136.85L198.384 135.827C198.384 135.827 197.532 137.724 196.2 136.85Z" fill="#263238"/>
<path d="M192.78 139.334C194.024 141.284 195.538 143.064 197.28 144.624C196.851 145.034 196.333 145.35 195.763 145.549C195.193 145.747 194.584 145.824 193.98 145.774L192.78 139.334Z" fill="#ED847E"/>
<path d="M189.096 150.144C189.643 150.141 190.189 150.095 190.728 150.006C190.803 149.992 190.869 149.95 190.911 149.89C190.954 149.83 190.97 149.756 190.956 149.684C190.95 149.649 190.937 149.616 190.918 149.585C190.898 149.555 190.872 149.529 190.842 149.509C190.812 149.489 190.778 149.474 190.742 149.467C190.706 149.459 190.668 149.459 190.632 149.466C189.444 149.693 188.216 149.65 187.048 149.338C185.881 149.026 184.806 148.455 183.912 147.672C183.885 147.646 183.853 147.625 183.818 147.611C183.783 147.597 183.746 147.59 183.708 147.59C183.67 147.59 183.633 147.597 183.598 147.611C183.563 147.625 183.531 147.646 183.504 147.672C183.453 147.723 183.425 147.791 183.425 147.861C183.425 147.932 183.453 148 183.504 148.051C185.011 149.422 187.018 150.173 189.096 150.144V150.144Z" fill="#263238"/>
<path d="M165.516 146.165C165.962 147.12 166.614 147.973 167.429 148.669C168.244 149.364 169.203 149.887 170.244 150.202C172.896 150.903 174.216 148.109 173.46 145.28C172.776 142.727 170.58 139.288 167.916 139.84C165.252 140.392 164.292 143.658 165.516 146.165Z" fill="#FFC3BD"/>
<path d="M180.48 134.677C180.553 134.655 180.62 134.619 180.677 134.571C180.735 134.524 180.782 134.466 180.816 134.401C181.118 133.776 181.568 133.229 182.131 132.801C182.694 132.374 183.353 132.079 184.056 131.94C184.13 131.931 184.202 131.909 184.267 131.874C184.332 131.839 184.389 131.793 184.435 131.736C184.482 131.68 184.516 131.616 184.536 131.547C184.557 131.479 184.563 131.407 184.554 131.336C184.545 131.265 184.522 131.196 184.486 131.134C184.449 131.071 184.401 131.016 184.342 130.972C184.284 130.928 184.217 130.895 184.145 130.875C184.073 130.856 183.998 130.85 183.924 130.859C183.031 131.012 182.19 131.369 181.472 131.899C180.753 132.43 180.178 133.118 179.796 133.906C179.729 134.036 179.718 134.186 179.765 134.323C179.812 134.461 179.914 134.576 180.048 134.642C180.182 134.705 180.337 134.717 180.48 134.677Z" fill="#263238"/>
<path d="M200.004 131.698C200.15 131.675 200.283 131.602 200.376 131.491C200.468 131.375 200.508 131.229 200.488 131.084C200.467 130.94 200.388 130.809 200.268 130.72C199.557 130.179 198.721 129.807 197.829 129.637C196.938 129.467 196.018 129.504 195.144 129.743C195.066 129.761 194.993 129.795 194.929 129.843C194.865 129.89 194.813 129.949 194.775 130.017C194.736 130.085 194.714 130.16 194.707 130.237C194.701 130.314 194.712 130.391 194.739 130.464C194.766 130.537 194.809 130.603 194.864 130.659C194.919 130.715 194.986 130.759 195.061 130.789C195.135 130.818 195.215 130.833 195.296 130.831C195.376 130.829 195.455 130.811 195.528 130.778C196.221 130.596 196.95 130.576 197.653 130.718C198.356 130.86 199.014 131.16 199.572 131.595C199.633 131.638 199.703 131.67 199.777 131.688C199.851 131.706 199.928 131.709 200.004 131.698V131.698Z" fill="#263238"/>
<path d="M184.38 138.667L186.576 137.643C186.576 137.643 185.712 139.564 184.38 138.667Z" fill="#263238"/>
<path d="M199.812 258.888C199.812 258.888 206.496 238.602 189.96 233.588C179.856 230.552 176.28 234.416 176.28 234.416L178.68 253.736C185.448 261.338 197.388 265.075 206.016 266.386C212.292 267.398 199.812 258.888 199.812 258.888Z" fill="#E0E0E0"/>
<path d="M181.644 205.356C181.032 212.658 196.728 215.97 201.816 215.027C201.816 215.027 207.264 220.996 211.092 218.914C212.76 218.017 208.188 215.177 206.112 212.21C204.036 209.243 195.948 207.92 194.232 204.263C191.208 197.8 182.4 196.88 181.644 205.356Z" fill="white"/>
<path d="M170.076 206.816C163.368 226.596 158.916 247.204 166.38 255.059C173.844 262.913 182.568 270.25 191.772 271.4C198.432 272.217 185.076 261.05 185.076 261.05C185.076 261.05 210.276 250.85 191.136 236.636C195.864 230.092 192.216 212.796 193.668 205.954C195.12 199.111 176.304 188.393 170.076 206.816Z" fill="white"/>
<path d="M188.028 182.425C187.5 180.631 192.828 180.125 195.936 176.836C197.808 179.941 193.2 186.806 193.2 186.806C193.2 186.806 188.976 185.668 188.028 182.425Z" fill="#263238"/>
<path d="M175.032 199.019C174.876 195.477 171.6 191.739 173.928 186.127C175.009 183.619 176.921 181.522 179.37 180.158C181.818 178.795 184.667 178.242 187.476 178.583C190.159 178.919 192.635 180.145 194.472 182.049C196.309 183.952 197.392 186.413 197.532 189.002C197.94 193.97 190.716 198.697 191.664 203.446C192.612 208.196 175.032 199.019 175.032 199.019Z" fill="white"/>
<path d="M189.084 178.917C187.488 180.55 192.876 183.287 195.528 183.333C194.008 181.163 191.718 179.594 189.084 178.917V178.917Z" fill="#E0E0E0"/>
<path d="M166.968 301.013H166.8C163.632 300.955 160.92 299 159.336 295.665C159.161 295.281 159.152 294.846 159.312 294.455C159.472 294.065 159.787 293.751 160.188 293.584C160.589 293.416 161.043 293.408 161.45 293.561C161.858 293.714 162.185 294.016 162.36 294.4C163.416 296.62 165.024 297.85 166.896 297.85C168.04 297.774 169.139 297.395 170.071 296.755C171.004 296.116 171.732 295.241 172.176 294.228C174.444 289.881 172.956 283.809 168.192 277.978C159.54 267.375 159.564 259.578 161.112 254.978C162.564 250.608 165.78 247.883 168.144 247.216C168.559 247.097 169.007 247.141 169.388 247.338C169.77 247.535 170.054 247.87 170.178 248.268C170.302 248.666 170.256 249.095 170.05 249.46C169.844 249.826 169.495 250.098 169.08 250.217C167.82 250.585 165.384 252.448 164.28 255.967C162.972 259.889 163.08 266.57 170.82 276.092C176.376 282.889 178.02 290.214 175.152 295.642C174.449 297.181 173.309 298.5 171.862 299.45C170.415 300.399 168.72 300.941 166.968 301.013V301.013Z" fill="white"/>
<path d="M166.956 301.012C163.824 301.012 160.956 299.081 159.372 295.665C159.252 295.296 159.278 294.897 159.445 294.545C159.612 294.193 159.908 293.912 160.277 293.756C160.647 293.599 161.063 293.579 161.447 293.697C161.831 293.816 162.156 294.066 162.36 294.4C163.668 297.171 165.9 298.402 168.3 297.7C168.714 297.578 169.161 297.619 169.544 297.813C169.926 298.007 170.213 298.339 170.34 298.735C170.467 299.132 170.425 299.561 170.223 299.927C170.02 300.294 169.674 300.568 169.26 300.69C168.513 300.908 167.736 301.016 166.956 301.012V301.012Z" fill="#E0E0E0"/>
<path opacity="0.2" d="M155.82 192.832C156.946 199.16 157.632 205.553 157.872 211.968C163.224 204.861 169.308 191.947 168.972 185.921L155.82 192.832Z" fill="black"/>
<path d="M188.94 212.279L193.74 206.057L202.62 215.51C202.62 215.51 196.704 220.616 190.512 221.122L189.6 219.65C188.909 218.552 188.49 217.316 188.376 216.038C188.261 214.76 188.454 213.474 188.94 212.279V212.279Z" fill="#FFC3BD"/>
<path d="M202.668 205.608L205.296 209.266C205.873 210.064 206.098 211.049 205.92 212.006C205.742 212.962 205.177 213.813 204.348 214.372L202.656 215.522L193.776 206.068L197.988 204.332C198.802 203.994 199.713 203.936 200.566 204.169C201.419 204.402 202.162 204.91 202.668 205.608V205.608Z" fill="#FFC3BD"/>
<path d="M173.04 187.876L172.272 190.049L171.468 192.349C170.952 193.913 170.424 195.489 169.968 197.064C168.996 200.215 168.192 203.366 167.496 206.471C166.856 209.425 166.431 212.419 166.224 215.43C166.045 217.803 166.251 220.189 166.836 222.502L164.928 219.765C164.365 219.239 163.664 218.87 162.9 218.695C162.504 218.695 162.48 218.696 162.636 218.776C163.429 218.919 164.243 218.919 165.036 218.776C167.534 218.441 169.999 217.906 172.404 217.178C175.032 216.453 177.72 215.568 180.432 214.659L188.58 211.842L188.748 211.784C189.86 211.396 191.078 211.391 192.194 211.769C193.31 212.147 194.254 212.886 194.863 213.858C195.473 214.83 195.712 215.975 195.537 217.096C195.363 218.218 194.787 219.247 193.908 220.006C191.563 222.035 189.095 223.928 186.516 225.676C183.924 227.466 181.228 229.113 178.44 230.609C175.422 232.26 172.233 233.605 168.924 234.623C166.826 235.279 164.648 235.666 162.444 235.773C160.871 235.835 159.297 235.668 157.776 235.278C155.57 234.717 153.55 233.624 151.908 232.104C151.173 231.419 150.579 230.608 150.156 229.712L150 229.367C148.013 224.984 146.957 220.266 146.892 215.487C146.892 213.325 146.892 211.232 147.012 209.185C147.132 207.138 147.432 205.148 147.732 203.182C148.353 199.327 149.21 195.51 150.3 191.751C150.84 189.9 151.404 188.06 152.052 186.243C152.376 185.334 152.7 184.426 153.048 183.517C153.396 182.609 153.756 181.758 154.248 180.677C155.237 178.329 157.144 176.445 159.561 175.424C161.978 174.403 164.716 174.327 167.191 175.211C169.666 176.095 171.684 177.87 172.814 180.158C173.945 182.446 174.099 185.066 173.244 187.462L173.04 187.876Z" fill="#FFC3BD"/>
<path d="M174 202.895C169.704 208.944 180.18 219.547 184.26 222.594C184.26 222.594 183.192 230.449 187.344 231.794C189.144 232.404 188.352 227.194 189.312 223.744C190.272 220.294 186.444 212.601 186.528 208.599C186.636 201.607 178.968 195.868 174 202.895Z" fill="#263238"/>
<path d="M179.364 182.068C179.88 180.274 174.564 179.768 171.456 176.479C169.572 179.584 174.18 186.45 174.18 186.45C174.18 186.45 178.416 185.311 179.364 182.068Z" fill="#263238"/>
<path opacity="0.6" d="M178.968 183.506C178.368 183.506 175.872 184.518 172.08 178.906C171.192 181.459 175.2 186.53 175.2 186.53C175.2 186.53 178.44 186.357 178.968 183.506Z" fill="white"/>
<path d="M189.132 181.608C189.741 181.351 190.404 181.234 191.069 181.266C191.733 181.297 192.381 181.478 192.96 181.792C193.632 182.229 192.492 183.241 191.76 183.207C191.028 183.172 188.1 182.08 189.132 181.608Z" fill="#263238"/>
<path d="M190.056 185.622C188.86 185.56 187.694 185.238 186.648 184.679C186.6 184.654 186.565 184.613 186.549 184.563C186.533 184.513 186.539 184.46 186.564 184.414C186.589 184.368 186.633 184.334 186.685 184.319C186.736 184.304 186.792 184.309 186.84 184.334C189.42 185.587 190.968 185.346 191.568 184.713C191.775 184.454 191.888 184.137 191.888 183.81C191.888 183.484 191.775 183.167 191.568 182.908C191.533 182.87 191.513 182.82 191.513 182.769C191.513 182.719 191.533 182.669 191.568 182.632C191.59 182.617 191.614 182.607 191.64 182.602C191.666 182.597 191.693 182.597 191.719 182.602C191.745 182.608 191.77 182.618 191.791 182.633C191.813 182.648 191.831 182.667 191.844 182.689C192.117 183.015 192.265 183.421 192.265 183.839C192.265 184.257 192.117 184.663 191.844 184.989C191.609 185.209 191.329 185.38 191.021 185.489C190.712 185.598 190.384 185.643 190.056 185.622V185.622Z" fill="#263238"/>
<path d="M194.652 185.76C193.638 185.553 192.692 185.115 191.892 184.483C191.849 184.451 191.821 184.404 191.814 184.352C191.808 184.3 191.823 184.248 191.856 184.207C191.889 184.166 191.939 184.139 191.993 184.133C192.047 184.126 192.101 184.14 192.144 184.172C193.02 184.794 194.436 185.564 194.856 185.323C195.024 185.231 195.012 184.92 194.964 184.679C194.959 184.653 194.959 184.628 194.965 184.603C194.971 184.578 194.982 184.554 194.998 184.534C195.014 184.513 195.034 184.496 195.057 184.483C195.08 184.471 195.106 184.463 195.132 184.46C195.158 184.453 195.186 184.452 195.213 184.457C195.24 184.461 195.265 184.472 195.287 184.487C195.309 184.503 195.327 184.523 195.34 184.546C195.352 184.569 195.359 184.595 195.36 184.621C195.456 185.142 195.36 185.487 195.072 185.656C194.944 185.726 194.799 185.762 194.652 185.76Z" fill="#263238"/>
<path d="M185.604 179.665C184.752 179.009 182.664 179.584 182.592 180.516C182.52 181.447 187.128 180.826 185.604 179.665Z" fill="#263238"/>
<path d="M191.64 179.998C192.48 179.665 194.04 180.608 193.86 181.367C193.68 182.126 190.128 180.55 191.64 179.998Z" fill="#263238"/>
<path d="M189.467 183.126C189.478 183.149 189.481 183.175 189.478 183.201C189.475 183.226 189.465 183.25 189.45 183.271C189.434 183.292 189.413 183.309 189.389 183.319C189.365 183.33 189.338 183.335 189.311 183.333C189.245 183.328 189.181 183.307 189.126 183.27C189.071 183.234 189.028 183.184 189 183.126C188.986 183.103 188.979 183.078 188.98 183.052C188.981 183.026 188.989 183.001 189.004 182.979C189.019 182.957 189.04 182.94 189.065 182.93C189.09 182.919 189.117 182.915 189.144 182.919C189.212 182.921 189.279 182.942 189.336 182.979C189.393 183.015 189.438 183.066 189.467 183.126V183.126Z" fill="#263238"/>
<path d="M187.883 182.585C187.894 182.609 187.897 182.635 187.894 182.66C187.891 182.686 187.882 182.71 187.866 182.731C187.85 182.752 187.829 182.768 187.805 182.779C187.781 182.79 187.754 182.794 187.727 182.792C187.663 182.788 187.6 182.767 187.545 182.733C187.491 182.699 187.446 182.652 187.416 182.597C187.402 182.575 187.395 182.549 187.396 182.523C187.397 182.497 187.405 182.472 187.42 182.45C187.435 182.428 187.456 182.411 187.481 182.401C187.506 182.39 187.533 182.386 187.56 182.39C187.627 182.393 187.692 182.412 187.749 182.446C187.805 182.481 187.852 182.529 187.883 182.585V182.585Z" fill="#263238"/>
<path d="M188.519 183.701C188.533 183.723 188.54 183.749 188.539 183.775C188.539 183.801 188.53 183.826 188.515 183.848C188.5 183.869 188.479 183.886 188.454 183.897C188.43 183.908 188.402 183.911 188.375 183.908C188.309 183.904 188.244 183.883 188.189 183.847C188.134 183.81 188.091 183.76 188.064 183.701C188.05 183.679 188.043 183.653 188.044 183.627C188.045 183.601 188.053 183.576 188.068 183.554C188.083 183.532 188.104 183.515 188.129 183.505C188.154 183.494 188.181 183.49 188.208 183.494C188.275 183.497 188.339 183.518 188.394 183.555C188.449 183.591 188.493 183.642 188.519 183.701V183.701Z" fill="#263238"/>
<path d="M194.639 183.08C194.651 183.103 194.655 183.128 194.653 183.154C194.65 183.179 194.64 183.203 194.624 183.223C194.608 183.244 194.586 183.259 194.561 183.268C194.537 183.277 194.51 183.28 194.483 183.275C194.419 183.271 194.356 183.25 194.301 183.216C194.247 183.182 194.202 183.135 194.172 183.08C194.158 183.057 194.151 183.032 194.152 183.006C194.153 182.98 194.161 182.955 194.176 182.933C194.191 182.911 194.212 182.894 194.237 182.884C194.262 182.873 194.289 182.869 194.316 182.873C194.384 182.875 194.451 182.896 194.508 182.933C194.565 182.969 194.61 183.02 194.639 183.08V183.08Z" fill="#263238"/>
<path d="M193.691 183.655C193.691 183.758 193.691 183.85 193.547 183.85C193.482 183.848 193.418 183.829 193.363 183.794C193.308 183.76 193.264 183.712 193.236 183.655C193.222 183.632 193.215 183.607 193.216 183.581C193.217 183.555 193.225 183.53 193.24 183.508C193.255 183.486 193.276 183.469 193.301 183.459C193.326 183.448 193.353 183.444 193.38 183.448C193.446 183.453 193.51 183.474 193.565 183.51C193.62 183.547 193.663 183.597 193.691 183.655V183.655Z" fill="#263238"/>
<path d="M198.468 175.789C200.251 175.789 201.696 174.404 201.696 172.696C201.696 170.987 200.251 169.602 198.468 169.602C196.685 169.602 195.24 170.987 195.24 172.696C195.24 174.404 196.685 175.789 198.468 175.789Z" fill="#263238"/>
<path d="M198.468 176.422C197.699 176.422 196.947 176.203 196.308 175.794C195.669 175.384 195.17 174.802 194.876 174.121C194.582 173.441 194.505 172.691 194.655 171.969C194.805 171.246 195.175 170.582 195.719 170.061C196.263 169.54 196.955 169.185 197.71 169.041C198.464 168.897 199.245 168.971 199.956 169.253C200.666 169.535 201.274 170.013 201.701 170.625C202.128 171.238 202.356 171.959 202.356 172.696C202.353 173.683 201.942 174.629 201.214 175.327C200.485 176.025 199.498 176.418 198.468 176.422V176.422ZM198.468 170.246C197.962 170.246 197.468 170.39 197.048 170.659C196.628 170.928 196.3 171.311 196.107 171.758C195.913 172.206 195.863 172.698 195.961 173.173C196.06 173.649 196.303 174.085 196.661 174.428C197.018 174.77 197.474 175.003 197.969 175.098C198.465 175.192 198.979 175.144 199.446 174.959C199.913 174.773 200.312 174.459 200.593 174.056C200.874 173.654 201.024 173.18 201.024 172.696C201.029 172.37 200.966 172.048 200.84 171.746C200.714 171.444 200.527 171.169 200.289 170.937C200.051 170.705 199.768 170.52 199.455 170.394C199.143 170.267 198.807 170.201 198.468 170.2V170.246Z" fill="white"/>
<path d="M172.14 143.75C178.452 137.034 174.54 130.583 174.54 130.583C174.54 130.583 195.948 129.433 198.42 125.511C195.936 117.461 187.056 111.032 172.104 116.633C157.152 122.234 163.884 143.244 163.884 143.244L172.14 143.75Z" fill="#263238"/>
<path d="M399.336 470.833L395.136 461.288C394.992 461.11 394.921 460.888 394.936 460.663C394.952 460.439 395.053 460.227 395.22 460.069L402.564 453.399C403.216 452.964 403.952 452.656 404.729 452.496C405.506 452.335 406.309 452.324 407.09 452.463C407.872 452.602 408.617 452.889 409.282 453.306C409.947 453.723 410.519 454.263 410.964 454.894C413.028 457.815 414.084 460.886 417.504 463.6C422.94 467.935 421.104 466.199 429.096 468.269C433.896 469.511 433.488 474.444 431.292 474.341C421.308 473.846 412.284 473.593 402.264 472.041C401.194 471.891 400.185 471.474 399.336 470.833V470.833Z" fill="#263238"/>
<path d="M378.264 450.628C390.504 446.925 442.908 445.154 436.44 408.078L389.208 404.973C389.208 404.973 323.808 427.973 316.572 456.631C307.296 493.362 399.528 474.065 399.528 474.065C404.172 473.03 407.556 467.245 406.92 460.61C406.92 460.587 402.564 450.409 378.264 450.628Z" fill="#ABDCD6"/>
<path opacity="0.2" d="M378.264 450.628C390.504 446.925 442.908 445.154 436.44 408.078L389.208 404.973C389.208 404.973 323.808 427.973 316.572 456.631C307.296 493.362 399.528 474.065 399.528 474.065C404.172 473.03 407.556 467.245 406.92 460.61C406.92 460.587 402.564 450.409 378.264 450.628Z" fill="black"/>
<path d="M450.432 472.11L445.848 462.726C445.69 462.558 445.603 462.341 445.603 462.116C445.603 461.891 445.69 461.674 445.848 461.507L452.916 454.607C453.549 454.143 454.271 453.804 455.042 453.611C455.812 453.417 456.615 453.373 457.404 453.48C458.192 453.587 458.951 453.843 459.635 454.234C460.319 454.625 460.915 455.143 461.388 455.757C463.572 458.609 464.76 461.633 468.276 464.221C473.892 468.361 471.96 466.693 480.048 468.453C484.944 469.522 484.68 474.479 482.448 474.444C472.452 474.318 463.416 474.444 453.348 473.168C452.297 473.061 451.293 472.697 450.432 472.11V472.11Z" fill="#263238"/>
<path d="M432.444 452.606C444.516 448.466 472.368 440.83 457.02 402.891L406.704 407.859C406.704 407.859 362.544 431.618 356.448 460.541C348.648 497.594 450.744 475.318 450.744 475.318C455.34 474.111 458.496 468.211 457.596 461.599C457.596 461.599 456.708 451.502 432.444 452.606Z" fill="#ABDCD6"/>
<path d="M392.856 332.453C391.012 336.336 388.701 339.999 385.968 343.367C383.452 346.489 380.718 349.444 377.784 352.21C375 354.901 372.18 357.362 369.492 359.72C366.804 362.077 364.26 364.32 362.076 366.493L361.284 367.287C360.392 368.18 359.283 368.848 358.056 369.23C353.544 370.593 348.854 371.34 344.124 371.45C339.874 371.583 335.619 371.429 331.392 370.99C327.264 370.553 323.22 369.932 319.236 369.127C315.233 368.328 311.279 367.318 307.392 366.102C306.184 365.709 305.159 364.919 304.499 363.872C303.84 362.825 303.588 361.589 303.787 360.381C303.987 359.173 304.625 358.071 305.59 357.27C306.555 356.47 307.784 356.022 309.06 356.005H309.3C312.972 356.005 316.848 356.005 320.592 355.913C324.336 355.821 328.08 355.695 331.728 355.407C335.272 355.183 338.801 354.776 342.3 354.188C345.333 353.723 348.295 352.904 351.12 351.75L347.112 354.487C349.692 351.244 352.332 348.404 354.9 345.736C357.468 343.068 359.94 340.549 362.256 338.088C364.572 335.627 366.696 333.201 368.556 330.786C370.347 328.508 371.952 326.102 373.356 323.587L373.452 323.426C374.701 320.955 376.923 319.062 379.629 318.161C382.336 317.261 385.304 317.428 387.882 318.625C390.46 319.822 392.436 321.951 393.376 324.545C394.315 327.138 394.141 329.983 392.892 332.453H392.856Z" fill="#FFB573"/>
<path d="M395.1 321.529C392.304 313.134 383.532 301.772 362.964 332.868C367.764 344.276 386.652 355.442 386.652 355.442C386.652 355.442 401.748 341.481 395.1 321.529Z" fill="#263238"/>
<path d="M314.64 359.456L306.84 350.256L298.368 361.963C298.368 361.963 306.492 369.495 311.364 366.011L314.64 359.456Z" fill="#FFB573"/>
<path d="M294 348.841L291.756 353.441C291.326 354.324 291.236 355.325 291.502 356.266C291.767 357.206 292.372 358.027 293.208 358.582L298.32 361.951L306.792 350.244L299.796 346.921C299.285 346.677 298.728 346.533 298.158 346.498C297.588 346.462 297.017 346.536 296.477 346.715C295.938 346.894 295.441 347.174 295.015 347.539C294.59 347.904 294.245 348.347 294 348.841Z" fill="#FFB573"/>
<path d="M385.728 311.569C402.936 307.567 410.34 307.096 422.928 306.763C426.466 306.653 429.99 307.234 433.286 308.47C436.583 309.706 439.582 311.571 442.103 313.952C444.624 316.334 446.613 319.181 447.95 322.322C449.287 325.463 449.944 328.832 449.88 332.224C449.496 371.232 456.36 393.886 457.08 402.891C430.2 419.75 391.2 419.566 384 412.654C368.94 383.157 370.392 347.162 370.38 332.051C370.38 323.874 376.8 313.639 385.728 311.569Z" fill="#263238"/>
<path d="M413.736 284.522C413.46 297.712 416.94 301.404 419.736 309.327C418.536 314.479 404.916 320.758 393.816 323.53C386.82 320.08 386.508 314.33 388.524 312.915C395.58 308.764 397.716 308.051 394.524 300.875L413.736 284.522Z" fill="#FFB573"/>
<path opacity="0.2" d="M405.696 293.25L401.208 295.205L394.512 300.897C395.025 301.989 395.427 303.125 395.712 304.29C399.42 303.531 403.38 301.289 404.52 298.356C405.238 296.738 405.637 295.007 405.696 293.25V293.25Z" fill="black"/>
<path d="M379.128 256.197C368.796 260.096 370.392 272.24 379.524 281.497C387.444 269.779 379.128 256.197 379.128 256.197Z" fill="#263238"/>
<path d="M414.684 267.594C415.068 280.681 415.98 288.294 409.728 295.539C400.332 306.395 382.956 301.737 378.528 288.984C374.508 277.484 374.556 258.037 387.396 251.816C390.24 250.447 393.399 249.792 396.579 249.91C399.759 250.029 402.856 250.917 405.58 252.493C408.305 254.068 410.569 256.279 412.161 258.92C413.753 261.56 414.621 264.545 414.684 267.594Z" fill="#FFB573"/>
<path d="M414.204 282.463C406.872 283.13 404.172 271.584 405.696 267.433C407.22 263.281 408.552 259.302 402.192 261.142C395.832 262.982 383.628 269.491 377.16 265.65C370.356 261.602 366.012 249.826 374.76 244.95C383.508 240.074 388.98 245.364 388.98 245.364C388.98 245.364 397.38 235.129 412.788 239.419C422.136 242.029 418.524 248.435 418.524 248.435C418.524 248.435 430.44 251.574 426.312 263.868C422.772 274.344 417.408 274.494 414.204 282.463Z" fill="#263238"/>
<path d="M421.308 279.519C420.944 281.108 420.255 282.612 419.28 283.944C418.306 285.277 417.066 286.411 415.632 287.282C411.756 289.581 408.516 286.569 408.504 282.44C408.504 278.737 410.472 273.056 414.876 272.424C419.28 271.791 422.172 275.586 421.308 279.519Z" fill="#FFB573"/>
<path d="M395.508 277.334C395.688 278.381 395.256 279.323 394.536 279.427C393.816 279.53 393.084 278.771 392.904 277.725C392.724 276.679 393.168 275.736 393.876 275.621C394.584 275.506 395.328 276.288 395.508 277.334Z" fill="#263238"/>
<path d="M381.18 278.956C381.36 280.014 380.928 280.945 380.208 281.06C379.488 281.175 378.756 280.405 378.576 279.347C378.396 278.289 378.828 277.357 379.548 277.254C380.268 277.15 381 277.909 381.18 278.956Z" fill="#263238"/>
<path d="M385.716 277.231C385.716 277.231 384.264 283.671 382.02 287.006C384.264 288.443 387.432 287.167 387.432 287.167L385.716 277.231Z" fill="#ED893E"/>
<path d="M392.688 289.858C393.889 289.541 395.008 288.989 395.974 288.237C396.941 287.485 397.734 286.549 398.304 285.488C398.339 285.411 398.341 285.325 398.309 285.247C398.278 285.17 398.216 285.107 398.136 285.074C398.056 285.04 397.966 285.038 397.885 285.068C397.804 285.098 397.739 285.158 397.704 285.235C397.046 286.397 396.11 287.393 394.974 288.143C393.837 288.892 392.532 289.373 391.164 289.547C391.122 289.552 391.081 289.566 391.044 289.587C391.008 289.609 390.976 289.637 390.951 289.67C390.926 289.704 390.909 289.742 390.9 289.782C390.891 289.822 390.891 289.863 390.9 289.903C390.906 289.944 390.92 289.984 390.942 290.019C390.964 290.055 390.993 290.086 391.028 290.111C391.063 290.135 391.102 290.153 391.144 290.163C391.186 290.173 391.229 290.175 391.272 290.168C391.75 290.093 392.223 289.989 392.688 289.858V289.858Z" fill="#263238"/>
<path d="M398.328 271.469C398.436 271.438 398.535 271.383 398.616 271.308C398.677 271.25 398.726 271.181 398.759 271.105C398.793 271.029 398.81 270.948 398.81 270.865C398.81 270.783 398.793 270.701 398.759 270.625C398.726 270.549 398.677 270.48 398.616 270.422C397.883 269.713 396.982 269.183 395.99 268.877C394.998 268.57 393.944 268.497 392.916 268.663C392.832 268.681 392.754 268.714 392.684 268.761C392.614 268.809 392.555 268.869 392.51 268.939C392.465 269.009 392.436 269.087 392.423 269.168C392.41 269.249 392.415 269.331 392.436 269.411C392.476 269.571 392.58 269.71 392.726 269.798C392.872 269.887 393.047 269.917 393.216 269.882V269.882C394.031 269.763 394.864 269.831 395.647 270.081C396.429 270.331 397.138 270.756 397.716 271.319C397.797 271.391 397.895 271.443 398.002 271.469C398.109 271.495 398.221 271.495 398.328 271.469Z" fill="#263238"/>
<path d="M375.468 273.585C375.574 273.575 375.677 273.539 375.765 273.48C375.853 273.422 375.924 273.343 375.972 273.252C376.333 272.549 376.863 271.939 377.518 271.471C378.173 271.003 378.934 270.691 379.74 270.561C379.825 270.553 379.908 270.53 379.984 270.492C380.06 270.454 380.127 270.402 380.181 270.339C380.236 270.276 380.277 270.203 380.302 270.124C380.328 270.046 380.336 269.964 380.328 269.882C380.31 269.716 380.224 269.564 380.089 269.458C379.954 269.353 379.781 269.302 379.608 269.319C378.586 269.465 377.616 269.846 376.78 270.428C375.944 271.011 375.268 271.778 374.808 272.665C374.727 272.813 374.711 272.986 374.763 273.145C374.815 273.304 374.93 273.438 375.084 273.516C375.202 273.575 375.336 273.599 375.468 273.585V273.585Z" fill="#263238"/>
<path d="M444.852 322.391C445.458 325.356 445.72 328.376 445.632 331.396C445.552 334.093 445.283 336.782 444.828 339.446C443.96 344.469 442.635 349.41 440.868 354.212C439.175 358.92 437.129 363.505 434.748 367.931C433.548 370.162 432.276 372.382 430.8 374.578C429.258 376.917 427.541 379.146 425.664 381.248L425.304 381.639C425.036 381.931 424.743 382.2 424.428 382.444C421.565 384.586 418.279 386.151 414.768 387.044C411.928 387.766 409.023 388.228 406.092 388.424C400.863 388.741 395.615 388.571 390.42 387.918C380.6 386.705 370.945 384.485 361.62 381.294C360.39 380.87 359.363 380.033 358.729 378.937C358.096 377.842 357.9 376.563 358.177 375.339C358.455 374.115 359.187 373.029 360.237 372.284C361.288 371.539 362.585 371.185 363.888 371.289H364.08C368.544 371.634 373.224 371.979 377.76 372.163C382.296 372.347 386.844 372.462 391.26 372.336C395.482 372.279 399.691 371.895 403.848 371.186C405.607 370.883 407.331 370.417 408.996 369.794C410.043 369.442 411 368.881 411.804 368.15L410.604 369.3C411.654 367.824 412.608 366.288 413.46 364.7C414.372 362.975 415.308 361.169 416.136 359.306C417.82 355.556 419.278 351.716 420.504 347.806C421.723 343.996 422.653 340.107 423.288 336.168C423.89 332.873 424.007 329.513 423.636 326.186V325.841C423.392 324.501 423.425 323.129 423.734 321.802C424.044 320.475 424.623 319.219 425.438 318.106C426.254 316.993 427.29 316.045 428.488 315.317C429.686 314.588 431.022 314.092 432.42 313.858C433.818 313.624 435.25 313.656 436.635 313.952C438.02 314.249 439.33 314.804 440.491 315.585C441.652 316.367 442.641 317.36 443.402 318.508C444.163 319.656 444.68 320.936 444.924 322.276L444.852 322.391Z" fill="#FFB573"/>
<path d="M273.6 476.595C251.184 477.998 231.948 462.944 234.6 436.828C246.864 459.69 265.788 474.099 273.6 476.595Z" fill="#263238"/>
<path opacity="0.1" d="M273.6 476.595C251.52 472.627 236.772 453.468 246.096 428.801C252.072 453.859 266.676 472.317 273.6 476.595Z" fill="#263238"/>
<path opacity="0.1" d="M273.6 476.594C252.384 483.701 229.644 474.133 224.904 448.304C243.108 467.187 265.38 476.203 273.6 476.594Z" fill="#263238"/>
<path d="M337.272 380.316C337.272 380.316 348.312 434.136 338.784 473.466C345.084 473.466 345.984 479.814 342.216 483.402H265.284C263.902 483.402 262.535 483.134 261.264 482.613C259.993 482.092 258.846 481.329 257.892 480.372C256.937 479.414 256.195 478.281 255.711 477.041C255.226 475.8 255.009 474.479 255.072 473.156C255.768 458.125 262.188 437.241 280.548 429.099C285.192 415.449 295.944 387.768 291.192 371.806C286.44 355.844 308.28 340.722 325.2 351.9C336.24 348.151 355.908 333.856 361.548 350.037C367.188 366.217 337.272 380.316 337.272 380.316Z" fill="#263238"/>
<path d="M346.656 374.9C354.9 372.117 368.436 370.944 360.408 358.996C346.476 360.042 346.656 374.9 346.656 374.9Z" fill="#263238"/>
<path opacity="0.2" d="M308.604 478.918H308.448C308.311 478.878 308.197 478.788 308.129 478.667C308.062 478.546 308.047 478.405 308.088 478.274C308.275 477.507 308.263 476.707 308.054 475.946C307.845 475.184 307.445 474.483 306.888 473.904C304.488 471.017 299.52 469.235 294.888 469.58C294.798 469.586 294.708 469.571 294.626 469.535C294.544 469.498 294.473 469.442 294.42 469.373C294.367 469.302 294.333 469.22 294.321 469.134C294.308 469.048 294.318 468.96 294.348 468.878C302.28 448.304 289.116 435.631 288.984 435.528C288.893 435.43 288.844 435.302 288.847 435.171C288.851 435.04 288.906 434.914 289.002 434.821C289.099 434.727 289.228 434.672 289.365 434.667C289.502 434.661 289.636 434.706 289.74 434.792C289.884 434.918 303.228 447.729 295.632 468.522C300.432 468.407 305.232 470.258 307.752 473.271C308.431 473.974 308.916 474.828 309.163 475.755C309.411 476.683 309.412 477.656 309.168 478.584C309.128 478.693 309.05 478.785 308.947 478.846C308.845 478.907 308.724 478.932 308.604 478.918V478.918Z" fill="white"/>
<path d="M352.968 343.194C347.532 342.516 343.164 346.449 347.964 348.565C352.764 350.681 348.708 346.334 351.132 347.863C353.556 349.393 356.28 350.003 356.808 348.565C357.336 347.128 356.304 346.748 355.74 345.874C355.176 345 358.428 346.598 357.756 345.575C356.528 344.235 354.819 343.385 352.968 343.194Z" fill="white"/>
<path d="M354.588 357.386C360.204 361.41 358.188 366.896 363.636 365.435C366.264 364.711 366.816 357.501 362.112 353.936C360.48 354.971 358.452 352.418 358.452 352.418C358.452 352.418 357.48 356.236 354.588 357.386Z" fill="#ED847E"/>
<path d="M348 359.513C347.388 359.513 346.992 359.513 346.932 359.513C346.861 359.506 346.792 359.485 346.729 359.452C346.667 359.42 346.611 359.375 346.567 359.322C346.522 359.268 346.489 359.207 346.469 359.141C346.45 359.075 346.444 359.006 346.452 358.938C346.47 358.804 346.541 358.681 346.65 358.596C346.76 358.51 346.899 358.468 347.04 358.478C347.112 358.478 353.94 359.111 357.096 354.419C357.331 354.1 357.493 353.738 357.574 353.356C357.655 352.974 357.651 352.58 357.564 352.199C357.031 350.86 356.042 349.733 354.756 349.002C354.635 348.933 354.546 348.82 354.51 348.689C354.474 348.558 354.494 348.418 354.564 348.301C354.6 348.241 354.648 348.19 354.705 348.148C354.762 348.107 354.827 348.077 354.896 348.06C354.965 348.042 355.037 348.039 355.108 348.048C355.179 348.058 355.247 348.081 355.308 348.117C356.847 348.983 358.017 350.344 358.608 351.958C358.732 352.474 358.742 353.01 358.639 353.53C358.536 354.051 358.321 354.545 358.008 354.982C355.26 359.03 350.22 359.513 348 359.513Z" fill="white"/>
<path d="M361.2 354.706C359.4 354.706 357.732 352.406 357.6 352.141C357.55 352.086 357.512 352.021 357.49 351.951C357.468 351.881 357.461 351.807 357.471 351.734C357.481 351.662 357.507 351.592 357.547 351.529C357.587 351.467 357.641 351.413 357.704 351.372C357.768 351.331 357.84 351.303 357.915 351.291C357.99 351.279 358.068 351.282 358.142 351.3C358.216 351.318 358.285 351.352 358.345 351.398C358.405 351.443 358.453 351.501 358.488 351.566C358.884 352.107 360.216 353.659 361.236 353.659C361.368 353.659 361.8 353.659 362.244 352.889C362.316 352.77 362.434 352.683 362.572 352.648C362.71 352.612 362.858 352.631 362.982 352.699C363.106 352.768 363.197 352.881 363.234 353.014C363.271 353.146 363.252 353.288 363.18 353.406C363.014 353.767 362.748 354.077 362.412 354.304C362.076 354.531 361.682 354.666 361.272 354.694L361.2 354.706Z" fill="white"/>
<path d="M317.316 352.107C312.696 348.174 304.344 352.544 305.316 358.57C306.288 364.596 325.524 359.088 317.316 352.107Z" fill="white"/>
<path d="M315.852 352.809C314.928 351.463 312.66 352.636 312.588 354.557C312.516 356.477 317.496 355.189 315.852 352.809Z" fill="#263238"/>
<path d="M320.328 350.681C319.956 352.245 322.404 352.981 323.928 351.751C325.452 350.52 321 347.898 320.328 350.681Z" fill="#263238"/>
<path d="M298.524 358.34C297.192 347.495 277.872 369.576 279.192 383.502C280.512 397.429 293.244 395.945 296.844 394.899C300.444 393.852 299.736 368 298.524 358.34Z" fill="#263238"/>
<path opacity="0.8" d="M298.524 358.34C297.192 347.495 277.872 369.576 279.192 383.502C280.512 397.429 293.244 395.945 296.844 394.899C300.444 393.852 299.736 368 298.524 358.34Z" fill="white"/>
<path d="M333.756 483.426H314.868C313.092 479.159 303.66 455.895 304.8 445.786C303.688 446.734 302.817 447.915 302.256 449.236C301.97 447.945 302.042 446.605 302.463 445.348C302.884 444.092 303.64 442.962 304.656 442.072C303.744 441.531 301.836 442.474 301.836 442.474C302.025 441.654 302.385 440.878 302.894 440.194C303.403 439.511 304.052 438.933 304.8 438.495C304.306 437.998 303.901 437.427 303.6 436.805C297.984 426.616 301.596 414.104 311.388 407.399C317.328 403.317 324.24 403.478 325.788 415.783C327.336 428.088 320.52 462.277 327.324 477.618C331.752 476.997 333.324 481.655 333.756 483.426Z" fill="white"/>
<path opacity="0.2" d="M319.584 383.985C314.364 383.985 309.168 382.49 306.888 379.719C306.801 379.61 306.762 379.473 306.78 379.337C306.798 379.202 306.871 379.078 306.984 378.994C307.097 378.912 307.238 378.875 307.379 378.89C307.519 378.905 307.649 378.971 307.74 379.075C311.34 383.49 323.616 384.318 329.58 380.547C329.639 380.509 329.705 380.483 329.775 380.469C329.845 380.456 329.916 380.456 329.986 380.47C330.056 380.483 330.122 380.509 330.181 380.547C330.24 380.585 330.291 380.634 330.33 380.69C330.369 380.747 330.397 380.81 330.411 380.877C330.424 380.944 330.424 381.013 330.41 381.079C330.396 381.146 330.369 381.21 330.329 381.266C330.29 381.323 330.239 381.371 330.18 381.409C326.97 383.204 323.298 384.097 319.584 383.985Z" fill="white"/>
<path d="M367.092 371.588L355.2 368.23V382.467C355.2 382.467 366.348 384.261 368.304 378.741L367.092 371.588Z" fill="#FFB573"/>
<path d="M343.848 374.037L344.712 379.028C344.875 379.992 345.39 380.869 346.167 381.501C346.943 382.134 347.929 382.48 348.948 382.478H355.2V368.241L347.472 369.3C346.908 369.379 346.366 369.566 345.878 369.848C345.389 370.13 344.964 370.502 344.627 370.943C344.29 371.384 344.048 371.884 343.914 372.415C343.78 372.947 343.758 373.498 343.848 374.037V374.037Z" fill="#FFB573"/>
<path d="M440.544 313.87C433.128 308.672 419.712 312.858 417.324 342.516C428.532 348.496 447.912 342.516 447.912 342.516C447.912 342.516 453.72 323.07 440.544 313.87Z" fill="#263238"/>
</svg>