<svg width="345" height="289" viewBox="0 0 345 289" fill="none" xmlns="http://www.w3.org/2000/svg">
<g clip-path="url(#clip0_67_3)">
<path d="M270.571 257.532H241.57V257.742H270.571V257.532Z" fill="#EBEBEB"/>
<path d="M282.786 263.121H265.983V263.33H282.786V263.121Z" fill="#EBEBEB"/>
<path d="M284.38 116.085C284.38 121.766 280.256 123.999 275.177 123.999C270.098 123.999 265.983 121.766 265.983 116.085C265.983 110.404 270.098 105.806 275.177 105.806C280.256 105.806 284.38 110.396 284.38 116.085Z" fill="#E0E0E0"/>
<path d="M266.009 104.195C266.009 104.195 265.589 109.288 268.373 111.873L273.723 108.223C272.567 105.789 266.009 104.195 266.009 104.195Z" fill="#E0E0E0"/>
<path d="M286.63 104.882C286.63 104.882 280.58 104.992 277.813 107.903L282.655 112.645C285.457 111.293 286.63 104.882 286.63 104.882Z" fill="#E0E0E0"/>
<path d="M268.977 119.996C268.618 127.833 270.168 150.398 272.287 153.612C269.73 152.916 268.198 154.728 269.328 156.582H308.118C308.118 156.582 312.785 132.776 288.854 130.813C284.336 126.155 282.348 118.275 282.348 118.275L268.977 119.996Z" fill="#E0E0E0"/>
<path d="M306.078 150.532C307.147 151.093 308.393 151.257 309.581 150.994C310.909 150.773 312.178 150.305 313.32 149.617C315.666 148.238 317.41 146.092 318.232 143.576C318.943 141.013 318.756 138.297 317.698 135.847C317.181 134.584 316.535 133.372 315.771 132.23C315.412 131.635 314.948 131.098 314.554 130.552C314.16 130.007 313.626 129.352 313.197 128.723C312.307 127.451 311.55 126.1 310.938 124.686C310.299 123.194 309.934 121.607 309.861 119.995C309.778 118.26 310.226 116.54 311.148 115.044C312.104 113.535 313.498 112.326 315.158 111.562C318.352 110.224 321.932 109.999 325.281 110.925C326.903 111.323 328.47 111.906 329.948 112.661C331.408 113.425 332.794 114.313 334.09 115.313C334.592 115.698 334.915 116.259 334.986 116.872C335.058 117.485 334.873 118.1 334.47 118.581C334.068 119.064 333.484 119.372 332.844 119.441C332.205 119.509 331.563 119.331 331.06 118.946C330.991 118.895 330.927 118.839 330.867 118.779C328.98 116.948 326.684 115.55 324.151 114.692C321.73 113.832 319.072 113.815 316.638 114.642C315.537 115.052 314.591 115.772 313.924 116.706C313.27 117.681 312.932 118.82 312.952 119.979C312.961 121.253 313.198 122.516 313.652 123.713C314.142 124.975 314.758 126.189 315.491 127.338C315.859 127.934 316.27 128.488 316.673 129.075C317.076 129.662 317.549 130.3 317.969 130.963C318.805 132.257 319.501 133.629 320.044 135.058C321.229 138.009 321.383 141.248 320.482 144.288C319.508 147.332 317.414 149.932 314.589 151.606C313.198 152.478 311.647 153.087 310.018 153.402C309.154 153.57 308.269 153.613 307.391 153.528C306.45 153.456 305.536 153.19 304.712 152.747C304.41 152.579 304.19 152.303 304.101 151.98C304.012 151.656 304.06 151.313 304.235 151.023C304.41 150.734 304.698 150.523 305.036 150.437C305.373 150.352 305.732 150.397 306.034 150.565H306.078V150.532Z" fill="#E0E0E0"/>
<path d="M151.537 47.9293C154.164 38.0441 152.798 32.5225 152.798 32.5225C152.798 32.5225 150.845 30.2065 151.966 27.9743C153.609 28.758 155.187 29.6614 156.686 30.6764C157.667 29.6023 165.442 30.2065 167.876 30.9529C166.808 29.5096 167.631 27.5044 167.631 27.5044C169.908 28.5749 171.743 30.3487 172.841 32.5393C174.741 36.2396 174.374 44.5391 174.374 44.5391C174.374 44.5391 203.436 35.8704 205.826 64.821H153.288C153.288 64.821 149.409 55.9012 151.537 47.9293Z" fill="#E0E0E0"/>
<path d="M22.5303 188.353C24.2815 187.513 28.2481 186.801 31.6981 183.469C32.0134 179.34 37.7313 174.372 47.1356 174.909C56.7676 175.463 61.0844 199.019 53.0549 191.978C54.9287 197.785 55.4891 211.01 72.205 223.421C84.21 232.333 84.2712 249.603 74.8319 249.603H29.115C24.9295 249.603 29.115 242.092 33.9135 242.696C38.2917 239.692 37.4686 221.264 37.4686 221.264C37.4686 221.264 30.9013 202.803 35.3058 196.459C30.2096 198.943 18.6162 196.711 22.5303 188.353Z" fill="#E0E0E0"/>
<path d="M92.4143 220.769C95.7504 230.235 91.4686 241.874 78.6143 239.365L79.5599 241.882C93.8415 249.854 107.414 232.072 92.4143 220.769Z" fill="#E0E0E0"/>
<path d="M107.843 159.57V249.241H1.68998V159.57H107.843ZM109.542 157.951H0V250.869H109.542V157.951Z" fill="#F0F0F0"/>
<path d="M6.10306 157.951H4.41309V250.869H6.10306V157.951Z" fill="#F0F0F0"/>
<path d="M25.9014 157.951H24.2114V250.869H25.9014V157.951Z" fill="#F0F0F0"/>
<path d="M45.708 157.951H44.0181V250.869H45.708V157.951Z" fill="#F0F0F0"/>
<path d="M65.5147 157.951H63.8247V250.869H65.5147V157.951Z" fill="#F0F0F0"/>
<path d="M85.3218 157.951H83.6318V250.869H85.3218V157.951Z" fill="#F0F0F0"/>
<path d="M105.12 157.951H103.43V250.869H105.12V157.951Z" fill="#F0F0F0"/>
<path d="M16.9261 204.406H0.542969V219.653H16.9261V204.406Z" fill="#F0F0F0"/>
<path d="M225.581 159.57V249.241H119.419V159.57H225.581ZM227.271 157.951H117.729V250.869H227.271V157.951Z" fill="#F0F0F0"/>
<path d="M123.833 157.951H122.143V250.869H123.833V157.951Z" fill="#F0F0F0"/>
<path d="M143.63 157.951H141.94V250.869H143.63V157.951Z" fill="#F0F0F0"/>
<path d="M163.437 157.951H161.747V250.869H163.437V157.951Z" fill="#F0F0F0"/>
<path d="M183.244 157.951H181.554V250.869H183.244V157.951Z" fill="#F0F0F0"/>
<path d="M203.051 157.951H201.361V250.869H203.051V157.951Z" fill="#F0F0F0"/>
<path d="M222.858 157.951H221.168V250.869H222.858V157.951Z" fill="#F0F0F0"/>
<path d="M134.655 204.406H118.272V219.653H134.655V204.406Z" fill="#F0F0F0"/>
<path d="M343.31 159.57V249.241H237.157V159.57H343.31ZM345 157.951H235.458V250.869H345V157.951Z" fill="#F0F0F0"/>
<path d="M241.562 157.951H239.872V250.869H241.562V157.951Z" fill="#F0F0F0"/>
<path d="M261.359 157.951H259.669V250.869H261.359V157.951Z" fill="#F0F0F0"/>
<path d="M281.166 157.951H279.476V250.869H281.166V157.951Z" fill="#F0F0F0"/>
<path d="M300.973 157.951H299.283V250.869H300.973V157.951Z" fill="#F0F0F0"/>
<path d="M320.78 157.951H319.09V250.869H320.78V157.951Z" fill="#F0F0F0"/>
<path d="M340.587 157.951H338.897V250.869H340.587V157.951Z" fill="#F0F0F0"/>
<path d="M252.384 204.406H236.001V219.653H252.384V204.406Z" fill="#F0F0F0"/>
<path d="M107.843 66.6511V156.323H1.68998V66.6511H107.843ZM109.542 65.0232H0V157.942H109.542V65.0232Z" fill="#F0F0F0"/>
<path d="M6.10306 65.0232H4.41309V157.942H6.10306V65.0232Z" fill="#F0F0F0"/>
<path d="M25.9014 65.0232H24.2114V157.942H25.9014V65.0232Z" fill="#F0F0F0"/>
<path d="M45.708 65.0232H44.0181V157.942H45.708V65.0232Z" fill="#F0F0F0"/>
<path d="M65.5147 65.0232H63.8247V157.942H65.5147V65.0232Z" fill="#F0F0F0"/>
<path d="M85.3218 65.0232H83.6318V157.942H85.3218V65.0232Z" fill="#F0F0F0"/>
<path d="M105.12 65.0232H103.43V157.942H105.12V65.0232Z" fill="#F0F0F0"/>
<path d="M16.9261 111.487H0.542969V126.734H16.9261V111.487Z" fill="#F0F0F0"/>
<path d="M225.581 66.6511V156.323H119.419V66.6511H225.581ZM227.271 65.0232H117.729V157.942H227.271V65.0232Z" fill="#F0F0F0"/>
<path d="M123.833 65.0232H122.143V157.942H123.833V65.0232Z" fill="#F0F0F0"/>
<path d="M143.63 65.0232H141.94V157.942H143.63V65.0232Z" fill="#F0F0F0"/>
<path d="M163.437 65.0232H161.747V157.942H163.437V65.0232Z" fill="#F0F0F0"/>
<path d="M183.244 65.0232H181.554V157.942H183.244V65.0232Z" fill="#F0F0F0"/>
<path d="M203.051 65.0232H201.361V157.942H203.051V65.0232Z" fill="#F0F0F0"/>
<path d="M222.858 65.0232H221.168V157.942H222.858V65.0232Z" fill="#F0F0F0"/>
<path d="M134.655 111.487H118.272V126.734H134.655V111.487Z" fill="#F0F0F0"/>
<path d="M343.31 66.6511V156.323H237.157V66.6511H343.31ZM345 65.0232H235.458V157.942H345V65.0232Z" fill="#F0F0F0"/>
<path d="M241.562 65.0232H239.872V157.942H241.562V65.0232Z" fill="#F0F0F0"/>
<path d="M261.359 65.0232H259.669V157.942H261.359V65.0232Z" fill="#F0F0F0"/>
<path d="M281.166 65.0232H279.476V157.942H281.166V65.0232Z" fill="#F0F0F0"/>
<path d="M300.973 65.0232H299.283V157.942H300.973V65.0232Z" fill="#F0F0F0"/>
<path d="M320.78 65.0232H319.09V157.942H320.78V65.0232Z" fill="#F0F0F0"/>
<path d="M340.587 65.0232H338.897V157.942H340.587V65.0232Z" fill="#F0F0F0"/>
<path d="M252.384 111.487H236.001V126.734H252.384V111.487Z" fill="#F0F0F0"/>
<path d="M107.843 1.6249V63.4031H1.68998V1.6249H107.843ZM109.542 -0.00305176H0V65.0814H109.542V-0.00305176Z" fill="#F0F0F0"/>
<path d="M6.10306 0.00549316H4.41309V65.048H6.10306V0.00549316Z" fill="#F0F0F0"/>
<path d="M25.9014 0.00549316H24.2114V65.048H25.9014V0.00549316Z" fill="#F0F0F0"/>
<path d="M45.708 0.00549316H44.0181V65.048H45.708V0.00549316Z" fill="#F0F0F0"/>
<path d="M65.5147 0.00549316H63.8247V65.048H65.5147V0.00549316Z" fill="#F0F0F0"/>
<path d="M85.3218 0.00549316H83.6318V65.048H85.3218V0.00549316Z" fill="#F0F0F0"/>
<path d="M105.12 0.00549316H103.43V65.048H105.12V0.00549316Z" fill="#F0F0F0"/>
<path d="M16.9261 18.5927H0.542969V33.8396H16.9261V18.5927Z" fill="#F0F0F0"/>
<path d="M225.581 1.62502V63.4032H119.419V1.62502H225.581ZM227.271 -0.00292969H117.729V65.0815H227.271V-0.00292969Z" fill="#F0F0F0"/>
<path d="M123.833 0.00549316H122.143V65.048H123.833V0.00549316Z" fill="#F0F0F0"/>
<path d="M143.63 0.00549316H141.94V65.048H143.63V0.00549316Z" fill="#F0F0F0"/>
<path d="M163.437 0.00549316H161.747V65.048H163.437V0.00549316Z" fill="#F0F0F0"/>
<path d="M183.244 0.00549316H181.554V65.048H183.244V0.00549316Z" fill="#F0F0F0"/>
<path d="M203.051 0.00549316H201.361V65.048H203.051V0.00549316Z" fill="#F0F0F0"/>
<path d="M222.858 0.00549316H221.168V65.048H222.858V0.00549316Z" fill="#F0F0F0"/>
<path d="M134.655 18.5927H118.272V33.8396H134.655V18.5927Z" fill="#F0F0F0"/>
<path d="M343.31 1.62502V63.4032H237.157V1.62502H343.31ZM345 -0.00292969H235.458V65.0815H345V-0.00292969Z" fill="#F0F0F0"/>
<path d="M241.562 0.00549316H239.872V65.048H241.562V0.00549316Z" fill="#F0F0F0"/>
<path d="M261.359 0.00549316H259.669V65.048H261.359V0.00549316Z" fill="#F0F0F0"/>
<path d="M281.166 0.00549316H279.476V65.048H281.166V0.00549316Z" fill="#F0F0F0"/>
<path d="M300.973 0.00549316H299.283V65.048H300.973V0.00549316Z" fill="#F0F0F0"/>
<path d="M320.78 0.00549316H319.09V65.048H320.78V0.00549316Z" fill="#F0F0F0"/>
<path d="M340.587 0.00549316H338.897V65.048H340.587V0.00549316Z" fill="#F0F0F0"/>
<path d="M252.384 18.5927H236.001V33.8396H252.384V18.5927Z" fill="#F0F0F0"/>
<path d="M172.5 288.765C266.265 288.765 342.277 284.513 342.277 279.266C342.277 274.02 266.265 269.767 172.5 269.767C78.7348 269.767 2.72314 274.02 2.72314 279.266C2.72314 284.513 78.7348 288.765 172.5 288.765Z" fill="#F5F5F5"/>
<path d="M70.4447 21.1604C62.0211 26.9337 76.1188 39.0263 63.5535 41.7451C50.9881 44.464 60.0509 65.5346 72.0909 66.7766C84.1309 68.0185 106.757 71.3335 109.673 54.1054C112.3 38.3798 103.938 38.5731 104.971 32.0613C106.232 24.1142 103.841 19.0961 96.2146 14.8668C85.8121 9.04308 67.8178 8.18714 70.4447 21.1604Z" fill="#263238"/>
<path d="M110.654 275.448C103.202 274.903 99.3581 270.019 99.6296 264.842C99.7697 261.988 90.2428 261.737 90.2428 261.737C92.1955 270.581 90.3654 271.806 89.8575 274.131C89.3496 276.455 89.6298 278.939 91.6088 278.99C93.973 279.04 95.05 278.612 97.9834 278.721C101.416 278.847 103.728 278.981 109.813 278.99C112.239 278.99 113.964 275.708 110.654 275.448Z" fill="#ABDCD6"/>
<path d="M109.296 108.86C109.296 108.86 110.032 150.306 105.295 181.53C105.12 207.955 100.277 266.049 100.277 266.049C97.0259 266.786 93.6365 266.755 90.4003 265.957C90.4003 265.957 76.3901 223.53 80.8471 181.086C73.842 136.611 74.0697 108.86 74.0697 108.86H109.296Z" fill="#263238"/>
<path opacity="0.2" d="M74.9019 129.478C75.7775 141.923 77.4412 159.536 80.8474 181.078C80.5147 184.266 80.2783 187.463 80.1469 190.635C94.9977 165.05 96.8015 124.661 74.9019 129.478Z" fill="black"/>
<path d="M51.3735 274.718C51.1108 270.997 51.4056 267.258 52.2491 263.616C52.2491 263.616 44.0269 261.938 43.7642 264.691C43.3002 269.725 40.3755 274.408 33.8959 275.221C30.1919 275.683 31.5754 278.99 34.2198 278.99C40.8396 278.99 38.598 278.889 42.3545 278.763C45.5681 278.662 46.216 279.04 48.7991 278.99C50.9094 278.947 51.391 276.976 51.3735 274.718Z" fill="#ABDCD6"/>
<path d="M96.4687 108.86C96.4687 108.86 83.8771 166.459 75.5848 191.096C66.8898 216.934 52.9234 264.061 52.8183 265.999C49.0093 266.687 45.4279 266.939 42.4508 265.999C42.4508 265.999 37.5998 213.015 48.7378 184.962C51.5399 126.407 68.0018 108.902 68.0018 108.902L96.4687 108.86Z" fill="#263238"/>
<path d="M98.815 55.532C98.7756 55.5328 98.7362 55.524 98.7012 55.5065C98.6654 55.489 98.6355 55.4627 98.6136 55.4313C98.5173 55.2971 98.4035 55.1628 98.2984 55.0285C97.5716 54.131 96.6785 53.0146 97.5629 51.7223C98.5961 50.2206 100.733 50.7321 102.3 51.1101L102.948 51.2611C104.121 51.6041 105.382 51.5537 106.521 51.1181C107.939 50.4468 108.727 49.037 109.489 47.6608C109.943 46.7589 110.511 45.9132 111.179 45.1434C111.363 44.942 111.556 44.7493 111.757 44.5559C112.527 43.8941 113.127 43.0695 113.508 42.1479C113.516 42.118 113.53 42.0903 113.55 42.067C113.569 42.0429 113.594 42.0232 113.622 42.0093C113.65 41.9947 113.681 41.9867 113.712 41.9845C113.745 41.9823 113.776 41.986 113.806 41.9969C113.837 42.0049 113.866 42.0195 113.891 42.0392C113.917 42.0589 113.937 42.083 113.953 42.11C113.969 42.1377 113.978 42.1676 113.982 42.1983C113.985 42.2289 113.982 42.2603 113.972 42.2902C113.567 43.287 112.918 44.1758 112.081 44.8836L111.52 45.4542C110.878 46.1985 110.334 47.0158 109.901 47.8877C109.104 49.3223 108.281 50.808 106.713 51.5464C105.476 52.0288 104.105 52.0908 102.825 51.7223L102.16 51.5712C100.663 51.2108 98.7975 50.7321 97.9482 51.9908C97.2564 52.9978 97.9481 53.8537 98.6662 54.752C98.7712 54.8943 98.8851 55.0285 98.9902 55.1628C99.0281 55.2132 99.0442 55.2752 99.0339 55.3365C99.0245 55.3985 98.9894 55.4532 98.9376 55.4904C98.9019 55.5145 98.8595 55.5291 98.815 55.532Z" fill="white"/>
<path d="M119.48 49.2552L117.729 46.2511C117.108 45.1638 116.203 44.2495 115.102 43.5994L113.001 42.3742C112.326 41.9809 111.529 41.8262 110.748 41.9386C109.967 42.0502 109.252 42.4209 108.728 42.9864L107.099 44.7406C106.8 45.0595 106.571 45.4323 106.425 45.8366C106.279 46.2416 106.218 46.6699 106.247 47.0975C106.276 47.5244 106.393 47.9425 106.592 48.3256C106.79 48.7094 107.067 49.0509 107.405 49.3304L108.973 50.6394C108.973 50.6394 112.878 54.7848 117.431 55.5992L118.237 54.6177C118.867 53.8786 119.307 53.0088 119.523 52.0777C119.739 51.1466 119.724 50.1797 119.48 49.2552Z" fill="#FFC3BD"/>
<path d="M107.65 60.2817L108.465 61.2719C108.78 61.6499 109.113 62.0359 109.454 62.4131C110.146 63.1684 110.838 63.9236 111.573 64.6285C112.972 66.0229 114.492 67.3006 116.118 68.4462C117.587 69.497 119.187 70.3683 120.881 71.0396C121.663 71.3293 122.465 71.5679 123.28 71.7525C123.675 71.8423 124.076 71.9065 124.48 71.9459H124.629H124.708C124.708 71.9459 124.786 71.9459 124.708 71.9459H124.515H124.112L123.666 72.0218C123.306 72.0911 122.956 72.2005 122.624 72.3487C122.242 72.5033 121.88 72.7004 121.547 72.9361C121.228 73.1572 120.934 73.4104 120.671 73.6913C120.456 73.9241 120.263 74.1736 120.093 74.4378C119.973 74.6392 119.865 74.8464 119.769 75.0595C119.705 75.2098 119.649 75.3638 119.603 75.5206C119.571 75.6279 119.547 75.7374 119.533 75.8483C119.519 75.9512 119.519 76.0555 119.533 76.1584C119.533 76.3007 119.533 76.2336 119.585 76.1584C119.619 75.8344 119.619 75.509 119.585 75.185C119.464 74.2079 119.283 73.2382 119.042 72.2815C118.569 70.1837 117.913 67.9771 117.238 65.7529L112.93 52.2258V52.1843C112.676 51.3743 112.73 50.5038 113.084 49.7296C113.438 48.9546 114.068 48.3264 114.862 47.9564C115.656 47.5864 116.561 47.5003 117.415 47.7119C118.27 47.9236 119.017 48.4205 119.524 49.113C122.467 53.1723 125.118 57.4198 127.457 61.8257C128.682 64.0995 129.784 66.433 130.758 68.8162C131.292 70.1377 131.746 71.4884 132.116 72.8609C132.343 73.7095 132.504 74.5735 132.597 75.4455C132.647 76.0453 132.647 76.6488 132.597 77.2493C132.543 78.2285 132.312 79.191 131.914 80.0937C131.761 80.4439 131.582 80.7832 131.38 81.1094C130.843 81.9544 130.138 82.6899 129.305 83.2744C128.846 83.6064 128.35 83.8881 127.825 84.1135C127.347 84.3149 126.848 84.4667 126.336 84.5667C126.111 84.6148 125.883 84.6513 125.653 84.6761C125.443 84.6761 125.233 84.6929 125.023 84.7265H124.576H124.103C123.228 84.7265 122.405 84.7257 121.564 84.6418C119.903 84.509 118.259 84.2281 116.652 83.8027C113.597 82.9621 110.689 81.6953 108.018 80.044C105.491 78.5022 103.143 76.7079 101.013 74.6895C99.9797 73.6993 98.9815 72.6843 98.0533 71.6102C97.5892 71.0732 97.1339 70.5281 96.6873 69.9319L96.0306 69.0504L95.6891 68.5893L95.2951 68.0186C94.2647 66.4987 93.8817 64.6584 94.2246 62.8758C94.5676 61.0938 95.6103 59.5053 97.1383 58.437C98.667 57.3695 100.564 56.9039 102.44 57.136C104.315 57.3687 106.027 58.2809 107.221 59.6863L107.65 60.2817Z" fill="#FFC3BD"/>
<path d="M110.978 68.5052C110.829 71.8618 116.381 79.6747 109.524 84.1893C110.803 86.933 111.889 105.537 109.297 108.86C105.514 111.529 85.0329 111.009 68.0543 108.86C67.3363 102.147 71.1979 88.2005 66.4694 66.4745C66.2089 65.2844 66.2126 64.0548 66.4811 62.8661C66.7496 61.6775 67.2765 60.5567 68.0273 59.576C68.7789 58.596 69.737 57.7787 70.8403 57.1767C71.9429 56.5754 73.1659 56.204 74.429 56.0858C75.8563 55.9435 77.3623 55.8341 78.9122 55.7589C84.32 55.389 89.7475 55.389 95.1552 55.7589C96.9065 55.91 98.7191 56.1281 100.409 56.3631C103.431 56.763 106.19 58.2297 108.145 60.4749C110.099 62.7202 111.109 65.5835 110.978 68.5052Z" fill="#ABDCD6"/>
<path d="M78.3955 38.2288C79.6914 43.2637 80.9524 51.4122 78.8946 55.759C78.8946 55.759 85.8034 56.0859 95.663 63.6302C100.304 57.0928 95.7418 55.8173 95.7418 55.8173C91.6439 54.8943 90.9871 50.1191 90.9959 46.3933L78.3955 38.2288Z" fill="#FFC3BD"/>
<path opacity="0.2" d="M90.9961 46.394L83.8334 41.7532C83.77 42.8039 83.9903 43.8532 84.4726 44.7997C85.9802 47.5061 88.4356 49.6164 91.4077 50.7576C91.1121 49.3201 90.9742 47.8578 90.9961 46.394Z" fill="black"/>
<path d="M74.9893 29.0484C77.0295 37.1881 77.7125 40.679 82.7561 44.1531C90.3304 49.4229 100.111 45.2608 100.602 36.7014C101.048 28.998 97.6419 16.9734 88.7893 15.0937C79.9366 13.214 72.9578 20.9006 74.9893 29.0484Z" fill="#FFC3BD"/>
<path d="M87.7296 32.4473C87.8522 33.1187 88.3251 33.5966 88.7804 33.5215C89.2357 33.4456 89.5072 32.8334 89.3846 32.1701C89.262 31.5075 88.7892 31.012 88.3338 31.0959C87.8785 31.1799 87.6071 31.776 87.7296 32.4473Z" fill="#263238"/>
<path d="M96.3198 31.1048C96.4424 31.7761 96.9152 32.2541 97.3705 32.1789C97.8259 32.103 98.0973 31.4908 97.9747 30.8275C97.8521 30.165 97.3793 29.6695 96.924 29.7534C96.4686 29.8373 96.2322 30.4335 96.3198 31.1048Z" fill="#263238"/>
<path d="M96.7578 29.8372L98.3515 29.0907C98.3515 29.0907 97.7298 30.4749 96.7578 29.8372Z" fill="#263238"/>
<path d="M94.2622 31.6498C95.1699 33.0727 96.2747 34.3715 97.5458 35.5099C97.2328 35.809 96.8548 36.0396 96.4389 36.1848C96.023 36.3293 95.5786 36.3855 95.1378 36.349L94.2622 31.6498Z" fill="#ED847E"/>
<path d="M91.5741 39.5378C91.9733 39.5356 92.3717 39.5021 92.765 39.4371C92.8197 39.4269 92.8679 39.3963 92.8985 39.3525C92.9299 39.3087 92.9416 39.2547 92.9314 39.2022C92.927 39.1766 92.9175 39.1526 92.9036 39.1299C92.889 39.1081 92.8701 39.0891 92.8482 39.0745C92.8263 39.0599 92.8015 39.0489 92.7752 39.0438C92.7489 39.038 92.7212 39.038 92.695 39.0431C91.8281 39.2087 90.932 39.1774 90.0797 38.9497C89.2282 38.722 88.4437 38.3054 87.7914 37.734C87.7717 37.7151 87.7483 37.6997 87.7228 37.6895C87.6973 37.6793 87.6703 37.6742 87.6425 37.6742C87.6148 37.6742 87.5878 37.6793 87.5623 37.6895C87.5367 37.6997 87.5134 37.7151 87.4937 37.734C87.4565 37.7712 87.436 37.8209 87.436 37.8719C87.436 37.9237 87.4565 37.9734 87.4937 38.0106C88.5933 39.011 90.0578 39.559 91.5741 39.5378Z" fill="#263238"/>
<path d="M74.3679 36.6344C74.6933 37.3313 75.1691 37.9537 75.7638 38.4616C76.3585 38.9687 77.0583 39.3504 77.8179 39.5802C79.753 40.0917 80.7162 38.053 80.1646 35.9887C79.6655 34.1257 78.0631 31.6163 76.1191 32.0191C74.1752 32.4219 73.4747 34.8051 74.3679 36.6344Z" fill="#FFC3BD"/>
<path d="M85.2868 28.2516C85.3401 28.2356 85.389 28.2093 85.4306 28.1743C85.4729 28.14 85.5072 28.0977 85.532 28.0502C85.7524 27.5942 86.0807 27.195 86.4915 26.8827C86.9024 26.5711 87.3832 26.3559 87.8962 26.2544C87.9502 26.2479 88.0027 26.2318 88.0502 26.2063C88.0976 26.1807 88.1392 26.1472 88.1728 26.1056C88.2071 26.0647 88.2319 26.018 88.2465 25.9677C88.2618 25.9181 88.2662 25.8655 88.2596 25.8137C88.253 25.7619 88.2362 25.7116 88.21 25.6663C88.183 25.6203 88.1479 25.5802 88.1049 25.5481C88.0626 25.516 88.0137 25.4919 87.9612 25.4773C87.9086 25.4635 87.8539 25.4591 87.7999 25.4656C87.1483 25.5773 86.5346 25.8378 86.0107 26.2245C85.486 26.612 85.0664 27.114 84.7877 27.689C84.7388 27.7839 84.7308 27.8933 84.7651 27.9933C84.7994 28.094 84.8738 28.1779 84.9716 28.2261C85.0694 28.2721 85.1825 28.2808 85.2868 28.2516Z" fill="#263238"/>
<path d="M99.5333 26.0779C99.6399 26.0611 99.7369 26.0078 99.8048 25.9268C99.8719 25.8422 99.9011 25.7357 99.8865 25.6298C99.8712 25.5248 99.8136 25.4292 99.726 25.3642C99.2072 24.9695 98.5971 24.698 97.9463 24.574C97.2961 24.4499 96.6248 24.4769 95.987 24.6513C95.9301 24.6645 95.8768 24.6893 95.8301 24.7243C95.7834 24.7586 95.7455 24.8016 95.7178 24.8513C95.6893 24.9009 95.6733 24.9556 95.6682 25.0118C95.6638 25.068 95.6718 25.1242 95.6915 25.1774C95.7112 25.2307 95.7426 25.2789 95.7827 25.3197C95.8228 25.3606 95.8717 25.3927 95.9265 25.4146C95.9805 25.4358 96.0388 25.4467 96.0979 25.4452C96.1563 25.4438 96.214 25.4306 96.2672 25.4066C96.7729 25.2738 97.3049 25.2592 97.8178 25.3628C98.3308 25.4664 98.811 25.6853 99.2181 26.0027C99.2626 26.0341 99.3137 26.0575 99.3677 26.0706C99.4217 26.0837 99.4779 26.0859 99.5333 26.0779Z" fill="#263238"/>
<path d="M88.1323 31.1631L89.7347 30.4159C89.7347 30.4159 89.1043 31.8176 88.1323 31.1631Z" fill="#263238"/>
<path d="M99.3934 118.888C99.3934 118.888 104.271 104.085 92.2044 100.427C84.8316 98.2112 82.2222 101.031 82.2222 101.031L83.9734 115.128C88.912 120.676 97.6246 123.402 103.92 124.359C108.5 125.098 99.3934 118.888 99.3934 118.888Z" fill="#E0E0E0"/>
<path d="M86.1362 79.8258C85.6897 85.154 97.143 87.5707 100.856 86.8826C100.856 86.8826 104.831 91.2382 107.624 89.719C108.841 89.0644 105.505 86.9921 103.99 84.8271C102.476 82.6621 96.5738 81.6967 95.3216 79.0282C93.115 74.3122 86.6879 73.6409 86.1362 79.8258Z" fill="white"/>
<path d="M77.6951 80.8911C72.8003 95.3245 69.5517 110.362 74.9981 116.094C80.4446 121.825 86.8104 127.179 93.5265 128.018C98.3863 128.614 88.6405 120.465 88.6405 120.465C88.6405 120.465 107.029 113.023 93.0625 102.651C96.5125 97.8755 93.8505 85.2547 94.91 80.2621C95.9696 75.2688 82.2396 67.4479 77.6951 80.8911Z" fill="white"/>
<path d="M90.7947 63.0932C90.4094 61.7841 94.2972 61.4149 96.5651 59.0149C97.9311 61.2806 94.5687 66.29 94.5687 66.29C94.5687 66.29 91.4864 65.4596 90.7947 63.0932Z" fill="#263238"/>
<path d="M81.3111 75.2017C81.1973 72.6171 78.8068 69.8895 80.5056 65.7945C81.2944 63.9644 82.6895 62.4342 84.4766 61.4389C86.2629 60.4443 88.3418 60.0408 90.3915 60.2896C92.3492 60.5348 94.156 61.4294 95.4964 62.8188C96.8369 64.2074 97.6271 66.0032 97.7293 67.8923C98.027 71.5175 92.7557 74.9667 93.4474 78.4321C94.1392 81.8981 81.3111 75.2017 81.3111 75.2017Z" fill="white"/>
<path d="M91.5652 60.5333C90.4006 61.7249 94.3322 63.7221 96.2674 63.7556C95.1582 62.1722 93.4872 61.0273 91.5652 60.5333Z" fill="#E0E0E0"/>
<path d="M75.427 149.626H75.3044C72.9927 149.584 71.0138 148.157 69.858 145.724C69.7303 145.444 69.7237 145.126 69.8405 144.841C69.9572 144.556 70.1871 144.327 70.4797 144.205C70.7723 144.083 71.1036 144.077 71.4005 144.189C71.6983 144.3 71.9369 144.521 72.0646 144.801C72.8351 146.421 74.0085 147.318 75.3745 147.318C76.2092 147.263 77.0112 146.986 77.6913 146.519C78.3721 146.053 78.9033 145.414 79.2273 144.675C80.8822 141.503 79.7964 137.073 76.3202 132.818C70.0068 125.081 70.0243 119.391 71.1539 116.035C72.2134 112.846 74.5601 110.857 76.2851 110.371C76.588 110.284 76.9149 110.316 77.1929 110.46C77.4716 110.604 77.6788 110.848 77.7693 111.138C77.8598 111.429 77.8262 111.742 77.6759 112.008C77.5256 112.275 77.271 112.474 76.9681 112.561C76.0487 112.829 74.2712 114.189 73.4656 116.756C72.5111 119.618 72.59 124.493 78.2378 131.441C82.292 136.401 83.4916 141.746 81.3988 145.707C80.8859 146.83 80.054 147.792 78.9981 148.486C77.9423 149.178 76.7054 149.574 75.427 149.626Z" fill="white"/>
<path d="M75.4183 149.626C73.1329 149.626 71.0401 148.217 69.8843 145.724C69.7967 145.455 69.8157 145.163 69.9376 144.907C70.0594 144.65 70.2754 144.445 70.5447 144.331C70.8147 144.216 71.1182 144.202 71.3984 144.288C71.6786 144.375 71.9158 144.557 72.0646 144.801C73.0191 146.823 74.6478 147.721 76.399 147.209C76.7011 147.12 77.0273 147.15 77.3068 147.291C77.5855 147.433 77.7949 147.675 77.8876 147.964C77.9803 148.254 77.9496 148.567 77.8022 148.834C77.6541 149.102 77.4016 149.302 77.0995 149.391C76.5545 149.55 75.9875 149.628 75.4183 149.626Z" fill="#E0E0E0"/>
<path opacity="0.2" d="M67.2925 70.6871C68.1141 75.3046 68.6147 79.9695 68.7898 84.6505C72.6951 79.4646 77.1346 70.0413 76.8894 65.6442L67.2925 70.6871Z" fill="black"/>
<path d="M91.46 84.8774L94.9626 80.3373L101.442 87.2351C101.442 87.2351 97.1254 90.9609 92.6071 91.3301L91.9416 90.256C91.4374 89.4548 91.1317 88.5529 91.0485 87.6204C90.9646 86.6878 91.1054 85.7494 91.46 84.8774Z" fill="#FFC3BD"/>
<path d="M101.477 80.0096L103.395 82.6788C103.816 83.2611 103.98 83.9799 103.85 84.6782C103.72 85.3758 103.308 85.9967 102.703 86.4046L101.468 87.2438L94.9888 80.3452L98.0623 79.0785C98.6562 78.8319 99.321 78.7895 99.9434 78.9596C100.566 79.1296 101.108 79.5003 101.477 80.0096Z" fill="#FFC3BD"/>
<path d="M79.8579 67.0707L79.2975 68.6564L78.7108 70.3347C78.3343 71.4759 77.949 72.6259 77.6163 73.7752C76.907 76.0744 76.3203 78.3737 75.8125 80.6394C75.3455 82.7949 75.0354 84.9796 74.8843 87.1767C74.7537 88.9083 74.904 90.6494 75.3309 92.3372L73.9386 90.34C73.5278 89.9562 73.0163 89.6869 72.4588 89.5592C72.1698 89.5592 72.1523 89.5599 72.2662 89.6183C72.8448 89.7227 73.4388 89.7227 74.0174 89.6183C75.8402 89.3739 77.6389 88.9835 79.3938 88.4523C81.3115 87.9232 83.2729 87.2774 85.2518 86.6142L91.1974 84.5586L91.32 84.5163C92.1314 84.2332 93.0202 84.2295 93.8345 84.5053C94.6488 84.7812 95.3377 85.3204 95.7821 86.0297C96.2272 86.7389 96.4016 87.5744 96.2739 88.3924C96.1469 89.2111 95.7266 89.962 95.0852 90.5158C93.3741 91.9964 91.5732 93.3777 89.6913 94.6532C87.7999 95.9594 85.8327 97.1612 83.7983 98.2528C81.596 99.4575 79.269 100.439 76.8545 101.182C75.3236 101.66 73.7343 101.943 72.1261 102.021C70.9782 102.066 69.8297 101.944 68.7198 101.66C67.1101 101.25 65.6361 100.453 64.438 99.3437C63.9017 98.8439 63.4682 98.2521 63.1596 97.5983L63.0457 97.3465C61.5958 94.1483 60.8253 90.7056 60.7778 87.2183C60.7778 85.6407 60.7778 84.1135 60.8654 82.6198C60.953 81.1261 61.1719 79.674 61.3908 78.2394C61.8439 75.4265 62.4693 72.6412 63.2646 69.8983C63.6587 68.5476 64.0702 67.205 64.5431 65.8791C64.7795 65.2158 65.0159 64.5533 65.2698 63.89C65.5238 63.2274 65.7865 62.6065 66.1455 61.8176C66.8671 60.1043 68.2587 58.7296 70.0223 57.9846C71.786 57.2395 73.7839 57.1841 75.5899 57.8291C77.3959 58.4742 78.8684 59.7694 79.693 61.4389C80.5183 63.1085 80.6307 65.0203 80.0068 66.7686L79.8579 67.0707Z" fill="#FFC3BD"/>
<path d="M80.5581 78.03C77.4233 82.4439 85.0676 90.1809 88.0448 92.4043C88.0448 92.4043 87.2655 98.136 90.2952 99.1175C91.6086 99.5626 91.0307 95.7609 91.7312 93.2434C92.4317 90.726 89.6384 85.1124 89.6997 82.1922C89.7785 77.0902 84.1832 72.9024 80.5581 78.03Z" fill="#263238"/>
<path d="M84.4722 62.8327C84.8487 61.5236 80.9697 61.1544 78.7018 58.7544C77.327 61.0201 80.6895 66.0302 80.6895 66.0302C80.6895 66.0302 83.7805 65.1991 84.4722 62.8327Z" fill="#263238"/>
<path opacity="0.6" d="M84.1833 63.882C83.7455 63.882 81.9242 64.6204 79.1572 60.5254C78.5092 62.3883 81.4338 66.0886 81.4338 66.0886C81.4338 66.0886 83.7981 65.9623 84.1833 63.882Z" fill="white"/>
<path d="M91.6 62.497C92.0443 62.3094 92.5281 62.2241 93.0134 62.2474C93.4979 62.27 93.9707 62.4021 94.3932 62.6312C94.8836 62.9501 94.0517 63.6886 93.5176 63.6638C92.9835 63.6382 90.8469 62.8414 91.6 62.497Z" fill="#263238"/>
<path d="M92.274 65.426C91.4013 65.3808 90.5505 65.1458 89.7872 64.7379C89.7522 64.7197 89.7266 64.6898 89.715 64.6533C89.7033 64.6168 89.7077 64.5781 89.7259 64.5445C89.7442 64.511 89.7763 64.4862 89.8142 64.4752C89.8514 64.4643 89.8923 64.4679 89.9273 64.4862C91.8099 65.4005 92.9395 65.2246 93.3773 64.7627C93.5284 64.5737 93.6108 64.3424 93.6108 64.1038C93.6108 63.8659 93.5284 63.6346 93.3773 63.4456C93.3518 63.4179 93.3372 63.3814 93.3372 63.3442C93.3372 63.3077 93.3518 63.2712 93.3773 63.2442C93.3934 63.2333 93.4109 63.226 93.4299 63.2223C93.4488 63.2187 93.4685 63.2187 93.4875 63.2223C93.5065 63.2267 93.5247 63.234 93.54 63.245C93.5561 63.2559 93.5692 63.2698 93.5787 63.2858C93.7779 63.5237 93.8859 63.82 93.8859 64.125C93.8859 64.43 93.7779 64.7262 93.5787 64.9641C93.4072 65.1247 93.2029 65.2494 92.9782 65.329C92.7527 65.4085 92.5134 65.4413 92.274 65.426Z" fill="#263238"/>
<path d="M95.628 65.5266C94.8881 65.3756 94.1978 65.056 93.614 64.5948C93.5826 64.5715 93.5622 64.5372 93.5571 64.4992C93.5527 64.4613 93.5637 64.4233 93.5877 64.3934C93.6118 64.3635 93.6483 64.3438 93.6877 64.3394C93.7271 64.3343 93.7665 64.3445 93.7979 64.3679C94.4371 64.8218 95.4704 65.3836 95.7768 65.2078C95.8994 65.1406 95.8907 64.9137 95.8556 64.7378C95.852 64.7189 95.852 64.7006 95.8564 64.6824C95.8607 64.6641 95.8688 64.6466 95.8805 64.632C95.8921 64.6167 95.9067 64.6043 95.9235 64.5948C95.9403 64.5861 95.9593 64.5802 95.9782 64.578C95.9972 64.5729 96.0176 64.5722 96.0373 64.5758C96.057 64.5788 96.0753 64.5868 96.0913 64.5977C96.1074 64.6094 96.1205 64.624 96.13 64.6408C96.1388 64.6576 96.1439 64.6765 96.1446 64.6955C96.2147 65.0757 96.1446 65.3274 95.9345 65.4508C95.8411 65.5018 95.7352 65.5281 95.628 65.5266Z" fill="#263238"/>
<path d="M89.0256 61.0792C88.4039 60.6005 86.8803 61.0201 86.8278 61.7001C86.7752 62.3795 90.1377 61.9263 89.0256 61.0792Z" fill="#263238"/>
<path d="M93.43 61.3221C94.0429 61.0791 95.1812 61.7672 95.0499 62.321C94.9185 62.8749 92.3267 61.7249 93.43 61.3221Z" fill="#263238"/>
<path d="M91.8447 63.6047C91.8527 63.6215 91.8549 63.6404 91.8527 63.6594C91.8505 63.6776 91.8432 63.6951 91.8323 63.7105C91.8206 63.7258 91.8053 63.7382 91.7878 63.7455C91.7703 63.7535 91.7506 63.7572 91.7309 63.7557C91.6827 63.7521 91.636 63.7367 91.5959 63.7097C91.5557 63.6835 91.5244 63.647 91.5039 63.6047C91.4937 63.5879 91.4886 63.5696 91.4893 63.5507C91.4901 63.5317 91.4959 63.5135 91.5068 63.4974C91.5178 63.4813 91.5331 63.4689 91.5514 63.4616C91.5696 63.4536 91.5893 63.4507 91.609 63.4536C91.6586 63.4551 91.7075 63.4704 91.7491 63.4974C91.7907 63.5237 91.8235 63.5609 91.8447 63.6047Z" fill="#263238"/>
<path d="M90.6889 63.2098C90.697 63.2273 90.6991 63.2463 90.697 63.2645C90.6948 63.2835 90.6882 63.301 90.6765 63.3163C90.6648 63.3317 90.6495 63.3433 90.632 63.3514C90.6145 63.3594 90.5948 63.3623 90.5751 63.3609C90.5284 63.3579 90.4824 63.3426 90.4423 63.3178C90.4029 63.293 90.3701 63.2587 90.3482 63.2186C90.3379 63.2025 90.3328 63.1835 90.3336 63.1646C90.3343 63.1456 90.3401 63.1273 90.3511 63.1113C90.362 63.0952 90.3774 63.0828 90.3956 63.0755C90.4138 63.0675 90.4335 63.0646 90.4532 63.0675C90.5021 63.0697 90.5496 63.0836 90.5911 63.1084C90.632 63.1339 90.6663 63.1689 90.6889 63.2098Z" fill="#263238"/>
<path d="M91.1528 64.0242C91.163 64.0403 91.1681 64.0592 91.1674 64.0782C91.1674 64.0972 91.1608 64.1154 91.1499 64.1315C91.139 64.1468 91.1236 64.1592 91.1054 64.1672C91.0879 64.1753 91.0674 64.1775 91.0477 64.1753C90.9996 64.1724 90.9522 64.157 90.912 64.1308C90.8719 64.1038 90.8405 64.0673 90.8208 64.0242C90.8106 64.0082 90.8055 63.9892 90.8062 63.9702C90.807 63.9513 90.8128 63.933 90.8237 63.917C90.8347 63.9009 90.85 63.8885 90.8682 63.8812C90.8865 63.8732 90.9062 63.8703 90.9259 63.8732C90.9748 63.8754 91.0215 63.8907 91.0616 63.9177C91.1017 63.9439 91.1338 63.9812 91.1528 64.0242Z" fill="#263238"/>
<path d="M95.6186 63.5711C95.6274 63.5879 95.6303 63.6061 95.6288 63.6251C95.6266 63.6433 95.6193 63.6609 95.6077 63.6754C95.596 63.6908 95.5799 63.7017 95.5617 63.7083C95.5442 63.7149 95.5245 63.717 95.5048 63.7134C95.4581 63.7105 95.4121 63.6951 95.372 63.6703C95.3326 63.6455 95.2997 63.6112 95.2778 63.5711C95.2676 63.5543 95.2625 63.5361 95.2633 63.5171C95.264 63.4981 95.2698 63.4799 95.2808 63.4638C95.2917 63.4478 95.307 63.4354 95.3253 63.4281C95.3435 63.4201 95.3632 63.4171 95.3829 63.4201C95.4325 63.4215 95.4814 63.4368 95.523 63.4638C95.5646 63.4901 95.5975 63.5273 95.6186 63.5711Z" fill="#263238"/>
<path d="M94.9267 63.9907C94.9267 64.0658 94.9267 64.133 94.8217 64.133C94.7742 64.1315 94.7275 64.1176 94.6874 64.0921C94.6473 64.0673 94.6152 64.0322 94.5947 63.9907C94.5845 63.9739 94.5794 63.9556 94.5801 63.9367C94.5809 63.9177 94.5867 63.8994 94.5977 63.8834C94.6086 63.8673 94.6239 63.8549 94.6422 63.8476C94.6604 63.8396 94.6801 63.8367 94.6998 63.8396C94.748 63.8433 94.7947 63.8586 94.8348 63.8848C94.8749 63.9118 94.9063 63.9483 94.9267 63.9907Z" fill="#263238"/>
<path d="M98.4126 58.2508C99.7136 58.2508 100.768 57.2402 100.768 55.9939C100.768 54.7468 99.7136 53.7362 98.4126 53.7362C97.1115 53.7362 96.0571 54.7468 96.0571 55.9939C96.0571 57.2402 97.1115 58.2508 98.4126 58.2508Z" fill="#263238"/>
<path d="M98.4125 58.7127C97.8514 58.7127 97.3027 58.5529 96.8364 58.2545C96.3701 57.9553 96.006 57.5306 95.7915 57.0337C95.5769 56.5375 95.5207 55.9902 95.6302 55.4634C95.7396 54.9358 96.0096 54.4513 96.4066 54.0711C96.8035 53.691 97.3085 53.4319 97.8594 53.3269C98.4096 53.2218 98.9795 53.2758 99.4983 53.4816C100.016 53.6873 100.46 54.0361 100.772 54.4827C101.083 54.93 101.25 55.4561 101.25 55.9939C101.247 56.7141 100.947 57.4044 100.416 57.9137C99.8843 58.423 99.1641 58.7098 98.4125 58.7127ZM98.4125 54.2061C98.0433 54.2061 97.6828 54.3112 97.3764 54.5075C97.0699 54.7038 96.8305 54.9833 96.6897 55.3094C96.5481 55.6363 96.5117 55.9954 96.5832 56.342C96.6554 56.6893 96.8327 57.0074 97.094 57.2577C97.3545 57.5073 97.6872 57.6773 98.0484 57.7466C98.4103 57.8152 98.7854 57.7802 99.1262 57.6452C99.4669 57.5095 99.7581 57.2803 99.9631 56.9863C100.168 56.6929 100.278 56.3471 100.278 55.9939C100.281 55.756 100.235 55.5211 100.143 55.3007C100.051 55.0803 99.915 54.8796 99.7413 54.7104C99.5676 54.5411 99.3611 54.4061 99.1327 54.3141C98.9051 54.2215 98.6599 54.1733 98.4125 54.1726V54.2061Z" fill="white"/>
<path d="M79.2009 34.8721C83.8068 29.9715 80.9522 25.2642 80.9522 25.2642C80.9522 25.2642 96.5735 24.4251 98.3773 21.5632C96.5648 15.6892 90.0851 10.998 79.1747 15.085C68.2643 19.172 73.1766 34.5029 73.1766 34.5029L79.2009 34.8721Z" fill="#263238"/>
<path d="M244.985 273.543L241.92 266.578C241.815 266.448 241.763 266.286 241.774 266.122C241.786 265.959 241.86 265.804 241.982 265.689L247.34 260.822C247.816 260.504 248.353 260.28 248.92 260.163C249.487 260.045 250.073 260.037 250.643 260.139C251.214 260.24 251.757 260.45 252.243 260.754C252.728 261.058 253.145 261.452 253.47 261.913C254.976 264.044 255.747 266.285 258.242 268.265C262.209 271.429 260.869 270.162 266.701 271.672C270.203 272.579 269.906 276.178 268.303 276.103C261.018 275.742 254.433 275.557 247.122 274.425C246.341 274.315 245.605 274.011 244.985 273.543Z" fill="#263238"/>
<path d="M229.609 258.8C238.54 256.098 276.779 254.805 272.06 227.751L237.595 225.485C237.595 225.485 189.873 242.268 184.593 263.18C177.824 289.982 245.125 275.901 245.125 275.901C248.514 275.146 250.983 270.925 250.519 266.083C250.519 266.067 247.341 258.64 229.609 258.8Z" fill="#ABDCD6"/>
<path opacity="0.2" d="M229.609 258.8C238.54 256.098 276.779 254.805 272.06 227.751L237.595 225.485C237.595 225.485 189.873 242.268 184.593 263.18C177.824 289.982 245.125 275.901 245.125 275.901C248.514 275.146 250.983 270.925 250.519 266.083C250.519 266.067 247.341 258.64 229.609 258.8Z" fill="black"/>
<path d="M282.27 274.475L278.925 267.628C278.809 267.505 278.746 267.347 278.746 267.182C278.746 267.018 278.809 266.86 278.925 266.738L284.082 261.703C284.544 261.365 285.071 261.117 285.633 260.976C286.195 260.835 286.781 260.803 287.357 260.881C287.932 260.959 288.486 261.146 288.985 261.431C289.484 261.716 289.919 262.094 290.264 262.542C291.858 264.623 292.725 266.83 295.29 268.718C299.388 271.739 297.978 270.522 303.88 271.806C307.453 272.587 307.26 276.204 305.631 276.178C298.337 276.086 291.744 276.178 284.397 275.247C283.63 275.169 282.898 274.903 282.27 274.475Z" fill="#263238"/>
<path d="M269.144 260.243C277.952 257.222 298.276 251.65 287.077 223.966L250.361 227.591C250.361 227.591 218.138 244.928 213.69 266.033C207.998 293.071 282.497 276.816 282.497 276.816C285.851 275.935 288.154 271.63 287.497 266.805C287.497 266.805 286.849 259.437 269.144 260.243Z" fill="#ABDCD6"/>
<path d="M240.256 172.568C238.911 175.401 237.225 178.074 235.23 180.532C233.394 182.81 231.399 184.966 229.259 186.984C227.227 188.948 225.169 190.744 223.208 192.464C221.246 194.184 219.39 195.821 217.796 197.407L217.219 197.986C216.568 198.638 215.758 199.125 214.863 199.404C211.571 200.398 208.148 200.944 204.697 201.024C201.596 201.121 198.491 201.008 195.406 200.688C192.394 200.369 189.443 199.916 186.536 199.329C183.615 198.746 180.73 198.009 177.894 197.121C177.012 196.835 176.264 196.258 175.783 195.494C175.302 194.73 175.118 193.828 175.263 192.947C175.409 192.065 175.875 191.261 176.579 190.677C177.283 190.093 178.18 189.766 179.111 189.754H179.286C181.966 189.754 184.794 189.754 187.526 189.687C190.258 189.619 192.99 189.527 195.652 189.317C198.238 189.154 200.813 188.857 203.366 188.428C205.579 188.088 207.741 187.491 209.802 186.649L206.877 188.646C208.76 186.28 210.686 184.207 212.56 182.26C214.434 180.314 216.238 178.475 217.928 176.68C219.618 174.884 221.168 173.114 222.525 171.351C223.832 169.689 225.003 167.934 226.027 166.098L226.097 165.981C227.009 164.178 228.63 162.797 230.605 162.139C232.58 161.482 234.746 161.604 236.627 162.478C238.508 163.351 239.95 164.905 240.636 166.797C241.321 168.69 241.194 170.766 240.283 172.568H240.256Z" fill="#FFB573"/>
<path d="M241.894 164.597C239.854 158.471 233.453 150.18 218.444 172.871C221.947 181.195 235.729 189.343 235.729 189.343C235.729 189.343 246.745 179.156 241.894 164.597Z" fill="#263238"/>
<path d="M183.183 192.272L177.491 185.559L171.309 194.101C171.309 194.101 177.237 199.597 180.792 197.055L183.183 192.272Z" fill="#FFB573"/>
<path d="M168.122 184.526L166.484 187.883C166.17 188.527 166.105 189.258 166.299 189.944C166.492 190.63 166.934 191.229 167.544 191.634L171.274 194.093L177.456 185.55L172.351 183.125C171.978 182.947 171.572 182.842 171.156 182.817C170.74 182.79 170.323 182.844 169.929 182.975C169.536 183.105 169.173 183.31 168.862 183.576C168.552 183.842 168.3 184.166 168.122 184.526Z" fill="#FFB573"/>
<path d="M235.056 157.329C247.612 154.409 253.015 154.065 262.2 153.822C264.782 153.742 267.353 154.166 269.758 155.068C272.164 155.969 274.353 157.33 276.192 159.068C278.032 160.806 279.483 162.883 280.459 165.175C281.434 167.467 281.914 169.926 281.867 172.401C281.587 200.865 286.595 217.395 287.121 223.966C267.507 236.268 239.048 236.134 233.795 231.09C222.805 209.566 223.865 183.301 223.856 172.275C223.856 166.308 228.541 158.839 235.056 157.329Z" fill="#263238"/>
<path d="M255.493 137.593C255.291 147.217 257.831 149.911 259.871 155.693C258.995 159.452 249.057 164.034 240.957 166.057C235.852 163.539 235.625 159.344 237.096 158.311C242.244 155.282 243.803 154.762 241.474 149.525L255.493 137.593Z" fill="#FFB573"/>
<path opacity="0.2" d="M249.626 143.962L246.351 145.388L241.465 149.542C241.839 150.338 242.133 151.167 242.34 152.018C245.046 151.464 247.936 149.828 248.768 147.687C249.292 146.507 249.583 145.244 249.626 143.962Z" fill="black"/>
<path d="M230.239 116.924C222.7 119.769 223.865 128.631 230.528 135.386C236.308 126.835 230.239 116.924 230.239 116.924Z" fill="#263238"/>
<path d="M256.184 125.241C256.465 134.79 257.13 140.345 252.568 145.632C245.712 153.554 233.033 150.155 229.802 140.849C226.868 132.457 226.903 118.267 236.272 113.727C238.348 112.728 240.653 112.251 242.973 112.337C245.294 112.423 247.554 113.071 249.541 114.221C251.53 115.371 253.182 116.984 254.343 118.911C255.505 120.838 256.138 123.016 256.184 125.241Z" fill="#FFB573"/>
<path d="M255.834 136.09C250.484 136.577 248.514 128.152 249.626 125.123C250.738 122.093 251.71 119.19 247.069 120.533C242.428 121.875 233.523 126.625 228.803 123.822C223.838 120.868 220.669 112.275 227.052 108.717C233.435 105.159 237.428 109.019 237.428 109.019C237.428 109.019 243.558 101.551 254.801 104.681C261.622 106.586 258.986 111.26 258.986 111.26C258.986 111.26 267.681 113.551 264.669 122.522C262.086 130.166 258.172 130.275 255.834 136.09Z" fill="#263238"/>
<path d="M261.018 133.942C260.752 135.102 260.249 136.199 259.538 137.171C258.827 138.144 257.922 138.971 256.876 139.607C254.048 141.284 251.684 139.087 251.675 136.074C251.675 133.372 253.111 129.226 256.324 128.765C259.538 128.303 261.648 131.072 261.018 133.942Z" fill="#FFB573"/>
<path d="M242.192 132.348C242.323 133.112 242.008 133.799 241.482 133.875C240.957 133.95 240.423 133.396 240.291 132.633C240.16 131.87 240.484 131.182 241.001 131.098C241.517 131.014 242.06 131.585 242.192 132.348Z" fill="#263238"/>
<path d="M231.737 133.531C231.868 134.303 231.553 134.983 231.027 135.067C230.502 135.151 229.968 134.589 229.836 133.817C229.705 133.045 230.02 132.365 230.546 132.289C231.071 132.214 231.605 132.767 231.737 133.531Z" fill="#263238"/>
<path d="M235.047 132.273C235.047 132.273 233.987 136.972 232.35 139.405C233.987 140.454 236.299 139.523 236.299 139.523L235.047 132.273Z" fill="#ED893E"/>
<path d="M240.134 141.486C241.01 141.255 241.827 140.852 242.532 140.304C243.237 139.755 243.816 139.072 244.232 138.298C244.257 138.242 244.259 138.179 244.235 138.122C244.213 138.066 244.168 138.02 244.109 137.996C244.051 137.971 243.985 137.969 243.926 137.991C243.867 138.013 243.82 138.057 243.794 138.113C243.314 138.961 242.631 139.688 241.802 140.235C240.972 140.782 240.02 141.133 239.022 141.26C238.991 141.263 238.961 141.273 238.934 141.289C238.908 141.305 238.885 141.325 238.866 141.349C238.848 141.374 238.836 141.402 238.829 141.431C238.823 141.46 238.823 141.49 238.829 141.519C238.834 141.549 238.844 141.578 238.86 141.604C238.876 141.63 238.897 141.653 238.923 141.671C238.948 141.689 238.977 141.702 239.007 141.709C239.038 141.716 239.069 141.718 239.101 141.713C239.449 141.658 239.795 141.582 240.134 141.486Z" fill="#263238"/>
<path d="M244.25 128.068C244.328 128.046 244.401 128.005 244.46 127.951C244.504 127.908 244.54 127.858 244.564 127.803C244.589 127.747 244.601 127.688 244.601 127.627C244.601 127.568 244.589 127.508 244.564 127.452C244.54 127.397 244.504 127.347 244.46 127.304C243.925 126.787 243.267 126.4 242.544 126.177C241.82 125.953 241.051 125.9 240.3 126.021C240.239 126.034 240.182 126.058 240.131 126.092C240.08 126.127 240.037 126.171 240.004 126.222C239.971 126.273 239.95 126.33 239.941 126.389C239.931 126.448 239.935 126.508 239.95 126.566C239.979 126.683 240.055 126.785 240.162 126.849C240.268 126.914 240.396 126.936 240.519 126.91C241.114 126.823 241.722 126.873 242.293 127.055C242.864 127.238 243.381 127.548 243.803 127.959C243.862 128.011 243.934 128.049 244.012 128.068C244.09 128.087 244.172 128.087 244.25 128.068Z" fill="#263238"/>
<path d="M227.569 129.612C227.646 129.605 227.721 129.579 227.785 129.536C227.849 129.493 227.901 129.436 227.936 129.369C228.2 128.856 228.586 128.411 229.064 128.07C229.542 127.728 230.098 127.5 230.686 127.406C230.748 127.4 230.808 127.383 230.864 127.355C230.919 127.328 230.968 127.29 231.008 127.244C231.048 127.198 231.078 127.144 231.096 127.087C231.115 127.03 231.121 126.97 231.115 126.91C231.102 126.789 231.039 126.678 230.94 126.601C230.842 126.524 230.716 126.487 230.589 126.499C229.844 126.606 229.136 126.884 228.526 127.309C227.916 127.734 227.423 128.294 227.087 128.941C227.028 129.049 227.016 129.175 227.054 129.291C227.092 129.407 227.176 129.505 227.288 129.562C227.374 129.605 227.472 129.622 227.569 129.612Z" fill="#263238"/>
<path d="M278.198 165.226C278.64 167.389 278.831 169.593 278.767 171.797C278.708 173.765 278.512 175.727 278.18 177.671C277.547 181.336 276.58 184.941 275.291 188.445C274.055 191.881 272.562 195.226 270.825 198.456C269.949 200.084 269.021 201.704 267.944 203.306C266.819 205.013 265.566 206.639 264.196 208.173L263.934 208.459C263.738 208.672 263.524 208.868 263.294 209.046C261.205 210.609 258.807 211.751 256.245 212.403C254.173 212.929 252.053 213.267 249.915 213.41C246.099 213.641 242.27 213.517 238.479 213.04C231.313 212.155 224.268 210.535 217.464 208.207C216.566 207.897 215.817 207.287 215.354 206.487C214.892 205.688 214.749 204.755 214.951 203.862C215.154 202.968 215.688 202.176 216.454 201.632C217.221 201.089 218.168 200.83 219.119 200.906H219.259C222.516 201.158 225.931 201.41 229.241 201.544C232.551 201.678 235.869 201.762 239.092 201.67C242.173 201.629 245.244 201.348 248.277 200.831C249.561 200.61 250.819 200.27 252.034 199.815C252.798 199.559 253.496 199.149 254.083 198.616L253.207 199.455C253.973 198.378 254.669 197.257 255.291 196.098C255.956 194.84 256.639 193.522 257.244 192.162C258.472 189.426 259.536 186.624 260.431 183.771C261.32 180.991 261.999 178.153 262.462 175.279C262.902 172.874 262.987 170.423 262.716 167.995V167.743C262.538 166.765 262.562 165.764 262.788 164.796C263.014 163.828 263.437 162.911 264.031 162.099C264.627 161.287 265.383 160.595 266.257 160.064C267.131 159.532 268.106 159.17 269.126 158.999C270.146 158.828 271.191 158.852 272.202 159.068C273.212 159.284 274.168 159.689 275.015 160.259C275.863 160.83 276.584 161.555 277.14 162.392C277.695 163.23 278.072 164.164 278.25 165.142L278.198 165.226Z" fill="#FFB573"/>
<path d="M153.236 277.748C136.879 278.771 122.843 267.786 124.778 248.73C133.727 265.412 147.536 275.926 153.236 277.748Z" fill="#263238"/>
<path opacity="0.1" d="M153.236 277.748C137.124 274.852 126.363 260.872 133.166 242.873C137.527 261.157 148.184 274.626 153.236 277.748Z" fill="#263238"/>
<path opacity="0.1" d="M153.236 277.747C137.755 282.933 121.162 275.951 117.703 257.104C130.987 270.883 147.238 277.462 153.236 277.747Z" fill="#263238"/>
<path d="M199.697 207.493C199.697 207.493 207.753 246.766 200.801 275.464C205.398 275.464 206.054 280.097 203.305 282.715H147.168C146.159 282.715 145.162 282.519 144.235 282.139C143.307 281.759 142.47 281.202 141.774 280.504C141.077 279.805 140.536 278.978 140.183 278.073C139.829 277.168 139.67 276.204 139.716 275.238C140.224 264.27 144.909 249.031 158.306 243.09C161.695 233.13 169.54 212.931 166.073 201.284C162.605 189.636 178.542 178.602 190.888 186.758C198.944 184.023 213.296 173.592 217.411 185.399C221.527 197.205 199.697 207.493 199.697 207.493Z" fill="#263238"/>
<path d="M206.545 203.541C212.56 201.51 222.437 200.655 216.579 191.936C206.413 192.699 206.545 203.541 206.545 203.541Z" fill="#263238"/>
<path opacity="0.2" d="M178.779 279.443H178.665C178.565 279.414 178.482 279.348 178.432 279.26C178.383 279.171 178.372 279.068 178.402 278.973C178.538 278.413 178.53 277.829 178.377 277.274C178.225 276.718 177.933 276.207 177.526 275.784C175.775 273.677 172.15 272.377 168.77 272.629C168.704 272.633 168.639 272.622 168.579 272.596C168.519 272.569 168.467 272.528 168.429 272.478C168.39 272.426 168.365 272.366 168.356 272.303C168.347 272.241 168.354 272.176 168.376 272.117C174.164 257.104 164.558 247.856 164.462 247.781C164.395 247.71 164.36 247.616 164.362 247.521C164.365 247.425 164.405 247.333 164.475 247.265C164.546 247.197 164.64 247.157 164.74 247.153C164.84 247.149 164.938 247.181 165.014 247.244C165.119 247.336 174.856 256.684 169.313 271.857C172.815 271.773 176.318 273.124 178.157 275.322C178.652 275.835 179.006 276.458 179.186 277.135C179.367 277.812 179.368 278.522 179.19 279.199C179.161 279.279 179.104 279.346 179.029 279.39C178.954 279.435 178.866 279.453 178.779 279.443Z" fill="white"/>
<path d="M211.151 180.406C207.184 179.911 203.997 182.781 207.499 184.325C211.002 185.869 208.042 182.697 209.811 183.813C211.58 184.929 213.567 185.374 213.953 184.325C214.338 183.276 213.585 182.999 213.173 182.361C212.762 181.723 215.135 182.889 214.645 182.143C213.748 181.165 212.501 180.545 211.151 180.406Z" fill="white"/>
<path d="M212.333 190.761C216.43 193.698 214.959 197.701 218.935 196.635C220.852 196.106 221.255 190.845 217.823 188.244C216.632 188.999 215.152 187.136 215.152 187.136C215.152 187.136 214.443 189.922 212.333 190.761Z" fill="#ED847E"/>
<path d="M207.526 192.313C207.079 192.313 206.79 192.313 206.746 192.313C206.695 192.308 206.644 192.293 206.598 192.269C206.553 192.246 206.512 192.213 206.48 192.174C206.447 192.135 206.423 192.09 206.408 192.042C206.395 191.994 206.39 191.943 206.396 191.894C206.409 191.796 206.461 191.706 206.541 191.644C206.621 191.582 206.722 191.551 206.825 191.558C206.878 191.558 211.86 192.02 214.163 188.596C214.334 188.364 214.453 188.099 214.512 187.821C214.571 187.542 214.568 187.254 214.504 186.976C214.116 185.999 213.394 185.177 212.455 184.644C212.367 184.593 212.302 184.511 212.276 184.415C212.25 184.32 212.264 184.217 212.315 184.132C212.342 184.088 212.377 184.051 212.418 184.02C212.46 183.99 212.507 183.969 212.558 183.956C212.608 183.943 212.661 183.941 212.712 183.947C212.764 183.955 212.814 183.972 212.858 183.998C213.981 184.63 214.835 185.623 215.266 186.801C215.357 187.177 215.364 187.568 215.289 187.948C215.214 188.328 215.057 188.688 214.828 189.007C212.823 191.961 209.146 192.313 207.526 192.313Z" fill="white"/>
<path d="M217.157 188.806C215.844 188.806 214.627 187.127 214.53 186.934C214.494 186.894 214.466 186.847 214.45 186.795C214.434 186.744 214.429 186.69 214.436 186.637C214.444 186.585 214.463 186.533 214.492 186.488C214.521 186.442 214.56 186.403 214.606 186.373C214.653 186.343 214.706 186.323 214.76 186.314C214.815 186.305 214.872 186.307 214.926 186.32C214.98 186.334 215.03 186.358 215.074 186.392C215.118 186.425 215.153 186.467 215.178 186.515C215.467 186.909 216.439 188.042 217.184 188.042C217.28 188.042 217.595 188.042 217.919 187.48C217.972 187.393 218.058 187.33 218.159 187.304C218.259 187.278 218.367 187.292 218.458 187.341C218.548 187.392 218.615 187.474 218.642 187.571C218.669 187.667 218.655 187.771 218.602 187.857C218.481 188.121 218.287 188.347 218.042 188.512C217.797 188.678 217.509 188.777 217.21 188.797L217.157 188.806Z" fill="white"/>
<path d="M185.135 186.909C181.764 184.039 175.67 187.228 176.379 191.625C177.088 196.022 191.125 192.003 185.135 186.909Z" fill="white"/>
<path d="M184.067 187.422C183.393 186.439 181.738 187.295 181.686 188.697C181.633 190.098 185.267 189.158 184.067 187.422Z" fill="#263238"/>
<path d="M187.333 185.869C187.062 187.01 188.848 187.547 189.96 186.65C191.072 185.751 187.824 183.838 187.333 185.869Z" fill="#263238"/>
<path d="M171.423 191.457C170.451 183.544 156.353 199.656 157.317 209.818C158.28 219.981 167.57 218.898 170.197 218.134C172.824 217.37 172.308 198.506 171.423 191.457Z" fill="#263238"/>
<path opacity="0.8" d="M171.423 191.457C170.451 183.544 156.353 199.656 157.317 209.818C158.28 219.981 167.57 218.898 170.197 218.134C172.824 217.37 172.308 198.506 171.423 191.457Z" fill="white"/>
<path d="M197.132 282.732H183.349C182.053 279.619 175.171 262.643 176.002 255.266C175.191 255.958 174.556 256.82 174.146 257.784C173.937 256.842 173.99 255.864 174.297 254.947C174.604 254.03 175.156 253.206 175.897 252.556C175.232 252.162 173.84 252.85 173.84 252.85C173.978 252.251 174.24 251.685 174.612 251.186C174.983 250.688 175.457 250.266 176.002 249.946C175.642 249.584 175.347 249.167 175.127 248.713C171.029 241.278 173.665 232.148 180.81 227.256C185.144 224.277 190.188 224.394 191.317 233.373C192.447 242.352 187.473 267.3 192.438 278.494C195.669 278.041 196.816 281.44 197.132 282.732Z" fill="white"/>
<path opacity="0.2" d="M186.791 210.17C182.981 210.17 179.19 209.08 177.526 207.058C177.463 206.978 177.434 206.878 177.447 206.779C177.461 206.68 177.514 206.59 177.596 206.529C177.679 206.469 177.782 206.442 177.885 206.453C177.987 206.464 178.082 206.512 178.148 206.588C180.775 209.809 189.733 210.413 194.085 207.662C194.128 207.634 194.176 207.615 194.227 207.605C194.278 207.595 194.33 207.595 194.381 207.606C194.432 207.615 194.48 207.634 194.523 207.662C194.566 207.69 194.603 207.725 194.632 207.766C194.66 207.808 194.681 207.854 194.691 207.903C194.7 207.951 194.7 208.002 194.69 208.05C194.68 208.099 194.66 208.146 194.631 208.186C194.603 208.228 194.565 208.263 194.522 208.291C192.18 209.601 189.501 210.252 186.791 210.17Z" fill="white"/>
<path d="M221.457 201.125L212.779 198.674V209.063C212.779 209.063 220.914 210.372 222.341 206.344L221.457 201.125Z" fill="#FFB573"/>
<path d="M204.496 202.912L205.126 206.553C205.245 207.257 205.621 207.897 206.188 208.358C206.754 208.82 207.474 209.072 208.217 209.071H212.779V198.682L207.14 199.455C206.728 199.513 206.333 199.649 205.977 199.855C205.62 200.061 205.31 200.332 205.064 200.654C204.818 200.976 204.642 201.341 204.544 201.728C204.446 202.116 204.43 202.518 204.496 202.912Z" fill="#FFB573"/>
<path d="M275.054 159.008C269.643 155.215 259.853 158.269 258.111 179.911C266.289 184.274 280.431 179.911 280.431 179.911C280.431 179.911 284.669 165.721 275.054 159.008Z" fill="#263238"/>
</g>
<defs>
<clipPath id="clip0_67_3">
<rect width="345" height="288.77" fill="white"/>
</clipPath>
</defs>
</svg>
