<svg width="400" height="400" viewBox="0 0 400 400" fill="none" xmlns="http://www.w3.org/2000/svg">
<path d="M109.72 287.896C151.309 287.896 185.024 268.429 185.024 244.416C185.024 220.403 151.309 200.936 109.72 200.936C68.1308 200.936 34.416 220.403 34.416 244.416C34.416 268.429 68.1308 287.896 109.72 287.896Z" fill="#E0E0E0"/>
<path d="M285.912 297.2C332.322 297.2 369.944 275.48 369.944 248.688C369.944 221.896 332.322 200.176 285.912 200.176C239.502 200.176 201.88 221.896 201.88 248.688C201.88 275.48 239.502 297.2 285.912 297.2Z" fill="#E0E0E0"/>
<path d="M184.48 265.36L112.944 306.664C111.184 307.68 111.184 309.328 112.944 310.344L184.48 351.64C185.47 352.149 186.567 352.414 187.68 352.414C188.793 352.414 189.89 352.149 190.88 351.64L262.4 310.344C264.16 309.328 264.16 307.68 262.4 306.664L190.856 265.36C189.868 264.859 188.776 264.598 187.668 264.598C186.56 264.598 185.468 264.859 184.48 265.36Z" fill="#E0E0E0"/>
<path d="M334.28 212.248C337.792 222.736 340.808 236.248 345.56 256.68C350.008 275.8 350.032 289.304 343.856 293.936C337.84 298.44 319.936 295.744 308.72 271.856C305.208 264.392 291.024 240.024 291.024 240.024C287.458 239.25 284.005 238.029 280.744 236.392L242.04 238.296C226.2 235.056 199.568 231.28 201.576 225.496C203.704 219.32 212.424 214.424 221.128 211.376C240.16 204.72 253.832 203.192 273.232 201.944L334.28 212.248Z" fill="#37474F"/>
<path d="M279.744 229.6C274.56 221.384 274.472 216.608 274.472 216.608C274.472 216.608 273.384 226.8 278.368 233.88L244.312 238.16L280.744 236.368C284.002 238.005 287.453 239.225 291.016 240C291.016 240 284.936 237.84 279.744 229.6Z" fill="#263238"/>
<path d="M270.856 258.48C273.52 260.488 276.784 262.328 279.744 262.728C280.818 262.874 281.91 262.781 282.944 262.456C286.528 261.376 292.376 260.856 295.064 267.968C298.112 276.024 307.688 279.168 310.656 284.568C312.136 287.296 313.496 295.424 312.736 300.568C312.104 304.784 303.848 302.416 300.448 297.648C297.048 292.88 290.088 286.8 285.6 283.336C278.456 280.136 270.4 275.152 266.976 273.176L270.856 258.48Z" fill="#874C4C"/>
<path d="M218.296 216.32C197.496 219.568 198.296 231.864 204.248 239.8C210.688 248.352 232.424 258.752 244.136 264.184C254.904 269.184 274.392 277.528 274.392 277.528C274.272 272.1 276.18 266.823 279.744 262.728C267.44 255.664 254.52 233.456 234.904 231.96L218.296 216.32Z" fill="#37474F"/>
<path d="M309.776 303.376C310.998 303.451 312.203 303.056 313.144 302.272C314.024 301.528 315.544 295.512 313.224 288.584C311.466 283.451 308.367 278.882 304.248 275.352C301.752 273.136 300.672 270.424 299.544 266.984C298.416 263.544 295.456 259.416 293.616 259.088C291.776 258.76 289.2 260.384 289.2 260.384L309.776 303.376Z" fill="#263238"/>
<path d="M279.944 280.8C280.584 283 282.48 283.408 284.544 284C287.344 284.84 290.144 287.408 292.896 290.32C294.744 292.288 296.312 294.32 298.008 296.392C299.704 298.464 301.272 301.568 303.056 303.128C305.664 305.4 310.448 304.512 311.456 300.864C312.328 297.72 312.16 290.104 308.032 283.16C305.784 279.376 300.208 275.96 298.36 270.736C297.12 267.216 295.488 263.032 292.592 260.536C290.88 259.056 289.472 259.576 287.552 260.304C285.002 261.267 282.394 262.068 279.744 262.704C279.997 264.932 280.861 267.047 282.24 268.816C282.765 269.369 283.169 270.025 283.424 270.744C283.516 271.254 283.516 271.777 283.424 272.288C283.336 272.992 283.152 273.84 282.48 274.088C282.201 274.157 281.918 274.205 281.632 274.232C280.568 274.472 280.16 275.744 279.976 276.824C279.722 277.983 279.679 279.178 279.848 280.352C279.871 280.503 279.903 280.653 279.944 280.8V280.8Z" fill="#FFF0E1"/>
<path opacity="0.4" d="M279.944 280.8C280.584 283 282.48 283.408 284.544 284C287.344 284.84 290.144 287.408 292.896 290.32C294.744 292.288 296.312 294.32 298.008 296.392C299.704 298.464 301.272 301.568 303.056 303.128C305.664 305.4 310.448 304.512 311.456 300.864C312.328 297.72 312.16 290.104 308.032 283.16C305.784 279.376 300.208 275.96 298.36 270.736C297.12 267.216 295.488 263.032 292.592 260.536C290.88 259.056 289.472 259.576 287.552 260.304C285.002 261.267 282.394 262.068 279.744 262.704C279.997 264.932 280.861 267.047 282.24 268.816C282.765 269.369 283.169 270.025 283.424 270.744C283.516 271.254 283.516 271.777 283.424 272.288C283.336 272.992 283.152 273.84 282.48 274.088C282.201 274.157 281.918 274.205 281.632 274.232C280.568 274.472 280.16 275.744 279.976 276.824C279.722 277.983 279.679 279.178 279.848 280.352C279.871 280.503 279.903 280.653 279.944 280.8V280.8Z" fill="black"/>
<path d="M290.192 287.68C289.657 287.559 289.161 287.306 288.749 286.944C288.336 286.582 288.021 286.123 287.832 285.608C287.128 284.128 287.544 281.08 288.496 279C288.584 278.803 288.72 278.632 288.89 278.499C289.06 278.367 289.26 278.279 289.472 278.242C289.685 278.205 289.903 278.22 290.108 278.287C290.313 278.353 290.498 278.469 290.648 278.624V278.624C290.835 278.82 290.957 279.068 290.997 279.336C291.037 279.604 290.994 279.878 290.872 280.12C289.671 282.455 289.427 285.167 290.192 287.68V287.68Z" fill="#F5F5F5"/>
<path d="M294.168 291.776C293.6 291.566 293.092 291.222 292.685 290.774C292.278 290.325 291.986 289.785 291.832 289.2C291.832 289.2 290.872 285.112 292.544 282C292.631 281.812 292.763 281.648 292.927 281.521C293.091 281.395 293.284 281.31 293.488 281.274C293.692 281.237 293.902 281.251 294.1 281.314C294.298 281.376 294.477 281.485 294.624 281.632V281.632C294.806 281.819 294.924 282.06 294.961 282.318C294.999 282.577 294.953 282.841 294.832 283.072C294.08 284.382 293.63 285.843 293.515 287.349C293.4 288.855 293.623 290.367 294.168 291.776Z" fill="#F5F5F5"/>
<path d="M298.008 296.448C297.465 296.177 296.987 295.792 296.606 295.32C296.225 294.848 295.95 294.3 295.8 293.712C295.8 293.712 294.936 289.896 296.6 286.76C296.687 286.572 296.819 286.408 296.983 286.281C297.147 286.155 297.34 286.07 297.544 286.034C297.748 285.997 297.958 286.011 298.156 286.074C298.354 286.136 298.533 286.245 298.68 286.392V286.392C298.859 286.583 298.976 286.824 299.013 287.083C299.05 287.342 299.007 287.607 298.888 287.84C298.078 289.106 297.576 290.544 297.423 292.039C297.27 293.534 297.471 295.044 298.008 296.448V296.448Z" fill="#F5F5F5"/>
<path d="M272.6 254.128C268.872 253.184 263.4 251.848 261.136 248.864C258.872 245.88 254.184 243 247.84 247.176C243.84 249.816 239.04 250.688 234.296 251C232.248 251.136 229.944 250.88 227.944 251.296C225.544 251.8 222.992 253.272 220.92 254.552C219.564 255.312 218.375 256.337 217.424 257.568C216.649 258.722 216.224 260.075 216.202 261.465C216.179 262.855 216.559 264.221 217.296 265.4C217.579 265.876 217.963 266.283 218.423 266.591C218.882 266.9 219.405 267.102 219.952 267.184C222.144 267.664 223.952 266.976 226.048 266.384C227.76 265.912 229.512 265.544 231.272 265.224C235.235 264.482 239.245 264.014 243.272 263.824C244.992 263.752 248.552 263.488 250.272 263.608C257.472 264.104 267.6 268.136 267.6 268.136L272.6 254.128Z" fill="#9E6767"/>
<path d="M347.2 288.496C346.016 295.744 337.88 299.24 320.432 295.752C302.984 292.264 261.464 266.152 261.464 266.152C261.464 266.152 263.064 256.128 272.664 253.432C272.664 253.432 281.344 255.032 295.512 258.088C301.894 259.491 308.199 261.227 314.4 263.288C324 276.144 333.936 270.952 337.528 275.472C343.496 283.024 347.2 288.496 347.2 288.496Z" fill="#37474F"/>
<path d="M215.488 265.8C214.455 265.14 213.713 264.109 213.416 262.92C213.144 261.8 215.44 256.024 221.416 251.824C225.867 248.717 231.068 246.858 236.48 246.44C239.8 246.12 242.272 244.568 245.216 242.44C248.16 240.312 252.984 238.752 254.664 239.568C256.344 240.384 257.464 243.224 257.464 243.224L215.488 265.8Z" fill="#263238"/>
<path d="M252.872 265.2C251.056 266.6 249.28 265.816 247.272 265.096C244.512 264.112 240.72 264.528 236.8 265.264C234.144 265.768 231.696 266.464 229.088 267.144C226.48 267.824 223.392 269.408 221.032 269.608C217.592 269.904 214.256 266.368 215.592 262.824C216.744 259.768 221.376 253.72 228.808 250.552C232.856 248.824 239.352 249.384 243.944 246.232C247.024 244.12 250.808 241.712 254.624 241.432C256.88 241.248 257.712 242.496 258.832 244.216C260.326 246.492 261.964 248.67 263.736 250.736C262.221 252.38 260.284 253.578 258.136 254.2C257.385 254.334 256.67 254.625 256.04 255.056C255.668 255.416 255.362 255.838 255.136 256.304C254.792 256.928 254.44 257.712 254.832 258.312C255.02 258.531 255.223 258.737 255.44 258.928C256.16 259.728 255.728 261.024 255.248 262C254.764 263.083 254.096 264.074 253.272 264.928C253.112 265.008 252.992 265.112 252.872 265.2Z" fill="#FFF0E1"/>
<path opacity="0.4" d="M252.872 265.2C251.056 266.6 249.28 265.816 247.272 265.096C244.512 264.112 240.72 264.528 236.8 265.264C234.144 265.768 231.696 266.464 229.088 267.144C226.48 267.824 223.392 269.408 221.032 269.608C217.592 269.904 214.256 266.368 215.592 262.824C216.744 259.768 221.376 253.72 228.808 250.552C232.856 248.824 239.352 249.384 243.944 246.232C247.024 244.12 250.808 241.712 254.624 241.432C256.88 241.248 257.712 242.496 258.832 244.216C260.326 246.492 261.964 248.67 263.736 250.736C262.221 252.38 260.284 253.578 258.136 254.2C257.385 254.334 256.67 254.625 256.04 255.056C255.668 255.416 255.362 255.838 255.136 256.304C254.792 256.928 254.44 257.712 254.832 258.312C255.02 258.531 255.223 258.737 255.44 258.928C256.16 259.728 255.728 261.024 255.248 262C254.764 263.083 254.096 264.074 253.272 264.928C253.112 265.008 252.992 265.112 252.872 265.2Z" fill="black"/>
<path d="M240.56 264.688C241.063 264.907 241.613 264.995 242.16 264.947C242.706 264.898 243.232 264.712 243.688 264.408C245.128 263.608 246.592 260.92 247.048 258.68C247.097 258.468 247.094 258.246 247.037 258.036C246.98 257.825 246.872 257.632 246.722 257.474C246.572 257.315 246.385 257.196 246.178 257.128C245.972 257.059 245.751 257.042 245.536 257.08C245.268 257.127 245.021 257.256 244.829 257.45C244.637 257.643 244.509 257.891 244.464 258.16C244.065 260.762 242.664 263.105 240.56 264.688Z" fill="#F5F5F5"/>
<path d="M234.928 265.648C235.511 265.812 236.125 265.833 236.718 265.711C237.311 265.588 237.866 265.325 238.336 264.944C238.336 264.944 241.536 262.208 242.024 258.696C242.065 258.493 242.056 258.283 241.999 258.084C241.941 257.885 241.837 257.703 241.694 257.553C241.551 257.403 241.374 257.289 241.178 257.222C240.982 257.155 240.773 257.137 240.568 257.168V257.168C240.31 257.213 240.073 257.337 239.889 257.524C239.706 257.71 239.585 257.949 239.544 258.208C239.381 259.714 238.881 261.165 238.082 262.453C237.283 263.74 236.205 264.832 234.928 265.648V265.648Z" fill="#F5F5F5"/>
<path d="M229.072 267.144C229.67 267.248 230.283 267.221 230.87 267.067C231.456 266.912 232.003 266.633 232.472 266.248C232.472 266.248 235.424 263.68 235.92 260.16C235.961 259.957 235.952 259.747 235.895 259.548C235.837 259.349 235.733 259.167 235.59 259.017C235.447 258.867 235.27 258.754 235.074 258.687C234.878 258.62 234.669 258.601 234.464 258.632C234.206 258.677 233.969 258.802 233.785 258.988C233.602 259.174 233.481 259.414 233.44 259.672C233.343 261.171 232.898 262.628 232.14 263.925C231.382 265.222 230.331 266.324 229.072 267.144V267.144Z" fill="#F5F5F5"/>
<path d="M302.32 259.704C302.32 259.704 314.04 261.992 322.728 267.848C322.728 267.848 313.8 257.392 300 255.512L302.32 259.704Z" fill="#263238"/>
<path d="M234.904 232C242.648 232.528 248.504 236.472 250.048 237.416L250.848 237.904L255.528 237.672C253.31 235.773 250.797 234.249 248.088 233.16C243.925 231.394 239.311 230.988 234.904 232V232Z" fill="#263238"/>
<path d="M249.544 194.912C258.52 196.64 263.72 196.624 268 186.984C273.6 174.32 282.4 153.88 282.4 153.88L286.832 119.248C277.856 117.976 269.84 122.944 264.632 135.248C259.288 147.872 249.016 173.784 249.016 173.784C242.512 173.248 235.96 173.336 229.448 172.872C226.44 172.656 223.688 172.384 221.184 170.52C219.602 169.197 217.943 167.968 216.216 166.84C215.06 166.128 213.842 165.523 212.576 165.032C211.462 164.546 210.42 163.908 209.48 163.136C209.205 162.898 208.865 162.748 208.504 162.704C207.832 162.704 207.36 163.4 207.224 164.064C207.053 164.995 207.182 165.955 207.592 166.808C208 167.656 208.558 168.423 209.24 169.072C209.464 169.296 209.712 169.648 209.512 169.872C209.428 169.943 209.326 169.99 209.218 170.008C209.11 170.026 208.999 170.015 208.896 169.976C206.566 169.516 204.266 168.918 202.008 168.184C200.964 167.827 199.825 167.867 198.808 168.296C197.088 169.096 196.736 171.424 196.992 173.312C198.664 185.864 212.704 187.032 222.504 189.16C229.632 190.712 236.76 192.264 243.904 193.752C245.76 194.16 247.648 194.552 249.544 194.912Z" fill="#874C4C"/>
<path d="M288.8 118.616C282.4 118.776 275.328 117.864 268.864 126.616C262.4 135.368 253.448 162.616 253.448 162.616C253.448 162.616 270.088 164.144 273.88 173.24L288.6 144.912L288.8 118.616Z" fill="#FFF0E1"/>
<path d="M311.344 118.816C324.024 121.16 332.48 123.896 334.872 126.216C340.264 137.256 333.272 174.296 333.272 174.296L333.504 195.696L334.304 212.248C320.6 223.824 276.352 218.832 268.872 202.608C268.872 202.608 266.96 161.36 268.872 145.608C270.904 128.872 278.472 119.112 292.808 118.272L311.344 118.816Z" fill="#E0E0E0"/>
<path d="M280.112 97.224C289.638 97.224 297.36 89.5018 297.36 79.976C297.36 70.4502 289.638 62.728 280.112 62.728C270.586 62.728 262.864 70.4502 262.864 79.976C262.864 89.5018 270.586 97.224 280.112 97.224Z" fill="#263238"/>
<path d="M314.272 88.2161C314.272 88.2161 312.88 102.336 311.952 104.736C311.319 106.219 310.142 107.404 308.664 108.048L307.792 98.3201L314.272 88.2161Z" fill="#263238"/>
<path d="M308.384 68.872C309.397 68.6373 310.451 68.6371 311.464 68.8714C312.478 69.1057 313.424 69.5683 314.232 70.224C316.928 72.424 316.44 80.304 314.232 88.216L308.8 89.472L308.384 68.872Z" fill="#263238"/>
<path d="M307.2 89.6559C308.376 90.1999 309.72 87.8879 310.928 86.3039C312.136 84.7199 316.384 82.3039 319.136 86.7119C321.888 91.1199 318.288 97.7919 315.016 99.5119C314.517 99.8098 313.964 100.005 313.389 100.086C312.814 100.166 312.228 100.131 311.667 99.9821C311.105 99.833 310.579 99.573 310.12 99.2174C309.661 98.8619 309.277 98.418 308.992 97.9119L311.072 120.232C306.008 132.416 282.336 134.32 289.928 120.776L289.312 115.12C286.524 115.802 283.67 116.18 280.8 116.248C277.904 116.208 274.176 113.848 271.528 108.456C268 101.2 266.4 93.9999 266.552 78.5679C266.704 61.6479 286.68 60.1039 297.904 65.5359C309.128 70.9679 307.2 89.6559 307.2 89.6559Z" fill="#9E6767"/>
<path d="M306.456 59.848C302.606 58.6828 298.637 57.9556 294.624 57.68C285.952 56.784 277.136 56.08 268.968 53.008C268.002 52.5229 266.913 52.3363 265.84 52.472C263.832 52.968 263.216 55.536 263.36 57.6C263.493 59.5312 263.955 61.4253 264.728 63.2C263.488 62.016 261.264 62.448 260.184 63.776C259.687 64.4789 259.356 65.2859 259.218 66.1356C259.079 66.9854 259.136 67.8556 259.384 68.68C261.896 78.816 271.848 79.792 279.84 78.848C282.608 78.52 288.416 77.352 290.912 74.296C291.8 76.3518 293.27 78.103 295.14 79.3339C297.011 80.5649 299.201 81.2219 301.44 81.224C301.651 83.9555 302.166 86.6549 302.976 89.272C303.352 90.472 303.96 91.816 305.176 92.136C305.656 92.2224 306.151 92.1756 306.606 92.0007C307.062 91.8258 307.461 91.5296 307.76 91.144C308.952 89.776 309.56 87.944 310.76 86.512C312.288 84.696 312.64 72.224 312.688 69.92C312.706 69.7392 312.769 69.5657 312.872 69.416C314.472 66.504 311.728 62.216 309.184 60.992C308.299 60.5546 307.388 60.1725 306.456 59.848V59.848Z" fill="#263238"/>
<path d="M311.832 69.6881C312.216 70.0783 312.674 70.387 313.18 70.5957C313.686 70.8043 314.229 70.9087 314.776 70.9024C315.324 70.8961 315.864 70.7794 316.365 70.5591C316.866 70.3389 317.317 70.0198 317.692 69.6209C318.067 69.2219 318.357 68.7514 318.545 68.2376C318.734 67.7237 318.816 67.1771 318.788 66.6306C318.76 66.084 318.622 65.5487 318.382 65.0568C318.142 64.5649 317.806 64.1266 317.392 63.7681L311.832 69.6881Z" fill="#263238"/>
<path d="M289.272 115.2C289.272 115.2 297.712 112.64 300.984 110.4C303.168 108.904 304.808 104.68 305.216 103.24C305.318 106.14 304.558 109.005 303.032 111.472C300.768 114.952 289.68 118.88 289.68 118.88L289.272 115.2Z" fill="#874C4C"/>
<path d="M287.76 90.1842C287.786 90.4781 287.87 90.7639 288.007 91.0253C288.144 91.2866 288.331 91.5184 288.558 91.7072C288.784 91.896 289.046 92.0382 289.328 92.1255C289.61 92.2129 289.906 92.2437 290.2 92.2162C290.657 92.1845 291.095 92.0167 291.456 91.7343C291.817 91.452 292.085 91.068 292.226 90.6318C292.367 90.1957 292.374 89.7273 292.247 89.287C292.119 88.8467 291.863 88.4547 291.511 88.1613C291.158 87.868 290.726 87.6868 290.27 87.6411C289.814 87.5954 289.355 87.6872 288.951 87.9048C288.548 88.1224 288.219 88.4558 288.007 88.862C287.794 89.2682 287.708 89.7287 287.76 90.1842V90.1842Z" fill="#263238"/>
<path d="M293.968 83.6559L289.48 81.7039C289.232 82.3177 289.23 83.0033 289.475 83.6185C289.719 84.2336 290.191 84.7312 290.792 85.0079C291.089 85.1333 291.408 85.1978 291.73 85.1974C292.052 85.197 292.37 85.1318 292.667 85.0056C292.963 84.8795 293.231 84.6949 293.455 84.4631C293.678 84.2312 293.853 83.9566 293.968 83.6559V83.6559Z" fill="#263238"/>
<path d="M292.064 101.6L285.088 105.144C285.301 105.615 285.606 106.039 285.986 106.389C286.367 106.739 286.814 107.009 287.301 107.183C287.788 107.356 288.305 107.429 288.821 107.398C289.337 107.366 289.841 107.231 290.304 107C291.241 106.505 291.949 105.665 292.278 104.657C292.606 103.649 292.53 102.552 292.064 101.6V101.6Z" fill="#874C4C"/>
<path d="M292.152 103.2C291.205 103.202 290.297 103.58 289.629 104.25C288.96 104.921 288.584 105.829 288.584 106.776C288.585 106.988 288.606 107.2 288.648 107.408C289.224 107.401 289.791 107.262 290.304 107C290.989 106.647 291.557 106.103 291.94 105.435C292.323 104.766 292.505 104.001 292.464 103.232C292.36 103.248 292.264 103.2 292.152 103.2Z" fill="#F28F8F"/>
<path d="M272.608 82.624L268.552 85.44C268.725 85.7107 268.951 85.9438 269.216 86.1256C269.481 86.3074 269.78 86.4342 270.094 86.4983C270.409 86.5625 270.734 86.5628 271.049 86.4992C271.364 86.4356 271.663 86.3093 271.928 86.128C272.469 85.7423 272.841 85.1637 272.967 84.5117C273.094 83.8597 272.965 83.184 272.608 82.624V82.624Z" fill="#263238"/>
<path d="M271.672 91.4482C271.737 91.8759 271.927 92.275 272.217 92.5959C272.507 92.9169 272.885 93.1455 273.304 93.2534C273.723 93.3613 274.164 93.3438 274.573 93.2029C274.983 93.0621 275.341 92.8042 275.605 92.4612C275.869 92.1182 276.026 91.7053 276.057 91.2738C276.088 90.8422 275.992 90.4111 275.78 90.0339C275.568 89.6567 275.25 89.35 274.865 89.152C274.48 88.954 274.046 88.8734 273.616 88.9202C273.322 88.9576 273.038 89.0529 272.781 89.2004C272.524 89.3479 272.299 89.5448 272.118 89.7798C271.937 90.0147 271.805 90.2831 271.728 90.5694C271.652 90.8558 271.633 91.1544 271.672 91.4482V91.4482Z" fill="#263238"/>
<path d="M281.68 90.4163L282.36 102.464L275.872 101.032L281.68 90.4163Z" fill="#874C4C"/>
<path d="M334.872 126.216C342.512 131.136 345.392 140.048 341.704 153.168C337.656 167.568 330.064 185.544 321.832 197.896C318.512 202.872 316.712 204.296 301.76 201.896C294.192 200.672 286.648 199.048 279.16 197.408C270.192 195.44 259.712 192.832 252.536 189.408C250.127 188.29 247.955 186.72 246.136 184.784C245.526 184.146 245.051 183.391 244.741 182.564C244.43 181.737 244.291 180.856 244.33 179.974C244.37 179.091 244.588 178.226 244.971 177.431C245.354 176.635 245.895 175.925 246.56 175.344C254.016 168.24 256.064 174.488 261.488 176.28C261.488 176.28 264.688 176.28 266.216 176.488C267.6 176.656 267.696 176.424 268.856 177.176C271.2 178.688 272.712 179.936 274.136 180.144C283.648 181.544 305.696 182.968 305.696 182.968L319.712 149.056C319.712 149.056 327.576 124.936 334.872 126.216Z" fill="#9E6767"/>
<path d="M271.264 178.792C271.008 178.704 269.824 176.256 269.472 175.76C268.677 174.589 267.789 173.484 266.816 172.456C265.894 171.471 264.792 170.673 263.568 170.104C261.784 169.392 259.784 169.016 257.968 168.504C257.714 168.401 257.433 168.384 257.168 168.456C257.025 168.52 256.904 168.625 256.82 168.757C256.736 168.89 256.693 169.044 256.696 169.2C256.7 169.512 256.777 169.819 256.92 170.096C257.401 171.151 258.128 172.076 259.04 172.792C259.736 173.352 261.856 175.648 262.448 176.328C262.4 176.304 271.264 179.4 271.264 178.792Z" fill="#9E6767"/>
<path d="M330.944 124C336.752 125.44 341.768 127.296 343.64 135.288C345.512 143.28 344.8 147.448 337.656 165.888C333.312 177.088 329.848 183.84 329.848 183.84C329.848 183.84 325.688 173.28 309.768 172.112L320.096 141.104C320.096 141.104 326.096 127.568 330.944 124Z" fill="#FFF0E1"/>
<path d="M116.304 260.296C116.304 260.296 90.12 250.696 86.888 248.088C84.184 245.896 85.808 240.648 82.088 239.752C77.776 238.72 74.696 241.032 71.928 243.576C69.304 245.976 65.88 247.072 59.424 244.84C52.968 242.608 46.736 239.432 44.12 240.696C41.504 241.96 43.2 244 54.52 249.2C61.008 252.192 69.272 255.68 74.568 257.768C78.3899 259.189 81.9952 261.136 85.28 263.552C92.184 268.352 93.456 269.416 101.624 274.312C117.952 284.096 127.56 286.672 140.552 284.208L116.304 260.296Z" fill="#FFA8A7"/>
<path d="M91.792 250.64C86.584 253.64 84.072 256.944 83.792 262.712C83.792 262.712 87.304 265.432 92.864 269.28C99.52 273.888 115.632 284.376 126.392 285.472C143.08 287.168 148.368 282.144 148.368 282.144L91.792 250.64Z" fill="#455A64"/>
<path d="M86.96 254.352C95.504 268.752 116.376 277.688 122.96 278.352C120.648 276.456 117.248 270 114.024 263L91.792 250.64C89.9977 251.618 88.3674 252.871 86.96 254.352V254.352Z" fill="#37474F"/>
<path d="M37.984 239.496C37.8554 238.984 37.844 238.45 37.9507 237.934C38.0573 237.417 38.2793 236.931 38.6 236.512C40.904 233.784 43.848 232.344 45.856 231.328C48.2925 230.195 50.975 229.695 53.656 229.872C58.776 230.176 63.176 233.992 68.296 234.288C72.112 234.512 75.584 232.568 79.304 231.664C80.4762 231.381 81.6844 231.275 82.888 231.352C83.912 231.416 85.528 232.152 85.896 232.992C86.4043 234.012 86.5044 235.188 86.176 236.28C85.944 236.968 84.528 238.28 83.504 239C82.112 239.992 80.368 240.272 78.288 240.888C73.04 242.4 49.552 242.984 37.984 239.496Z" fill="#37474F"/>
<path d="M87.0079 246.656C87.0079 247.12 87.0879 247.568 87.1359 248.04C87.2079 248.672 86.8639 248.84 86.3359 249.232C84.1839 250.712 81.4639 250.568 79.0079 250.144C77.0959 249.808 75.1519 249.272 73.2399 249.64C70.9679 250.088 69.1519 251.752 67.4559 253.336C67.0845 253.685 66.7736 254.093 66.5359 254.544C66.5359 254.544 53.3279 248.904 47.3359 245.744C44.2959 244.144 40.7839 242.64 38.3919 240.096C38.2559 239.96 38.9759 239.064 39.0479 238.976C39.856 238.107 40.9166 237.514 42.0799 237.28C43.9744 236.788 45.9444 236.655 47.8879 236.888C50.8399 237.328 53.7119 238.104 56.6399 238.68C59.2659 239.196 61.9177 239.57 64.5839 239.8C67.4888 240.056 70.4082 240.104 73.3199 239.944C76.0501 239.882 78.7445 239.31 81.2639 238.256C82.2466 237.828 83.1648 237.266 83.9919 236.584C84.4709 236.103 84.8899 235.566 85.2399 234.984C85.6479 234.4 85.8959 233.384 86.3119 234.248C87.3199 236.232 87.5279 239.288 87.3839 241.512C87.2879 243.04 87.0879 244.56 87.0319 246.096C86.9999 246.28 86.9999 246.464 87.0079 246.656Z" fill="#FFF0E1"/>
<path opacity="0.2" d="M87.0079 246.656C87.0079 247.12 87.0879 247.568 87.1359 248.04C87.2079 248.672 86.8639 248.84 86.3359 249.232C84.1839 250.712 81.4639 250.568 79.0079 250.144C77.0959 249.808 75.1519 249.272 73.2399 249.64C70.9679 250.088 69.1519 251.752 67.4559 253.336C67.0845 253.685 66.7736 254.093 66.5359 254.544C66.5359 254.544 53.3279 248.904 47.3359 245.744C44.2959 244.144 40.7839 242.64 38.3919 240.096C38.2559 239.96 38.9759 239.064 39.0479 238.976C39.856 238.107 40.9166 237.514 42.0799 237.28C43.9744 236.788 45.9444 236.655 47.8879 236.888C50.8399 237.328 53.7119 238.104 56.6399 238.68C59.2659 239.196 61.9177 239.57 64.5839 239.8C67.4888 240.056 70.4082 240.104 73.3199 239.944C76.0501 239.882 78.7445 239.31 81.2639 238.256C82.2466 237.828 83.1648 237.266 83.9919 236.584C84.4709 236.103 84.8899 235.566 85.2399 234.984C85.6479 234.4 85.8959 233.384 86.3119 234.248C87.3199 236.232 87.5279 239.288 87.3839 241.512C87.2879 243.04 87.0879 244.56 87.0319 246.096C86.9999 246.28 86.9999 246.464 87.0079 246.656Z" fill="black"/>
<path d="M52.608 237.736C50.144 241.12 50.16 247.112 50.16 247.112C50.16 247.112 45.92 245.336 41.752 243.008C37.752 240.776 37.984 239.496 37.984 239.496C38.1849 238.804 38.5924 238.19 39.152 237.736C40.6662 236.521 42.5958 235.947 44.528 236.136C47.2756 236.345 49.9883 236.882 52.608 237.736Z" fill="#FAFAFA"/>
<path d="M52.4319 245.104C52.1273 246.065 52.0399 247.082 52.1759 248.08C52.5638 248.378 53.0113 248.588 53.4879 248.696C53.4653 247.668 53.5728 246.642 53.8079 245.64C54.0799 244.8 52.7279 244.28 52.4319 245.104Z" fill="#FAFAFA"/>
<path d="M56.448 246.952C56.1327 247.911 56.037 248.928 56.168 249.928C56.5683 250.216 57.0227 250.42 57.504 250.528C57.4596 249.504 57.5675 248.48 57.824 247.488C58.096 246.608 56.744 246.12 56.448 246.952Z" fill="#FAFAFA"/>
<path d="M60.464 248.8C60.1584 249.75 60.0708 250.756 60.208 251.744C60.5922 252.053 61.0404 252.271 61.52 252.384C61.4971 251.359 61.6046 250.335 61.84 249.336C62.112 248.448 60.8 248 60.464 248.8Z" fill="#FAFAFA"/>
<path d="M86.288 234.232C86.2692 233.791 86.1339 233.364 85.896 232.992C85.896 232.992 84.576 235.704 79.856 237.272C75.376 238.76 68.976 239.48 59.744 237.352C50.512 235.224 45.176 233.24 41 234.896C36.824 236.552 37.984 239.496 37.984 239.496C37.984 239.496 39.976 235.824 45.832 236.512C51.48 237.176 59.784 240.168 67.512 240.448C75.584 240.752 83.736 239.72 86.288 234.232Z" fill="#E0E0E0"/>
<path d="M180.152 251.744C176.152 239.152 165.28 231.816 155.608 223.704C145.936 215.592 130.504 202 130.504 202L76.104 191.024C72.712 197.968 69.304 211.24 69.288 221.336C69.288 230.752 72.144 243.368 88.624 255.6C98.616 263.016 106.592 268.84 113.752 273.392C121.32 278.192 138.024 286.664 147.872 283.336C150.909 282.384 153.46 280.295 154.993 277.505C156.526 274.716 156.921 271.442 156.096 268.368V268.368C157.256 268.472 158.408 268.536 159.48 268.544C160.728 268.584 161.88 268.544 162.768 268.544C166.029 268.633 169.28 268.14 172.368 267.088C179.2 264.592 182.464 259.048 180.152 251.744Z" fill="#455A64"/>
<path d="M158.448 268C157.384 268 156.224 267.928 155.072 267.816C148.992 254.848 115.608 228.312 115.608 228.312C118.304 227 124.552 223.656 126.648 219.896C125.792 224.696 123.04 227.096 120.376 229.064C124.472 232.736 141.688 247.248 146.288 251.608C151.112 256.176 156.12 261.488 158.448 268Z" fill="#37474F"/>
<path d="M119.12 122.16C126.224 122.72 129.608 124.696 136.624 132.448C143.64 140.2 156.624 154.232 158.96 157.872C161.296 161.512 168.088 169.384 157.864 175.28C147.64 181.176 125.776 183.152 125.776 183.152L119.12 122.16Z" fill="#F28F8F"/>
<path d="M131.6 165.64C141.096 157.832 138 147.648 134.504 140.792C127.568 127.08 120.352 121.688 117.344 121.736L98.144 119.248C90.4127 120.456 82.945 122.978 76.064 126.704C68.56 131.04 70.56 135.984 71.56 140.48C74.264 152.712 77.68 159.68 78.696 163.384C79.712 167.088 81.584 172.864 80.064 178.864C79.472 181.184 77.904 183.44 75.528 189.84C73.4373 195.099 71.8306 200.537 70.728 206.088C70.728 206.088 85.992 220.072 112.92 216.224C132.744 213.392 135.264 206.152 135.264 206.152L130.616 181.768C131.088 173.68 131.2 170.744 131.6 165.64Z" fill="#FFF0E1"/>
<g opacity="0.5">
<path opacity="0.5" d="M131.6 165.64C141.096 157.832 138 147.648 134.504 140.792C127.568 127.08 120.352 121.688 117.344 121.736L98.144 119.248C90.4127 120.456 82.945 122.978 76.064 126.704C68.56 131.04 70.56 135.984 71.56 140.48C74.264 152.712 77.68 159.68 78.696 163.384C79.712 167.088 81.584 172.864 80.064 178.864C79.472 181.184 77.904 183.44 75.528 189.84C73.4373 195.099 71.8306 200.537 70.728 206.088C70.728 206.088 85.992 220.072 112.92 216.224C132.744 213.392 135.264 206.152 135.264 206.152L130.616 181.768C131.088 173.68 131.2 170.744 131.6 165.64Z" fill="white"/>
</g>
<path d="M125.6 60.552C115.416 55.056 102.304 57.224 97.152 65.456C97.152 65.456 91.96 64.488 86.752 69.032C80.872 74.2 80.928 81.992 80.848 89.152C80.752 97.496 77.648 100 76.512 106.416C75.376 112.832 79.712 117.064 84.456 117.616C84.456 117.616 82.856 111.744 84.544 109.024C84.544 109.024 84.032 117.432 92.032 118.856C98.472 120.008 103.312 115.656 103.312 115.656C103.312 115.656 95.264 114.256 93.88 109.352L94.752 101.168L109.328 116.88C117.72 124.16 129.512 119.592 129.856 116.248C129.856 116.248 120.352 106.432 133.176 94.16C146 81.888 135.776 66.04 125.6 60.552Z" fill="#37474F"/>
<path d="M132.904 97.6C131.072 112.248 125.936 115.392 123.448 116.192C120.96 116.992 116.4 115.888 112.008 114.696L111.296 121.68C111.296 121.68 118.152 128.44 116.384 130.056C113.088 133.064 104.384 131.656 100.176 129.328C97.2416 127.829 94.7737 125.554 93.04 122.752C92.6775 122.155 92.5546 121.444 92.696 120.76L94.776 101.16C94.776 101.16 92.432 102.544 88.904 100.168C85.704 98.032 85.024 91.368 87.992 88.496C90.112 86.464 94.04 86.52 95.992 90.208C97.024 92.88 96.408 95.304 98.208 95.224C100.008 95.144 100.776 93.464 101.064 92.072C101.352 90.68 101.52 89.672 101.864 87.856C106.312 87.44 111.248 81.456 112.264 77.152C115.2 78.864 118.328 80.248 121.44 80.408C126.336 80.648 128.96 79.976 131.76 76.76C132.241 77.6234 132.592 78.5536 132.8 79.52C133.246 81.4704 133.513 83.4572 133.6 85.456C133.7 89.5162 133.467 93.5778 132.904 97.6Z" fill="#FFA8A7"/>
<path d="M112 114.68C107.336 113.584 97.904 109.808 96.8 105.808C96.8 105.808 97.056 108.272 99.712 111.056C102.368 113.84 111.712 117.624 111.712 117.624L112 114.68Z" fill="#F28F8F"/>
<path d="M116.96 92.6241C116.925 93.0245 116.773 93.4056 116.523 93.7202C116.272 94.0347 115.935 94.2687 115.553 94.393C115.171 94.5173 114.761 94.5264 114.373 94.4192C113.986 94.312 113.639 94.0933 113.375 93.7901C113.111 93.487 112.942 93.113 112.889 92.7146C112.837 92.3162 112.902 91.9111 113.078 91.5497C113.254 91.1883 113.532 90.8866 113.878 90.6822C114.224 90.4778 114.623 90.3797 115.024 90.4001C115.297 90.4184 115.564 90.4905 115.81 90.6123C116.055 90.7341 116.274 90.9031 116.454 91.1098C116.634 91.3164 116.771 91.5566 116.858 91.8165C116.945 92.0764 116.979 92.3508 116.96 92.6241V92.6241Z" fill="#263238"/>
<path d="M130.76 93.384C130.751 93.632 130.693 93.8757 130.589 94.1012C130.486 94.3268 130.339 94.5297 130.156 94.6983C129.974 94.867 129.761 94.9981 129.528 95.0842C129.295 95.1703 129.048 95.2096 128.8 95.2C128.546 95.2004 128.295 95.146 128.064 95.0406C127.833 94.9352 127.627 94.7812 127.461 94.5891C127.294 94.397 127.171 94.1714 127.1 93.9275C127.029 93.6837 127.011 93.4274 127.048 93.176C127.055 92.9277 127.112 92.6833 127.214 92.4569C127.316 92.2304 127.462 92.0266 127.644 91.857C127.825 91.6873 128.038 91.5554 128.271 91.4687C128.504 91.382 128.752 91.3424 129 91.352C129.503 91.3889 129.97 91.6235 130.3 92.0043C130.63 92.3852 130.795 92.8813 130.76 93.384Z" fill="#263238"/>
<path d="M121.984 89.1521L121.008 103.032L127.704 101.648L121.984 89.1521Z" fill="#F28F8F"/>
<path d="M109.976 86.4002L114.048 83.3682C114.443 83.9284 114.607 84.6193 114.506 85.2972C114.404 85.9752 114.046 86.5879 113.504 87.0082C113.235 87.2067 112.928 87.3488 112.603 87.4259C112.278 87.5029 111.94 87.5134 111.61 87.4566C111.281 87.3998 110.966 87.2769 110.685 87.0954C110.404 86.9138 110.163 86.6774 109.976 86.4002V86.4002Z" fill="#263238"/>
<path d="M113.448 102.976L119.696 105.864C119.283 106.698 118.564 107.34 117.69 107.657C116.815 107.975 115.852 107.943 115 107.568C114.589 107.376 114.222 107.104 113.92 106.766C113.618 106.428 113.387 106.033 113.242 105.604C113.097 105.175 113.041 104.721 113.076 104.269C113.111 103.817 113.238 103.377 113.448 102.976V102.976Z" fill="#874C4C"/>
<path d="M115 107.568C114.422 107.302 113.934 106.874 113.594 106.335C113.255 105.797 113.079 105.172 113.088 104.536C113.461 104.441 113.849 104.414 114.232 104.456C115.038 104.562 115.773 104.971 116.289 105.599C116.805 106.228 117.062 107.029 117.008 107.84C116.327 107.958 115.626 107.863 115 107.568V107.568Z" fill="#F28F8F"/>
<path d="M129.512 84.104L133.2 87.648C132.98 87.8989 132.712 88.1024 132.412 88.2463C132.111 88.3901 131.784 88.4713 131.451 88.4847C131.118 88.4982 130.786 88.4437 130.474 88.3246C130.163 88.2055 129.879 88.0243 129.64 87.792C129.15 87.3107 128.864 86.6598 128.84 85.9736C128.816 85.2873 129.057 84.6181 129.512 84.104V84.104Z" fill="#263238"/>
<path d="M138.64 136.976C137.702 136.833 136.772 136.638 135.856 136.392C134.164 135.87 132.391 135.659 130.624 135.768C128.8 135.928 126.36 136.688 125.072 137.976C124.536 138.504 124.336 139.76 125.224 140.072C125.191 140.281 125.218 140.494 125.302 140.688C125.385 140.882 125.522 141.048 125.696 141.168C126.114 141.447 126.625 141.553 127.12 141.464C127.12 141.96 127.92 142.264 128.72 142.192C129.838 141.893 130.995 141.763 132.152 141.808C134.592 141.88 135.008 142.808 135.008 142.808" fill="#455A64"/>
<path d="M129.032 139.864C128.491 139.766 127.932 139.876 127.469 140.173C127.006 140.47 126.673 140.931 126.536 141.464C126.73 141.476 126.926 141.476 127.12 141.464C127.191 141.011 127.425 140.599 127.776 140.305C128.128 140.011 128.574 139.854 129.032 139.864Z" fill="#37474F"/>
<path d="M127.2 138.352C126.704 138.326 126.211 138.447 125.784 138.7C125.357 138.954 125.014 139.328 124.8 139.776C124.9 139.91 125.036 140.013 125.192 140.072C125.331 139.626 125.593 139.228 125.949 138.923C126.304 138.619 126.737 138.421 127.2 138.352V138.352Z" fill="#37474F"/>
<path d="M160.096 130.936L156.096 132.048L148.096 134.272L147.384 134.448L145.528 134.76C144.22 134.882 142.923 135.101 141.648 135.416H141.368C140.858 135.438 140.352 135.524 139.864 135.672C139.54 135.921 139.23 136.188 138.936 136.472L138.088 137.272C137.992 137.376 137.896 137.48 137.8 137.6L135.304 141.96C134.759 142.646 134.02 143.154 133.184 143.416C131.876 143.694 130.705 144.418 129.872 145.464C129.784 145.332 129.665 145.222 129.526 145.146C129.387 145.069 129.231 145.027 129.072 145.024C129.038 144.796 128.946 144.581 128.807 144.397C128.667 144.214 128.483 144.069 128.272 143.976C127.762 143.766 127.192 143.752 126.672 143.936C126.672 143.528 125.976 143 124.584 143.312C121.832 143.928 120.208 145.024 117.344 146.832C113.776 149.088 112.624 151.144 112.68 152.832C112.666 153.375 112.799 153.911 113.065 154.385C113.331 154.858 113.721 155.25 114.192 155.52C114.192 155.52 103.096 166.128 118.304 175.136C133.072 183.88 152.384 174.536 158.416 160.536C159.997 156.82 160.983 152.879 161.336 148.856C162.16 141.152 160.632 135.2 160.096 130.936Z" fill="#455A64"/>
<path d="M129.544 148.12C129.544 148.12 131.944 147.048 133.048 148.36C133.328 148.228 133.636 148.168 133.945 148.186C134.254 148.204 134.554 148.3 134.816 148.464C135.032 148.605 135.197 148.812 135.287 149.054C135.378 149.295 135.389 149.559 135.32 149.808C135.492 149.821 135.658 149.881 135.799 149.981C135.94 150.081 136.051 150.217 136.12 150.376C136.211 150.672 136.231 150.986 136.178 151.292C136.125 151.598 136.001 151.887 135.816 152.136C135.383 152.95 134.793 153.669 134.078 154.252C133.364 154.834 132.54 155.268 131.656 155.528C132.516 156.024 133.246 156.719 133.785 157.553C134.323 158.388 134.655 159.339 134.752 160.328C135.304 164.2 134.064 166.208 134.064 166.208C139.165 164.97 143.684 162.016 146.864 157.84C153.632 149.152 151.184 133.84 151.184 133.84L139.856 135.752C138.665 136.381 137.635 137.275 136.845 138.366C136.054 139.456 135.524 140.713 135.296 142.04C132.956 142.26 130.714 143.087 128.792 144.44C128.914 144.638 129.003 144.854 129.056 145.08C129.212 145.095 129.364 145.142 129.501 145.218C129.639 145.293 129.759 145.396 129.856 145.52C130.146 145.911 130.276 146.398 130.218 146.882C130.16 147.366 129.919 147.809 129.544 148.12V148.12Z" fill="#FFF0E1"/>
<path opacity="0.3" d="M129.544 148.12C129.544 148.12 131.944 147.048 133.048 148.36C133.328 148.228 133.636 148.168 133.945 148.186C134.254 148.204 134.554 148.3 134.816 148.464C135.032 148.605 135.197 148.812 135.287 149.054C135.378 149.295 135.389 149.559 135.32 149.808C135.492 149.821 135.658 149.881 135.799 149.981C135.94 150.081 136.051 150.217 136.12 150.376C136.211 150.672 136.231 150.986 136.178 151.292C136.125 151.598 136.001 151.887 135.816 152.136C135.383 152.95 134.793 153.669 134.078 154.252C133.364 154.834 132.54 155.268 131.656 155.528C132.516 156.024 133.246 156.719 133.785 157.553C134.323 158.388 134.655 159.339 134.752 160.328C135.304 164.2 134.064 166.208 134.064 166.208C139.165 164.97 143.684 162.016 146.864 157.84C153.632 149.152 151.184 133.84 151.184 133.84L139.856 135.752C138.665 136.381 137.635 137.275 136.845 138.366C136.054 139.456 135.524 140.713 135.296 142.04C132.956 142.26 130.714 143.087 128.792 144.44C128.914 144.638 129.003 144.854 129.056 145.08C129.212 145.095 129.364 145.142 129.501 145.218C129.639 145.293 129.759 145.396 129.856 145.52C130.146 145.911 130.276 146.398 130.218 146.882C130.16 147.366 129.919 147.809 129.544 148.12V148.12Z" fill="black"/>
<path opacity="0.1" d="M146.312 144C144.456 143.928 141.904 144.384 140.44 145.512C139.832 145.976 139.48 147.208 140.328 147.64C140.269 147.845 140.269 148.062 140.327 148.267C140.385 148.472 140.499 148.657 140.656 148.8C141.042 149.137 141.545 149.309 142.056 149.28C142.008 149.784 142.744 150.232 143.56 150.216C144.68 150.216 144.992 149.84 147.064 150.272C148.162 150.519 149.166 151.075 149.96 151.872C150.645 149.755 151.109 147.573 151.344 145.36C149.772 144.581 148.062 144.119 146.312 144V144Z" fill="black"/>
<path d="M151.624 144.12C149.972 143.272 148.165 142.771 146.312 142.648C144.456 142.568 141.904 143.032 140.44 144.16C139.832 144.624 139.48 145.856 140.328 146.288C140.269 146.493 140.269 146.71 140.327 146.915C140.385 147.12 140.499 147.304 140.656 147.448C141.044 147.782 141.545 147.954 142.056 147.928C142.008 148.432 142.744 148.88 143.56 148.864C144.68 148.864 144.992 148.488 147.064 148.92C148.335 149.204 149.478 149.895 150.32 150.888L154.056 145.128C153.214 144.874 152.399 144.537 151.624 144.12V144.12Z" fill="#455A64"/>
<path d="M143.952 146.608C143.664 146.47 143.344 146.412 143.026 146.44C142.708 146.468 142.403 146.581 142.144 146.768C141.962 146.89 141.809 147.051 141.697 147.239C141.585 147.427 141.516 147.638 141.496 147.856C141.681 147.894 141.868 147.918 142.056 147.928C142.096 147.072 143.048 146.576 143.952 146.608Z" fill="#37474F"/>
<path d="M139.912 145.848C139.992 146.041 140.14 146.198 140.328 146.288C140.459 145.998 140.663 145.746 140.919 145.557C141.176 145.368 141.476 145.248 141.792 145.208C141.45 145.145 141.098 145.171 140.768 145.283C140.439 145.395 140.144 145.589 139.912 145.848V145.848Z" fill="#37474F"/>
<path opacity="0.1" d="M161.48 141.272C161.192 137.112 160.44 133.672 160.096 130.936L156.096 132.048L148.096 134.272L147.384 134.448L145.528 134.76C144.22 134.882 142.923 135.101 141.648 135.416H141.368C140.858 135.434 140.352 135.52 139.864 135.672C139.609 135.797 139.364 135.938 139.128 136.096C139.656 136.752 141.648 138.864 146.04 139.824C151.272 140.976 156.824 139.224 156.824 139.224C157.28 140.018 157.978 140.644 158.816 141.013C159.653 141.381 160.587 141.472 161.48 141.272V141.272Z" fill="black"/>
<path d="M152.304 114.952C151.92 113.52 150.128 112.896 147.264 112.84C145 112.792 142.84 113.48 139.504 111.984C136.168 110.488 133.408 111.184 132.504 114.544C131.6 117.904 132.368 122.032 136.032 123.464C139.424 124.792 144.936 124.112 148.032 121.992C151.128 119.872 152.304 114.952 152.304 114.952Z" fill="#37474F"/>
<path d="M142.4 113.528C142.476 113.312 142.532 113.09 142.568 112.864C141.505 112.729 140.469 112.432 139.496 111.984C136.152 110.48 133.4 111.184 132.504 114.544C132.194 115.69 132.094 116.883 132.208 118.064C132.867 118.464 133.603 118.721 134.368 118.816C134.671 118.876 134.984 118.862 135.28 118.776C135.577 118.69 135.848 118.533 136.072 118.32C136.56 117.728 136.384 116.72 136.872 116.184C137.36 115.648 138.472 115.768 139.344 115.728C140.009 115.688 140.649 115.459 141.19 115.07C141.731 114.681 142.15 114.146 142.4 113.528V113.528Z" fill="#FFF0E1"/>
<path opacity="0.4" d="M142.4 113.528C142.476 113.312 142.532 113.09 142.568 112.864C141.505 112.729 140.469 112.432 139.496 111.984C136.152 110.48 133.4 111.184 132.504 114.544C132.194 115.69 132.094 116.883 132.208 118.064C132.867 118.464 133.603 118.721 134.368 118.816C134.671 118.876 134.984 118.862 135.28 118.776C135.577 118.69 135.848 118.533 136.072 118.32C136.56 117.728 136.384 116.72 136.872 116.184C137.36 115.648 138.472 115.768 139.344 115.728C140.009 115.688 140.649 115.459 141.19 115.07C141.731 114.681 142.15 114.146 142.4 113.528V113.528Z" fill="black"/>
<path d="M161.36 121.344C159.76 117.896 158.856 117.128 154.408 115.56C149.96 113.992 147.208 114.168 143.312 116.576C140.848 118.096 139.856 122.128 139.856 122.128C139.069 122.23 138.31 122.488 137.623 122.887C136.937 123.285 136.336 123.816 135.856 124.448C134.136 127.088 135.448 131.792 136.56 133.376C138.371 135.914 141.079 137.667 144.136 138.28C149.856 139.448 154.472 139.08 157.344 136.16C160.944 132.52 162.528 123.856 161.36 121.344Z" fill="#455A64"/>
<path d="M160.52 126.936C160.601 126.528 160.638 126.112 160.632 125.696C160.632 124.384 160.336 122.632 159.448 121.632C158.76 120.61 157.764 119.833 156.604 119.416C155.444 118.999 154.182 118.963 153 119.312C151.573 119.606 150.306 120.422 149.448 121.6C148.648 122.808 148.392 124.192 149.512 125.264C149.937 125.61 150.337 125.984 150.712 126.384C151.224 127.032 151.44 127.88 151.92 128.552C152.463 129.289 153.243 129.817 154.128 130.048C155.006 130.276 155.922 130.317 156.816 130.168C157.386 130.133 157.944 129.983 158.454 129.726C158.964 129.468 159.417 129.11 159.784 128.672C160.148 128.152 160.399 127.56 160.52 126.936V126.936Z" fill="#FFF0E1"/>
<path opacity="0.3" d="M160.52 126.936C160.601 126.528 160.638 126.112 160.632 125.696C160.632 124.384 160.336 122.632 159.448 121.632C158.76 120.61 157.764 119.833 156.604 119.416C155.444 118.999 154.182 118.963 153 119.312C151.573 119.606 150.306 120.422 149.448 121.6C148.648 122.808 148.392 124.192 149.512 125.264C149.937 125.61 150.337 125.984 150.712 126.384C151.224 127.032 151.44 127.88 151.92 128.552C152.463 129.289 153.243 129.817 154.128 130.048C155.006 130.276 155.922 130.317 156.816 130.168C157.386 130.133 157.944 129.983 158.454 129.726C158.964 129.468 159.417 129.11 159.784 128.672C160.148 128.152 160.399 127.56 160.52 126.936V126.936Z" fill="black"/>
<path d="M153.36 123.8C153.362 124.062 153.285 124.318 153.141 124.536C152.996 124.755 152.79 124.925 152.549 125.026C152.307 125.127 152.041 125.154 151.784 125.103C151.528 125.052 151.292 124.927 151.107 124.741C150.922 124.556 150.796 124.32 150.745 124.064C150.694 123.807 150.721 123.541 150.822 123.299C150.923 123.058 151.093 122.852 151.312 122.707C151.53 122.563 151.786 122.486 152.048 122.488C152.395 122.49 152.728 122.629 152.973 122.875C153.219 123.12 153.358 123.453 153.36 123.8V123.8Z" fill="#263238"/>
<path d="M144.064 121.344C144.064 121.604 143.987 121.857 143.843 122.073C143.699 122.289 143.494 122.457 143.254 122.556C143.014 122.656 142.751 122.682 142.496 122.631C142.242 122.58 142.008 122.455 141.824 122.272C141.641 122.088 141.516 121.855 141.465 121.6C141.415 121.346 141.441 121.082 141.54 120.842C141.639 120.602 141.807 120.398 142.023 120.253C142.239 120.109 142.493 120.032 142.752 120.032C143.1 120.032 143.434 120.17 143.68 120.417C143.926 120.663 144.064 120.996 144.064 121.344V121.344Z" fill="#263238"/>
<path d="M140.888 132.152H140.8C140.759 132.144 140.721 132.129 140.686 132.106C140.652 132.083 140.622 132.054 140.599 132.02C140.576 131.986 140.56 131.947 140.552 131.907C140.544 131.866 140.544 131.825 140.552 131.784L141.136 128.752C141.152 128.67 141.2 128.598 141.269 128.552C141.338 128.505 141.422 128.488 141.504 128.504C141.586 128.52 141.658 128.568 141.704 128.637C141.751 128.706 141.768 128.79 141.752 128.872L141.168 131.904C141.153 131.97 141.118 132.029 141.068 132.073C141.018 132.118 140.955 132.145 140.888 132.152V132.152Z" fill="#263238"/>
<path d="M142.768 125.208C141.168 124.72 139.928 124.8 139.624 125.4C139.136 126.408 139.864 127.88 140.368 128.464C140.65 128.713 140.98 128.901 141.338 129.016C141.696 129.13 142.074 129.168 142.448 129.128C143.352 129.032 144.8 128.448 145.072 127.528C145.344 126.608 144.488 125.736 142.768 125.208Z" fill="#263238"/>
<path d="M140.24 125.328C140.028 125.455 139.87 125.656 139.796 125.892C139.722 126.128 139.738 126.383 139.84 126.608C140.024 126.936 140.344 125.712 141.216 125.712C142.209 125.815 143.166 126.14 144.016 126.664C144.56 127.016 144.576 126.376 143.496 125.864C142.176 125.16 140.928 124.968 140.24 125.328Z" fill="#37474F"/>
<path d="M142.816 132.448C142.624 132.448 142.44 132.448 142.248 132.448C141.682 132.441 141.122 132.322 140.602 132.098C140.082 131.874 139.611 131.55 139.216 131.144C139.165 131.078 139.142 130.995 139.153 130.912C139.163 130.83 139.206 130.755 139.272 130.704C139.338 130.653 139.421 130.63 139.504 130.641C139.586 130.651 139.661 130.694 139.712 130.76C140.409 131.426 141.332 131.804 142.296 131.816C142.92 131.9 143.554 131.857 144.16 131.689C144.766 131.522 145.332 131.233 145.824 130.84C145.854 130.812 145.889 130.79 145.928 130.775C145.966 130.76 146.007 130.753 146.049 130.754C146.09 130.755 146.13 130.764 146.168 130.781C146.206 130.798 146.24 130.822 146.268 130.852C146.296 130.882 146.319 130.917 146.333 130.956C146.348 130.994 146.355 131.035 146.354 131.077C146.353 131.118 146.344 131.158 146.327 131.196C146.31 131.234 146.286 131.268 146.256 131.296C145.292 132.094 144.066 132.504 142.816 132.448V132.448Z" fill="#263238"/>
<path d="M158.784 117.6C160.544 117.8 164.048 118.632 165.128 120.304C166.208 121.976 169.632 127.56 168.696 132.8C168.399 134.723 167.405 136.469 165.903 137.705C164.401 138.942 162.496 139.582 160.552 139.504C157.688 139.216 155.928 137.904 157.352 133.776C158.776 129.648 159.856 123.84 158.808 121.072C157.864 118.544 156.8 117.392 158.784 117.6Z" fill="#37474F"/>
<path d="M167.344 124.464C166.614 125.527 165.626 126.386 164.472 126.96C163.922 127.174 163.4 127.457 162.92 127.8C162.682 127.975 162.501 128.217 162.398 128.494C162.296 128.771 162.277 129.072 162.344 129.36C162.584 130.056 163.416 130.304 164.12 130.504C164.824 130.704 165.648 131.12 165.656 131.856C165.656 132.384 165.232 132.832 165.192 133.36C165.202 133.55 165.25 133.736 165.335 133.906C165.419 134.077 165.538 134.228 165.684 134.35C165.83 134.473 165.999 134.564 166.181 134.618C166.364 134.672 166.555 134.687 166.744 134.664C167.457 134.537 168.095 134.142 168.528 133.56C168.592 133.32 168.648 133.08 168.696 132.824C169.216 129.896 168.376 126.864 167.344 124.464Z" fill="#FFF0E1"/>
<path opacity="0.4" d="M167.344 124.464C166.614 125.527 165.626 126.386 164.472 126.96C163.922 127.174 163.4 127.457 162.92 127.8C162.682 127.975 162.501 128.217 162.398 128.494C162.296 128.771 162.277 129.072 162.344 129.36C162.584 130.056 163.416 130.304 164.12 130.504C164.824 130.704 165.648 131.12 165.656 131.856C165.656 132.384 165.232 132.832 165.192 133.36C165.202 133.55 165.25 133.736 165.335 133.906C165.419 134.077 165.538 134.228 165.684 134.35C165.83 134.473 165.999 134.564 166.181 134.618C166.364 134.672 166.555 134.687 166.744 134.664C167.457 134.537 168.095 134.142 168.528 133.56C168.592 133.32 168.648 133.08 168.696 132.824C169.216 129.896 168.376 126.864 167.344 124.464Z" fill="black"/>
<path d="M129.544 148.12C124.832 150.184 120.336 152.48 119.48 155.184C118.624 157.888 120.92 158.512 120.92 158.512C120.92 158.512 118.568 158.4 118.568 156.248C118.568 154.096 120.52 150.76 129.544 148.12Z" fill="#37474F"/>
<path d="M132.992 150.4C133.52 150.328 134.488 149.968 134.592 149.328C134.648 148.888 134.264 148.8 133.896 148.808C133.384 148.824 132.891 149.004 132.488 149.32C131.856 149.856 132.232 150.504 132.992 150.4Z" fill="#37474F"/>
<path d="M133.832 152C134.368 152 135.384 151.848 135.576 151.2C135.704 150.776 135.352 150.624 134.984 150.56C134.479 150.48 133.963 150.567 133.512 150.808C132.8 151.248 133.072 151.952 133.832 152Z" fill="#37474F"/>
<path d="M130.6 149.6C131.096 149.6 132.016 149.336 132.144 148.76C132.24 148.36 131.896 148.24 131.56 148.216C131.086 148.179 130.614 148.3 130.216 148.56C129.6 148.984 129.896 149.6 130.6 149.6Z" fill="#37474F"/>
<path d="M131.056 150.712C130.496 150.184 129.68 149.712 127.216 150.416C124.752 151.12 123.896 152.256 124.488 152.776C125.36 153.528 126.792 152.352 126.464 154.104C126.28 155.096 127.592 155.832 129.824 154.104C132.056 152.376 131.672 151.288 131.056 150.712Z" fill="#37474F"/>
<path d="M126.4 146.096C126.928 146.032 127.896 145.672 128 145.024C128.056 144.592 127.672 144.504 127.304 144.504C126.792 144.52 126.299 144.699 125.896 145.016C125.288 145.552 125.664 146.192 126.4 146.096Z" fill="#37474F"/>
<path d="M127.264 147.68C127.8 147.68 128.808 147.528 129.008 146.88C129.136 146.464 128.784 146.304 128.416 146.248C127.909 146.17 127.39 146.257 126.936 146.496C126.24 146.936 126.504 147.64 127.264 147.68Z" fill="#37474F"/>
<path d="M124 145.28C124.496 145.28 125.416 145.024 125.544 144.48C125.64 144.08 125.296 143.968 124.96 143.936C124.487 143.903 124.015 144.023 123.616 144.28C123.04 144.672 123.328 145.296 124 145.28Z" fill="#37474F"/>
<path d="M124.488 146.4C123.928 145.88 123.112 145.4 120.648 146.104C118.184 146.808 117.328 147.952 117.92 148.504C118.792 149.256 120.224 148.08 119.896 149.832C119.712 150.832 121.024 151.56 123.256 149.832C125.488 148.104 125.096 146.976 124.488 146.4Z" fill="#37474F"/>
<path d="M114.192 168.232C114.117 168.363 114.007 168.47 113.874 168.54C113.741 168.611 113.59 168.643 113.44 168.632C108.216 168.224 101.216 163.832 98.4 157.752C95.512 151.48 97.84 144.152 98.872 144.056C99.904 143.96 97.824 148.168 99.008 153.456C100.096 158.32 104.608 164.36 113.584 165.84C113.729 165.861 113.865 165.922 113.978 166.015C114.091 166.108 114.176 166.23 114.224 166.368C114.457 166.97 114.446 167.639 114.192 168.232Z" fill="#37474F"/>
<path opacity="0.1" d="M160.144 155.608C159.344 155.456 158.904 155.848 158.056 156.496C157.208 157.144 156.184 157.928 155.456 158.528C152.916 160.643 149.823 161.987 146.544 162.4C145.124 162.627 143.683 162.694 142.248 162.6C141.929 162.602 141.615 162.53 141.328 162.392C141.041 162.253 140.789 162.051 140.592 161.8C140.47 161.505 140.413 161.187 140.425 160.868C140.438 160.549 140.519 160.237 140.664 159.952C141.13 158.774 141.499 157.559 141.768 156.32C141.944 155.256 142.048 153.032 141.072 152.272C140.871 152.146 140.636 152.086 140.399 152.1C140.162 152.115 139.936 152.203 139.752 152.352C139.283 152.79 138.874 153.288 138.536 153.832C137.366 155.311 136.297 156.866 135.336 158.488C134.897 157.327 134.133 156.316 133.136 155.576C136.072 153.416 135.888 152.104 135.888 152.104C134.288 154.44 130.56 155.528 130.56 155.528C131.577 156.026 132.441 156.789 133.061 157.736C133.68 158.684 134.032 159.781 134.08 160.912C133.588 162.016 132.968 163.058 132.232 164.016C130.799 165.66 128.938 166.873 126.856 167.52C125.392 168.016 118.272 168.696 111.84 169.232C113.048 171.192 115.096 173.232 118.368 175.144C133.136 183.888 152.448 174.544 158.48 160.544C159.178 158.937 159.753 157.279 160.2 155.584L160.144 155.608Z" fill="black"/>
<path d="M104.992 189.056C109.2 188.416 113.384 187.568 117.528 186.576C127.488 184.176 137.696 181.032 146.808 176.296C149.659 174.829 152.371 173.108 154.912 171.152C156.172 170.281 157.284 169.214 158.208 167.992C159.116 166.685 159.898 165.295 160.544 163.84C161.371 161.987 161.736 159.961 161.608 157.936C161.552 157.32 161.32 156.584 160.712 156.472C159.912 156.328 159.416 157.384 158.96 157.872C158.336 158.572 157.668 159.232 156.96 159.848C154.415 161.955 151.325 163.297 148.048 163.72C146.628 163.946 145.187 164.013 143.752 163.92C143.433 163.921 143.119 163.849 142.832 163.711C142.545 163.572 142.293 163.37 142.096 163.12C141.974 162.825 141.917 162.507 141.929 162.188C141.942 161.869 142.023 161.557 142.168 161.272C142.635 160.094 143.004 158.879 143.272 157.64C143.448 156.584 143.552 154.352 142.576 153.6C142.375 153.474 142.14 153.414 141.903 153.428C141.666 153.443 141.44 153.531 141.256 153.68C140.783 154.114 140.374 154.612 140.04 155.16C138.748 156.754 137.585 158.447 136.56 160.224C135.624 161.944 134.96 163.824 133.704 165.344C132.273 166.988 130.411 168.199 128.328 168.84C125.928 169.64 108.048 170.984 103.336 171.328L91.9999 147.2C91.9999 147.2 86.0079 128.544 76.1119 126.744C70.9439 129.672 69.4319 132.216 68.6719 137.944C67.9119 143.672 70.1279 148.528 72.6719 156.264C75.2159 164 87.2639 182.512 90.6639 186.2C94.0639 189.888 95.8639 189.888 101.624 189.504C102.752 189.384 103.872 189.224 104.992 189.056Z" fill="#FFA8A7"/>
<path d="M253.48 253.232L187.664 215.232L121.848 253.232L187.664 291.232L253.48 253.232Z" fill="#FFF0E1"/>
<path opacity="0.4" d="M253.48 253.232L187.664 215.232L121.848 253.232L187.664 291.232L253.48 253.232Z" fill="white"/>
<path opacity="0.1" d="M253.48 253.232L187.664 215.232L121.848 253.232L187.664 291.232L253.48 253.232Z" fill="black"/>
<path opacity="0.1" d="M187.664 270.504V215.232L121.848 253.232V308.504L187.664 270.504Z" fill="black"/>
<path opacity="0.2" d="M187.664 270.504L121.848 308.504L187.664 346.504L253.48 308.504L187.664 270.504Z" fill="black"/>
<path d="M221.136 144.664C218.152 143.744 216.552 144.272 213.936 146.488C211.32 148.704 210.64 149.264 210.4 152C210.16 154.736 210.968 160.544 213.928 159.632C216.888 158.72 221.136 144.664 221.136 144.664Z" fill="#37474F"/>
<path d="M186.4 229.872C185.848 236.096 190.456 249.928 190.008 253.376C189.56 256.824 186.976 262.752 185.152 265.624C183.552 268.168 183.096 269.344 185.152 274.528C187.208 279.712 191.112 287.328 191.992 288.88C192.872 290.432 195.64 289.528 198.392 288.448C201.144 287.368 204.792 285.128 202.584 282.52C201.56 281.304 195.568 283.32 195.568 283.32C195.568 283.32 192.584 274.52 193.088 271.552C193.592 268.584 201.344 262.088 205.408 255.928C209.472 249.768 204.016 231.736 204.016 231.736L186.4 229.872Z" fill="#FFF0E1"/>
<path opacity="0.55" d="M186.4 229.872C185.848 236.096 190.456 249.928 190.008 253.376C189.56 256.824 186.976 262.752 185.152 265.624C183.552 268.168 183.096 269.344 185.152 274.528C187.208 279.712 191.112 287.328 191.992 288.88C192.872 290.432 195.64 289.528 198.392 288.448C201.144 287.368 204.792 285.128 202.584 282.52C201.56 281.304 195.568 283.32 195.568 283.32C195.568 283.32 192.584 274.52 193.088 271.552C193.592 268.584 201.344 262.088 205.408 255.928C209.472 249.768 204.016 231.736 204.016 231.736L186.4 229.872Z" fill="black"/>
<path d="M234.232 185.648C234.096 185.08 233.944 184.536 233.784 184.048C234.744 187.584 231.168 197.352 224.512 204.848C217.856 212.344 220.76 218.128 222.504 226.152C221.456 220.64 221.784 218.848 223.36 214.328C226.528 205.272 236.856 204.848 234.232 185.648Z" fill="#FFF0E1"/>
<path d="M257.384 171.56C253.024 169.048 250.184 170.608 246.584 174.36C243.974 177.248 240.984 179.77 237.696 181.856C237.2 178.536 236.528 175.376 236.424 173.808C236.216 170.8 236.352 167.632 238.352 165.304C240.352 162.976 241.2 161.608 243.6 159.832C244.486 159.2 245.308 158.485 246.056 157.696C246.768 156.896 248.12 155.016 247.472 153.912C246.226 154.898 244.668 155.403 243.08 155.336C242.433 155.264 241.818 155.021 241.296 154.632C241.253 154.609 241.217 154.576 241.19 154.535C241.164 154.495 241.148 154.448 241.144 154.4C241.144 154.28 241.28 154.216 241.392 154.176C241.791 154.06 242.197 153.972 242.608 153.912C243.852 153.714 245.031 153.223 246.048 152.48C246.763 151.918 247.288 151.15 247.552 150.28C247.752 149.576 247.592 149.48 247.552 148.776C247.505 148.213 247.376 147.661 247.168 147.136C246.576 145.72 245.344 145.344 244.024 144.736C241.024 143.272 239.984 144.896 235.696 145.344C232.496 145.68 225.064 142.024 219.32 145.648C213.064 149.592 212.656 156.048 211.464 162.4C211.2 163.809 210.823 165.195 210.336 166.544C208.472 170.712 206.392 171.544 203.736 180.144C199.808 192.752 200.744 199.632 193.872 209.184C187.688 217.8 186.04 224.384 186.024 229.08C186.024 237.08 187.432 239.224 193.944 244.84C198.648 248.888 200.888 249.576 205.48 256C206.968 258.072 207.08 266.264 205.976 269.952C204.872 273.64 203.888 275.48 204.992 278.376C206.096 281.272 211.304 293.352 213.2 296.296C215.096 299.24 217.2 298.488 223.504 296.592C229.696 294.744 226.752 290.848 224.536 291.096C222.65 291.366 220.78 291.743 218.936 292.224C218.936 292.224 214.408 281.576 214.416 278.96C214.424 276.344 219.8 265.464 224.064 259.72C228.328 253.976 226.688 244.84 224.064 233.224C221.44 221.608 221.312 220.424 223.416 214.408C225.416 208.696 230.264 206.408 232.912 200.696C236.2 199.256 239.312 197.856 240.536 196.152C243.032 192.696 248.2 184.072 250.352 181.16C253.256 177.224 255.264 174.944 258.352 176.048C261.176 177.064 261.552 176.368 261.552 176.368C261.872 174.776 259.928 173.032 257.384 171.56Z" fill="#FFF0E1"/>
<path opacity="0.4" d="M257.384 171.56C253.024 169.048 250.184 170.608 246.584 174.36C243.974 177.248 240.984 179.77 237.696 181.856C237.2 178.536 236.528 175.376 236.424 173.808C236.216 170.8 236.352 167.632 238.352 165.304C240.352 162.976 241.2 161.608 243.6 159.832C244.486 159.2 245.308 158.485 246.056 157.696C246.768 156.896 248.12 155.016 247.472 153.912C246.226 154.898 244.668 155.403 243.08 155.336C242.433 155.264 241.818 155.021 241.296 154.632C241.253 154.609 241.217 154.576 241.19 154.535C241.164 154.495 241.148 154.448 241.144 154.4C241.144 154.28 241.28 154.216 241.392 154.176C241.791 154.06 242.197 153.972 242.608 153.912C243.852 153.714 245.031 153.223 246.048 152.48C246.763 151.918 247.288 151.15 247.552 150.28C247.752 149.576 247.592 149.48 247.552 148.776C247.505 148.213 247.376 147.661 247.168 147.136C246.576 145.72 245.344 145.344 244.024 144.736C241.024 143.272 239.984 144.896 235.696 145.344C232.496 145.68 225.064 142.024 219.32 145.648C213.064 149.592 212.656 156.048 211.464 162.4C211.2 163.809 210.823 165.195 210.336 166.544C208.472 170.712 206.392 171.544 203.736 180.144C199.808 192.752 200.744 199.632 193.872 209.184C187.688 217.8 186.04 224.384 186.024 229.08C186.024 237.08 187.432 239.224 193.944 244.84C198.648 248.888 200.888 249.576 205.48 256C206.968 258.072 207.08 266.264 205.976 269.952C204.872 273.64 203.888 275.48 204.992 278.376C206.096 281.272 211.304 293.352 213.2 296.296C215.096 299.24 217.2 298.488 223.504 296.592C229.696 294.744 226.752 290.848 224.536 291.096C222.65 291.366 220.78 291.743 218.936 292.224C218.936 292.224 214.408 281.576 214.416 278.96C214.424 276.344 219.8 265.464 224.064 259.72C228.328 253.976 226.688 244.84 224.064 233.224C221.44 221.608 221.312 220.424 223.416 214.408C225.416 208.696 230.264 206.408 232.912 200.696C236.2 199.256 239.312 197.856 240.536 196.152C243.032 192.696 248.2 184.072 250.352 181.16C253.256 177.224 255.264 174.944 258.352 176.048C261.176 177.064 261.552 176.368 261.552 176.368C261.872 174.776 259.928 173.032 257.384 171.56Z" fill="black"/>
<path d="M223.36 214.328C221.76 218.848 221.456 220.64 222.504 226.152C220.8 218.4 218.024 212.8 223.904 205.6C225.84 203.656 229.448 202.136 232.856 200.648C230.208 206.336 225.36 208.624 223.36 214.328Z" fill="#FAFAFA"/>
<path d="M189.136 229.832C186.96 232.416 184.008 232.808 176.088 237.712C168.888 242.184 167.072 251.112 170.24 256.76C172.952 261.608 176 265.312 176.488 268.68C177.288 274.168 174.608 276.48 174.608 276.48C174.608 276.48 179.88 274.648 180.832 270.792C180.832 270.792 181.864 275.496 177.504 280.328C177.504 280.328 187.608 282.64 189.68 271.952C191.28 263.736 188.832 258.96 183.776 254.464C179.888 251.008 178.176 245.144 184 240.592C190.912 235.216 191.656 232.416 191.656 232.416C191.656 232.416 192.136 229.872 189.136 229.832Z" fill="#263238"/>
<path d="M246.592 152C247.858 152.02 249.072 152.507 250 153.368C250.64 153.992 252.688 157.752 251.48 159.048C250.272 160.344 247.2 159.464 246.6 156.648C246.6 156.648 242.008 157.2 240.48 155.376C238.952 153.552 241.12 152.752 243.168 152.488L246.592 152Z" fill="#F28F8F"/>
<path d="M247.472 153.912C247.472 153.912 245.688 155.432 246.08 156.608C246.4 156.608 246.6 156.608 246.6 156.608C246.751 157.377 247.131 158.082 247.688 158.632C248.275 159.125 249.026 159.379 249.792 159.344C251.392 159.208 250.592 157.912 250.144 156.416C249.696 154.92 248.312 153.6 247.472 153.912Z" fill="#874C4C"/>
<path d="M247.472 153.912C248.12 155.016 246.76 156.936 246.064 157.696C245.311 158.486 244.487 159.204 243.6 159.84C241.2 161.6 240.328 163.04 238.352 165.312C236.376 167.584 236.224 170.8 236.424 173.808C236.528 175.408 237.224 178.536 237.704 181.856C237.448 182.008 237.184 182.16 236.904 182.296C235.793 178.813 234.377 175.434 232.672 172.2C231.072 169.16 229.648 166.352 231.568 161.472C232.896 158.088 232.544 155.872 238.224 153.864C243.304 152.088 240.864 148.896 239.328 147.984C237.792 147.072 236.688 145.776 237.384 145.032C239.84 144.232 241.72 143.552 243.784 144.576C245.104 145.224 246.496 145.72 247.088 147.128C247.295 147.656 247.424 148.211 247.472 148.776C247.544 149.488 247.704 149.576 247.512 150.28C247.24 151.148 246.713 151.915 246 152.48C244.984 153.224 243.804 153.712 242.56 153.904C242.152 153.992 241.76 154.048 241.344 154.176C241.232 154.216 241.112 154.28 241.104 154.4C241.096 154.52 241.176 154.576 241.248 154.64C241.785 154.984 242.41 155.165 243.048 155.16C244.625 155.291 246.196 154.848 247.472 153.912V153.912Z" fill="#FAFAFA"/>
<path d="M243.248 145.664H243.208C243.048 145.485 242.871 145.322 242.68 145.176C242.398 145.064 242.106 144.981 241.808 144.928C241.592 144.856 241.32 144.64 241.376 144.368C241.376 144.216 241.536 144.144 241.672 144.072C242.102 143.776 242.59 143.577 243.104 143.488C243.73 143.466 244.352 143.6 244.912 143.88C246.512 144.6 247.224 145.04 247.568 145.584C247.912 146.128 247.344 147.984 247.344 147.984C247.341 147.702 247.264 147.426 247.12 147.184C246.704 146.224 245.408 146.248 244.544 146.16C244.074 146.121 243.624 145.949 243.248 145.664Z" fill="#263238"/>
<path opacity="0.1" d="M236.424 173.808C236.216 170.8 236.352 167.632 238.352 165.304C240.352 162.976 241.2 161.608 243.6 159.832C243.92 159.6 244.232 159.352 244.536 159.104C240.376 162 237.032 160.52 234.768 162.464C232.504 164.408 234.04 169.24 235.568 171.584C235.91 172.302 236.196 173.046 236.424 173.808Z" fill="black"/>
<path d="M226.208 154.032C227.16 152.704 231.424 149.584 233.328 148.824C235.232 148.064 238.64 152.52 238.632 156.168C238.624 159.816 236.096 166.872 233.288 166.68C230.48 166.488 227.64 156.048 226.328 157.28C225.016 158.512 224.472 156.44 226.208 154.032Z" fill="#37474F"/>
<path d="M187.664 346.504L253.48 308.504V253.232L187.664 291.232V346.504Z" fill="#FFF0E1"/>
<path opacity="0.6" d="M187.664 346.504L253.48 308.504V253.232L187.664 291.232V346.504Z" fill="#838181"/>
<path opacity="0.1" d="M187.664 291.232L199.584 315.368L253.48 284.32V253.232L187.664 291.232Z" fill="black"/>
<path d="M187.664 346.504L121.848 308.504V253.232L187.664 291.232V346.504Z" fill="#FFF0E1"/>
<path opacity="0.4" d="M187.664 346.504L121.848 308.504V253.232L187.664 291.232V346.504Z" fill="#838181"/>
<path opacity="0.1" d="M187.664 291.232L175.752 315.368L121.848 284.32V253.232L187.664 291.232Z" fill="black"/>
<path opacity="0.1" d="M126.336 296.32V302.768C126.397 303.876 126.719 304.955 127.275 305.915C127.831 306.876 128.605 307.691 129.536 308.296L144.096 316.704C145.864 317.72 147.296 316.896 147.296 314.864V308.408C147.234 307.301 146.912 306.225 146.356 305.265C145.8 304.306 145.026 303.492 144.096 302.888L129.536 294.48C127.768 293.464 126.336 294.288 126.336 296.32Z" fill="black"/>
<path d="M121.848 253.232L106.896 272.232L172.76 310.192L187.664 291.232L121.848 253.232Z" fill="#FFF0E1"/>
<path opacity="0.6" d="M121.848 253.232L106.896 272.232L172.76 310.192L187.664 291.232L121.848 253.232Z" fill="#B3B3B3"/>
<path d="M253.48 253.232L268.44 272.232L202.576 310.192L187.664 291.232L253.48 253.232Z" fill="#FFF0E1"/>
<path opacity="0.4" d="M253.48 253.232L268.44 272.232L202.576 310.192L187.664 291.232L253.48 253.232Z" fill="#B3B3B3"/>
<path d="M156.096 256.56C157.472 260.56 164 262.376 168.408 270.104C170.28 273.469 170.928 277.379 170.24 281.168L131.768 258.952L129.136 252.992L156.096 256.56Z" fill="#FFF0E1"/>
<path d="M117.24 265.904C117.312 264.072 118.416 261.616 119.848 259.592C122.154 256.451 125.411 254.136 129.136 252.992L138.056 258.592C128.528 258.272 125.256 263.288 124.368 266.088C123.76 268.016 123.248 269.512 122.12 269.512C121.832 269.534 121.546 269.446 121.319 269.267C121.092 269.087 120.941 268.829 120.896 268.544C120.75 268.713 120.557 268.836 120.341 268.896C120.126 268.956 119.897 268.951 119.685 268.882C119.472 268.813 119.284 268.682 119.145 268.507C119.007 268.331 118.923 268.119 118.904 267.896C118.708 267.997 118.484 268.031 118.267 267.992C118.05 267.953 117.852 267.843 117.704 267.68C117.507 267.433 117.363 267.147 117.283 266.841C117.203 266.535 117.189 266.216 117.24 265.904V265.904Z" fill="#FFF0E1"/>
<path d="M117.704 267.648C117.796 267.68 117.894 267.692 117.992 267.684C118.089 267.676 118.183 267.647 118.269 267.601C118.355 267.554 118.43 267.49 118.49 267.413C118.549 267.335 118.592 267.247 118.616 267.152C118.749 266.719 118.937 266.305 119.176 265.92C118.984 266.555 118.898 267.217 118.92 267.88C118.721 267.983 118.492 268.017 118.272 267.975C118.051 267.933 117.851 267.818 117.704 267.648V267.648Z" fill="white"/>
<path d="M119.584 268.8C119.822 268.776 120.045 268.676 120.221 268.515C120.397 268.353 120.516 268.139 120.56 267.904C120.633 267.476 120.815 267.073 121.088 266.736C120.924 267.31 120.86 267.908 120.896 268.504C120.728 268.673 120.516 268.791 120.283 268.844C120.051 268.896 119.808 268.881 119.584 268.8V268.8Z" fill="white"/>
<path d="M134.4 273.744C134.753 271.353 135.675 269.081 137.088 267.12C139.036 264.238 141.662 261.878 144.736 260.248V257.848C144.736 257.848 155.88 260.128 156.088 267.52C146.384 266.624 142.736 271.52 141.688 274.36C140.952 276.296 140.336 277.784 139.184 277.72C138.889 277.726 138.603 277.62 138.382 277.425C138.161 277.229 138.022 276.958 137.992 276.664C137.83 276.825 137.625 276.936 137.401 276.981C137.177 277.027 136.944 277.006 136.732 276.921C136.52 276.835 136.338 276.69 136.208 276.502C136.078 276.314 136.005 276.093 136 275.864C135.793 275.954 135.563 275.975 135.344 275.923C135.125 275.871 134.928 275.749 134.784 275.576C134.596 275.314 134.464 275.016 134.398 274.701C134.332 274.385 134.333 274.059 134.4 273.744V273.744Z" fill="#FFF0E1"/>
<path d="M134.776 275.56C134.869 275.598 134.968 275.616 135.068 275.614C135.168 275.612 135.267 275.589 135.358 275.547C135.448 275.505 135.53 275.445 135.596 275.37C135.663 275.295 135.713 275.207 135.744 275.112C135.904 274.676 136.119 274.262 136.384 273.88C136.148 274.518 136.021 275.192 136.008 275.872C135.797 275.964 135.562 275.983 135.339 275.926C135.116 275.87 134.918 275.741 134.776 275.56Z" fill="white"/>
<path d="M136.632 276.848C136.874 276.839 137.107 276.752 137.294 276.599C137.482 276.446 137.615 276.236 137.672 276C137.773 275.564 137.986 275.162 138.288 274.832C138.086 275.411 137.983 276.019 137.984 276.632C137.804 276.795 137.58 276.902 137.34 276.941C137.1 276.979 136.854 276.947 136.632 276.848V276.848Z" fill="white"/>
<path d="M129.152 252.992C128.576 253.184 127.992 253.408 127.416 253.656C130.496 256.74 134.247 259.07 138.376 260.464C142.568 261.872 148.824 262.696 154.376 260.688C155.544 260.262 156.599 259.572 157.456 258.672C156.966 258.145 156.564 257.542 156.264 256.888" fill="white"/>
<path d="M141.672 233.784C140.272 230.32 135.024 226.224 131 227.848C128.736 228.76 130.336 237.256 130.336 237.256C130.336 237.256 137.92 237.248 141.672 233.784Z" fill="white"/>
<path d="M138.296 235.792C135.727 236.712 133.025 237.207 130.296 237.256C130.296 237.256 128.696 228.76 130.96 227.848C132.488 227.504 136.32 229.52 138.296 235.792Z" fill="#FFA8A7"/>
<path d="M133.176 233.016C133.279 232.262 133.103 231.497 132.68 230.864C134.064 230.752 135.992 232.04 136.336 234.336C136.336 234.336 134.272 238.184 131.224 236.6C130.909 236.025 130.498 235.508 130.008 235.072C129.936 234.48 129.872 233.816 129.832 233.136C130.927 232.87 132.065 232.829 133.176 233.016V233.016Z" fill="#F28F8F"/>
<path d="M152 236.84C155.096 234.76 161.736 234.32 164.16 237.928C165.52 239.952 158.416 246.848 158.416 246.848C158.416 246.848 153.144 241.808 152 236.84Z" fill="white"/>
<path d="M153.648 240.4C155.896 243.688 158.408 246.848 158.408 246.848C158.408 246.848 165.512 239.952 164.152 237.928C163.112 236.8 158.816 236.32 153.648 240.4Z" fill="#FFA8A7"/>
<path d="M158.12 245.176C158.475 244.899 158.876 244.685 159.304 244.544C159.728 244.096 160.208 243.56 160.696 242.992C159.941 242.154 159.024 241.479 158 241.008C158.333 240.329 158.902 239.795 159.6 239.504C158.504 238.632 156.024 238.84 154.8 240.56C154.804 241.441 154.986 242.312 155.336 243.12C155.872 243.752 156.368 244.304 156.784 244.72C157.192 244.965 157.647 245.121 158.12 245.176V245.176Z" fill="#F28F8F"/>
<path d="M138.84 258.976C142.576 260.232 148.152 260.968 153.096 259.176C158.984 257.04 159.312 248.512 157.896 244.648C156.48 240.784 153.528 236.88 146.8 234.624C140.072 232.368 135.392 233.704 131.944 235.936C128.496 238.168 123.68 245.184 127.144 250.448C129.984 254.872 135.096 257.728 138.84 258.976Z" fill="#FFF0E1"/>
<path d="M138.872 258.088C131.408 255.584 131.808 250.96 133.696 249.056C135.584 247.152 138.704 246.656 142.272 247.824C145.84 248.992 148.024 251.328 148.4 253.992C148.776 256.656 146.328 260.592 138.872 258.088Z" fill="white"/>
<path d="M140.96 251.792L142.712 251.528C142.778 251.514 142.837 251.476 142.877 251.422C142.917 251.367 142.935 251.299 142.928 251.232C142.925 251.2 142.916 251.169 142.9 251.14C142.885 251.112 142.863 251.087 142.838 251.068C142.812 251.048 142.783 251.034 142.752 251.027C142.72 251.019 142.688 251.018 142.656 251.024L141.128 251.256L140 250.16C139.978 250.136 139.952 250.117 139.922 250.103C139.892 250.09 139.86 250.083 139.828 250.083C139.796 250.083 139.763 250.09 139.734 250.103C139.704 250.117 139.678 250.136 139.656 250.16C139.612 250.21 139.588 250.274 139.588 250.34C139.588 250.406 139.612 250.47 139.656 250.52L140.96 251.792Z" fill="#455A64"/>
<path d="M142.224 255.568C142.524 255.555 142.817 255.473 143.08 255.328C143.563 255.065 143.927 254.627 144.096 254.104C144.117 254.042 144.114 253.975 144.087 253.915C144.061 253.856 144.012 253.809 143.952 253.784C143.888 253.766 143.82 253.774 143.762 253.805C143.704 253.836 143.66 253.889 143.64 253.952C143.501 254.352 143.215 254.684 142.84 254.88C142.667 254.975 142.476 255.034 142.279 255.052C142.082 255.069 141.883 255.046 141.696 254.984C141.504 254.919 141.329 254.815 141.181 254.677C141.034 254.539 140.917 254.371 140.84 254.184C140.661 253.805 140.638 253.371 140.776 252.976L141.24 251.576C141.252 251.545 141.257 251.513 141.256 251.48C141.255 251.448 141.248 251.416 141.234 251.386C141.221 251.356 141.202 251.33 141.178 251.307C141.154 251.285 141.126 251.267 141.096 251.256C141.032 251.238 140.964 251.246 140.906 251.277C140.848 251.308 140.804 251.361 140.784 251.424L140.32 252.824C140.143 253.348 140.172 253.92 140.4 254.424C140.508 254.663 140.664 254.878 140.858 255.056C141.052 255.233 141.28 255.369 141.528 255.456C141.751 255.537 141.987 255.575 142.224 255.568V255.568Z" fill="#455A64"/>
<path d="M138.936 254.464C139.237 254.455 139.531 254.373 139.792 254.224C140.277 253.963 140.641 253.524 140.808 253L141.272 251.6C141.284 251.57 141.289 251.537 141.288 251.505C141.287 251.472 141.28 251.44 141.266 251.41C141.253 251.38 141.234 251.354 141.21 251.331C141.186 251.309 141.158 251.292 141.128 251.28C141.064 251.262 140.996 251.27 140.938 251.301C140.88 251.333 140.836 251.385 140.816 251.448L140.352 252.848C140.213 253.248 139.927 253.58 139.552 253.776C139.379 253.871 139.188 253.93 138.991 253.948C138.794 253.966 138.596 253.943 138.408 253.88C138.024 253.738 137.712 253.449 137.539 253.078C137.367 252.706 137.348 252.281 137.488 251.896C137.501 251.866 137.507 251.833 137.507 251.8C137.506 251.767 137.499 251.735 137.486 251.705C137.472 251.675 137.452 251.648 137.428 251.626C137.404 251.604 137.375 251.587 137.344 251.576C137.28 251.558 137.212 251.566 137.154 251.597C137.096 251.629 137.052 251.681 137.032 251.744C136.85 252.254 136.876 252.814 137.104 253.305C137.331 253.795 137.742 254.177 138.248 254.368C138.469 254.444 138.703 254.477 138.936 254.464Z" fill="#455A64"/>
<path d="M133.736 244C133.648 244.328 133.658 244.674 133.765 244.996C133.872 245.318 134.07 245.602 134.337 245.813C134.603 246.023 134.925 246.151 135.263 246.18C135.602 246.209 135.941 246.138 136.239 245.977C136.538 245.815 136.782 245.57 136.943 245.27C137.103 244.971 137.172 244.632 137.142 244.294C137.111 243.956 136.982 243.634 136.771 243.369C136.559 243.103 136.275 242.905 135.952 242.8C135.728 242.732 135.492 242.71 135.259 242.734C135.026 242.758 134.8 242.827 134.594 242.939C134.388 243.05 134.206 243.202 134.059 243.384C133.912 243.566 133.802 243.775 133.736 244Z" fill="#455A64"/>
<path d="M151.368 249.944C151.24 250.257 151.024 250.526 150.745 250.718C150.467 250.91 150.138 251.017 149.8 251.024C149.462 251.032 149.129 250.941 148.842 250.762C148.555 250.583 148.326 250.324 148.184 250.017C148.043 249.709 147.994 249.368 148.043 249.033C148.093 248.698 148.24 248.386 148.465 248.133C148.69 247.881 148.984 247.7 149.311 247.612C149.637 247.524 149.983 247.534 150.304 247.64C150.526 247.72 150.73 247.844 150.904 248.003C151.078 248.163 151.218 248.356 151.317 248.57C151.416 248.784 151.472 249.016 151.48 249.252C151.489 249.488 151.451 249.723 151.368 249.944Z" fill="#455A64"/>
<path d="M156.136 252.632C156.235 252.625 156.327 252.579 156.392 252.504C157.17 251.524 158.231 250.808 159.431 250.455C160.631 250.101 161.911 250.127 163.096 250.528C163.143 250.541 163.192 250.545 163.24 250.54C163.288 250.534 163.335 250.519 163.377 250.495C163.42 250.471 163.457 250.439 163.487 250.401C163.517 250.363 163.539 250.319 163.552 250.272C163.57 250.227 163.578 250.179 163.577 250.13C163.576 250.082 163.565 250.034 163.544 249.99C163.524 249.946 163.495 249.906 163.46 249.874C163.424 249.841 163.382 249.816 163.336 249.8C159.848 248.64 157.352 250.352 155.88 251.992C155.81 252.064 155.771 252.16 155.771 252.26C155.771 252.36 155.81 252.456 155.88 252.528C155.914 252.561 155.954 252.588 155.998 252.605C156.042 252.623 156.089 252.632 156.136 252.632Z" fill="#455A64"/>
<path d="M156.936 253.552C157.004 253.548 157.071 253.526 157.128 253.488C157.812 253.103 158.569 252.867 159.351 252.794C160.132 252.721 160.92 252.813 161.664 253.064C161.709 253.082 161.757 253.09 161.806 253.089C161.854 253.088 161.902 253.077 161.946 253.056C161.99 253.036 162.03 253.007 162.062 252.972C162.095 252.936 162.12 252.894 162.136 252.848C162.177 252.758 162.18 252.655 162.146 252.562C162.112 252.469 162.042 252.394 161.952 252.352C161.1 252.06 160.195 251.953 159.298 252.038C158.402 252.124 157.533 252.4 156.752 252.848C156.669 252.905 156.611 252.991 156.589 253.089C156.567 253.186 156.582 253.289 156.632 253.376C156.661 253.43 156.705 253.476 156.759 253.507C156.813 253.538 156.874 253.554 156.936 253.552V253.552Z" fill="#455A64"/>
<path d="M162.536 256.56C162.591 256.559 162.644 256.546 162.693 256.521C162.742 256.496 162.784 256.46 162.816 256.416C162.879 256.338 162.91 256.24 162.902 256.14C162.895 256.04 162.85 255.947 162.776 255.88C161.881 255.108 160.813 254.563 159.662 254.293C158.512 254.023 157.313 254.035 156.168 254.328C156.074 254.363 155.995 254.431 155.948 254.519C155.901 254.608 155.888 254.711 155.912 254.808C155.924 254.855 155.945 254.898 155.974 254.936C156.004 254.975 156.04 255.007 156.082 255.031C156.124 255.054 156.17 255.07 156.218 255.075C156.265 255.081 156.314 255.077 156.36 255.064C157.391 254.799 158.471 254.79 159.507 255.037C160.543 255.283 161.503 255.779 162.304 256.48C162.368 256.536 162.451 256.564 162.536 256.56Z" fill="#455A64"/>
<path d="M129.04 243.64C129.137 243.621 129.224 243.566 129.283 243.486C129.342 243.406 129.37 243.307 129.36 243.208C129.16 241.008 128.184 238.136 124.704 236.952C124.609 236.927 124.509 236.939 124.423 236.986C124.337 237.033 124.272 237.11 124.242 237.203C124.211 237.296 124.217 237.397 124.258 237.486C124.3 237.574 124.373 237.644 124.464 237.68C125.648 238.077 126.682 238.826 127.428 239.827C128.174 240.828 128.597 242.032 128.64 243.28C128.638 243.331 128.648 243.382 128.668 243.429C128.688 243.477 128.718 243.519 128.756 243.553C128.794 243.587 128.839 243.613 128.888 243.628C128.937 243.643 128.989 243.647 129.04 243.64Z" fill="#455A64"/>
<path d="M127.848 243.896H127.968C128.061 243.857 128.136 243.784 128.177 243.692C128.219 243.6 128.224 243.496 128.192 243.4C127.834 242.571 127.304 241.828 126.638 241.219C125.972 240.609 125.185 240.148 124.328 239.864C124.229 239.839 124.125 239.853 124.037 239.905C123.949 239.957 123.885 240.041 123.86 240.14C123.835 240.239 123.849 240.343 123.901 240.431C123.953 240.519 124.037 240.583 124.136 240.608C124.881 240.857 125.567 241.259 126.148 241.788C126.729 242.317 127.194 242.961 127.512 243.68C127.539 243.746 127.585 243.803 127.645 243.842C127.706 243.88 127.776 243.899 127.848 243.896Z" fill="#455A64"/>
<path d="M127.48 245.52C127.557 245.52 127.631 245.491 127.688 245.44C127.768 245.378 127.821 245.288 127.836 245.188C127.85 245.088 127.826 244.986 127.768 244.904C127.033 243.98 126.085 243.247 125.006 242.767C123.926 242.288 122.747 242.077 121.568 242.152C121.468 242.162 121.376 242.21 121.311 242.286C121.245 242.362 121.211 242.46 121.216 242.56C121.215 242.608 121.223 242.655 121.241 242.699C121.259 242.743 121.285 242.783 121.319 242.817C121.353 242.851 121.393 242.877 121.437 242.895C121.481 242.912 121.528 242.921 121.576 242.92V242.92C122.638 242.847 123.703 243.032 124.678 243.459C125.653 243.887 126.51 244.545 127.176 245.376C127.21 245.424 127.256 245.462 127.309 245.488C127.362 245.513 127.421 245.524 127.48 245.52V245.52Z" fill="#455A64"/>
<path d="M136.648 234.056C136.32 232.552 134.896 230.704 133.504 230.704C133.875 231.368 133.992 232.144 133.832 232.888C133.832 232.888 130.28 231.952 129.032 233.608C129.65 233.81 130.206 234.165 130.651 234.638C131.095 235.112 131.414 235.691 131.576 236.32C134.448 238.128 136.648 234.056 136.648 234.056Z" fill="#FFF0E1"/>
<path d="M155.2 240.552C156.4 239.576 158.4 239.336 159.504 240.208C158.806 240.499 158.237 241.033 157.904 241.712C157.904 241.712 161.264 243.2 161.24 245.296C160.686 245.095 160.088 245.047 159.509 245.158C158.93 245.27 158.392 245.536 157.952 245.928C154.528 245.52 155.2 240.552 155.2 240.552Z" fill="#FFF0E1"/>
<path d="M199.392 268.68C199.373 268.824 199.325 268.963 199.252 269.088C199.179 269.214 199.082 269.324 198.966 269.412C198.851 269.5 198.719 269.564 198.579 269.601C198.438 269.638 198.292 269.647 198.148 269.628C198.004 269.609 197.865 269.561 197.74 269.488C197.614 269.415 197.504 269.318 197.416 269.202C197.328 269.087 197.264 268.955 197.227 268.815C197.19 268.674 197.181 268.528 197.2 268.384C197.616 265.24 196.448 262.872 194 261.904C192.64 261.418 191.158 261.393 189.782 261.834C188.407 262.275 187.215 263.157 186.392 264.344C185.024 266.24 185.144 268.44 185.28 270.992C185.456 274.192 185.648 277.808 182.736 281.328C181.106 283.118 178.948 284.342 176.576 284.824L173.52 283.064C176.312 282.88 179.408 281.888 181.032 279.92C183.432 277.064 183.24 274.168 183.072 271.12C182.928 268.4 182.776 265.592 184.592 263.064C185.706 261.48 187.312 260.307 189.161 259.729C191.009 259.15 192.997 259.198 194.816 259.864C197.456 260.896 200.04 263.768 199.392 268.68Z" fill="#FFF0E1"/>
<path d="M198.848 325.336C199.183 324.88 199.595 324.484 200.064 324.168C200.335 323.976 200.643 323.843 200.968 323.776C201.075 323.748 201.189 323.761 201.287 323.813C201.385 323.864 201.459 323.951 201.496 324.056C201.64 324.44 201.792 324.856 201.96 325.408C202.128 325.96 202.288 326.456 202.456 327.008C202.624 327.56 202.792 328.112 202.952 328.656C203.112 329.2 203.248 329.688 203.368 330.104C203.28 330.3 203.162 330.482 203.016 330.64C202.846 330.827 202.652 330.991 202.44 331.128C202.315 331.216 202.177 331.287 202.032 331.336C201.941 331.366 201.843 331.366 201.752 331.336C201.689 331.307 201.636 331.26 201.6 331.2C201.544 331.098 201.499 330.991 201.464 330.88L201.248 330.08L199.408 331.272C199.36 331.568 199.32 331.88 199.28 332.192C199.24 332.504 199.192 332.824 199.144 333.12C199.052 333.227 198.953 333.329 198.848 333.424C198.734 333.536 198.608 333.636 198.472 333.72C198.363 333.815 198.236 333.887 198.098 333.932C197.961 333.977 197.816 333.995 197.672 333.984C197.496 333.936 197.408 333.776 197.4 333.504C197.384 333.371 197.384 333.237 197.4 333.104C197.4 332.96 197.448 332.8 197.472 332.608C197.496 332.416 197.568 332 197.64 331.592C197.712 331.184 197.784 330.744 197.872 330.264L198.144 328.792C198.248 328.288 198.336 327.808 198.424 327.36C198.512 326.912 198.592 326.504 198.664 326.152C198.736 325.8 198.808 325.52 198.848 325.336ZM200.136 326.256C200.056 326.688 199.968 327.168 199.864 327.704C199.76 328.24 199.68 328.76 199.6 329.304L200.856 328.504C200.744 328.088 200.632 327.704 200.512 327.288C200.392 326.872 200.288 326.552 200.2 326.24L200.136 326.256Z" fill="#455A64"/>
<path d="M206.56 328.56L206.16 328.8C206.01 328.89 205.855 328.97 205.696 329.04C205.54 329.12 205.38 329.192 205.216 329.256C205.071 329.312 204.921 329.352 204.768 329.376C204.392 329.432 204.192 329.224 204.176 328.768L203.928 322.584C203.916 322.41 203.952 322.235 204.032 322.08C204.113 321.916 204.216 321.762 204.336 321.624C204.619 321.331 204.927 321.063 205.256 320.824C205.535 320.6 205.826 320.392 206.128 320.2C206.571 319.896 207.06 319.667 207.576 319.52C207.95 319.405 208.353 319.428 208.712 319.584C209.077 319.758 209.363 320.064 209.512 320.44C209.728 320.985 209.839 321.566 209.84 322.152C209.867 322.826 209.81 323.5 209.672 324.16C209.532 324.775 209.314 325.369 209.024 325.928C208.741 326.472 208.389 326.978 207.976 327.432C207.552 327.864 207.076 328.243 206.56 328.56V328.56ZM205.912 326.96L206.192 326.824C206.297 326.772 206.399 326.713 206.496 326.648C206.978 326.336 207.363 325.895 207.608 325.376C207.75 325.08 207.85 324.764 207.904 324.44C207.974 324.066 207.998 323.684 207.976 323.304C207.976 322.504 207.784 322 207.48 321.784C207.176 321.568 206.792 321.608 206.32 321.912L206.032 322.112C205.936 322.184 205.832 322.264 205.736 322.352L205.912 326.96Z" fill="#455A64"/>
<path d="M215.832 319.048C215.856 319.585 215.811 320.123 215.696 320.648C215.587 321.14 215.421 321.618 215.2 322.072C214.988 322.508 214.719 322.914 214.4 323.28C214.082 323.635 213.719 323.947 213.32 324.208C212.99 324.436 212.617 324.594 212.224 324.672C211.928 324.726 211.623 324.675 211.36 324.528C211.092 324.355 210.887 324.099 210.776 323.8C210.615 323.384 210.531 322.942 210.528 322.496C210.505 321.977 210.551 321.458 210.664 320.952C210.773 320.456 210.942 319.975 211.168 319.52C211.381 319.079 211.65 318.668 211.968 318.296C212.281 317.934 212.645 317.618 213.048 317.36C213.373 317.125 213.748 316.969 214.144 316.904C214.44 316.85 214.745 316.901 215.008 317.048C215.278 317.219 215.484 317.475 215.592 317.776C215.748 318.182 215.83 318.613 215.832 319.048V319.048ZM212.28 321.344C212.25 321.729 212.352 322.112 212.568 322.432C212.736 322.616 212.96 322.616 213.248 322.432C213.552 322.224 213.777 321.919 213.888 321.568C214.034 321.125 214.094 320.658 214.064 320.192C214.091 319.811 213.993 319.432 213.784 319.112C213.616 318.928 213.392 318.928 213.104 319.112C212.804 319.321 212.58 319.621 212.464 319.968C212.311 320.41 212.249 320.878 212.28 321.344Z" fill="#455A64"/>
<path d="M218.712 320.432C218.64 320.512 218.52 320.608 218.368 320.744C218.216 320.88 218.048 320.984 217.896 321.088C217.763 321.171 217.624 321.243 217.48 321.304C217.381 321.338 217.275 321.338 217.176 321.304C217.129 321.284 217.087 321.255 217.053 321.217C217.018 321.18 216.992 321.136 216.976 321.088C216.924 320.92 216.897 320.744 216.896 320.568L216.648 314.336C216.636 314.159 216.672 313.982 216.752 313.824C216.834 313.662 216.936 313.512 217.056 313.376C217.303 313.108 217.57 312.859 217.856 312.632C218.136 312.399 218.43 312.182 218.736 311.984C219.672 311.384 220.4 311.184 220.912 311.384C221.424 311.584 221.712 312.128 221.712 313.024C221.734 313.451 221.699 313.879 221.608 314.296C221.511 314.714 221.366 315.119 221.176 315.504C220.955 315.899 220.687 316.264 220.376 316.592C220.052 316.939 219.687 317.246 219.288 317.504L218.568 317.968L218.712 320.432ZM219.072 315.84C219.344 315.674 219.567 315.44 219.72 315.16C219.868 314.871 219.934 314.548 219.912 314.224C219.912 313.888 219.824 313.68 219.648 313.6C219.48 313.528 219.248 313.6 218.936 313.784L218.672 313.96L218.456 314.136L218.536 316.192L219.072 315.84Z" fill="#455A64"/>
<path d="M224.344 314.584C224.344 314.808 224.416 314.936 224.536 314.96C224.708 314.969 224.877 314.912 225.008 314.8C225.119 314.729 225.226 314.651 225.328 314.568C225.432 314.472 225.528 314.384 225.608 314.296C225.677 314.36 225.734 314.436 225.776 314.52C225.834 314.639 225.862 314.771 225.856 314.904C225.866 315.257 225.778 315.606 225.6 315.912C225.35 316.318 225.004 316.656 224.592 316.896C224 317.28 223.528 317.4 223.2 317.256C222.872 317.112 222.68 316.64 222.648 315.84L222.424 310.176C222.523 310.072 222.627 309.973 222.736 309.88C222.875 309.761 223.022 309.652 223.176 309.552C223.375 309.39 223.624 309.302 223.88 309.304C224.056 309.304 224.152 309.568 224.168 310.008V310.856L225.496 310C225.551 310.091 225.596 310.188 225.632 310.288C225.676 310.433 225.7 310.584 225.704 310.736C225.731 311.009 225.687 311.285 225.576 311.536C225.484 311.731 225.34 311.897 225.16 312.016L224.232 312.616L224.344 314.584Z" fill="#455A64"/>
<path d="M233.112 309.16C232.924 309.508 232.648 309.8 232.312 310.008C232.131 310.14 231.924 310.233 231.704 310.28C231.633 310.294 231.559 310.281 231.498 310.242C231.437 310.203 231.393 310.142 231.376 310.072C231.16 309.416 230.976 308.888 230.832 308.472C230.688 308.056 230.584 307.712 230.504 307.392H230.448C230.448 307.928 230.448 308.408 230.448 308.848C230.448 309.288 230.448 309.704 230.448 310.112C230.448 310.52 230.448 310.912 230.448 311.352C230.448 311.792 230.448 312.248 230.448 312.76C230.343 312.882 230.228 312.994 230.104 313.096C229.971 313.213 229.829 313.32 229.68 313.416C229.478 313.575 229.232 313.667 228.976 313.68C228.808 313.68 228.712 313.496 228.704 313.168V306.224C228.79 306.009 228.906 305.807 229.048 305.624C229.252 305.343 229.511 305.107 229.808 304.928C230.055 304.737 230.353 304.623 230.664 304.6C230.775 304.614 230.88 304.661 230.964 304.735C231.048 304.81 231.108 304.907 231.136 305.016C231.208 305.192 231.28 305.392 231.368 305.616C231.456 305.84 231.528 306.08 231.608 306.328C231.688 306.576 231.776 306.816 231.856 307.064C231.936 307.312 232 307.528 232.064 307.72H232.12C232.248 306.872 232.384 306.048 232.52 305.248C232.656 304.448 232.784 303.776 232.896 303.216C233.014 303.064 233.143 302.919 233.28 302.784C233.447 302.631 233.626 302.492 233.816 302.368C234.052 302.194 234.326 302.082 234.616 302.04C234.662 302.034 234.709 302.038 234.754 302.051C234.799 302.063 234.841 302.085 234.877 302.114C234.914 302.143 234.944 302.179 234.966 302.22C234.989 302.261 235.003 302.306 235.008 302.352C235.008 302.512 235.08 302.76 235.128 303.152C235.176 303.544 235.216 303.888 235.272 304.328C235.328 304.768 235.376 305.224 235.432 305.72C235.488 306.216 235.536 306.68 235.584 307.136C235.632 307.592 235.672 308 235.712 308.384C235.752 308.768 235.776 309.056 235.784 309.264C235.682 309.417 235.564 309.559 235.432 309.688C235.285 309.827 235.125 309.95 234.952 310.056C234.762 310.2 234.534 310.286 234.296 310.304C234.112 310.304 234.016 310.144 233.984 309.816C233.904 308.88 233.848 308.032 233.808 307.264C233.768 306.496 233.728 305.872 233.688 305.36H233.632C233.584 305.752 233.496 306.248 233.392 306.856C233.288 307.464 233.264 308.232 233.112 309.16Z" fill="#455A64"/>
<path d="M239.48 307.288C239.141 307.524 238.762 307.695 238.36 307.792C238.053 307.87 237.729 307.841 237.44 307.712C237.148 307.557 236.919 307.305 236.792 307C236.609 306.553 236.514 306.075 236.512 305.592C236.49 305.041 236.544 304.489 236.672 303.952C236.796 303.464 236.976 302.991 237.208 302.544C237.424 302.137 237.693 301.76 238.008 301.424C238.281 301.118 238.593 300.849 238.936 300.624C239.232 300.42 239.567 300.278 239.92 300.208C240.189 300.153 240.469 300.184 240.72 300.296C240.957 300.42 241.146 300.62 241.256 300.864C241.399 301.181 241.475 301.524 241.48 301.872C241.49 302.148 241.432 302.423 241.312 302.672C241.183 302.923 241.004 303.143 240.784 303.32L238.296 305.432C238.32 305.539 238.382 305.634 238.47 305.7C238.558 305.766 238.666 305.799 238.776 305.792C239.065 305.775 239.343 305.675 239.576 305.504C239.866 305.318 240.134 305.101 240.376 304.856C240.594 304.634 240.792 304.393 240.968 304.136C241.086 304.163 241.189 304.235 241.256 304.336C241.344 304.46 241.391 304.608 241.392 304.76C241.398 305.183 241.26 305.595 241 305.928C240.791 306.221 240.549 306.489 240.28 306.728C240.027 306.934 239.76 307.121 239.48 307.288ZM238.992 302.272C238.832 302.372 238.691 302.499 238.576 302.648C238.461 302.786 238.367 302.939 238.296 303.104C238.228 303.259 238.175 303.42 238.136 303.584C238.109 303.737 238.093 303.892 238.088 304.048L239.816 302.552C239.802 302.475 239.773 302.401 239.731 302.335C239.688 302.269 239.633 302.212 239.568 302.168C239.432 302.072 239.24 302.112 238.992 302.272V302.272Z" fill="#455A64"/>
<path d="M244.056 298.752C244.046 298.374 244.125 297.998 244.288 297.656C244.436 297.314 244.681 297.022 244.992 296.816C245.296 296.616 245.544 296.584 245.728 296.72C245.84 296.818 245.927 296.943 245.98 297.082C246.033 297.222 246.051 297.372 246.032 297.52C246.045 297.899 245.965 298.275 245.8 298.616C245.649 298.946 245.404 299.224 245.096 299.416C244.792 299.616 244.544 299.648 244.36 299.512C244.254 299.417 244.172 299.3 244.119 299.168C244.066 299.036 244.045 298.894 244.056 298.752V298.752ZM244.224 302.912C244.212 302.532 244.289 302.154 244.448 301.808C244.605 301.479 244.852 301.202 245.16 301.008C245.464 300.808 245.712 300.776 245.896 300.912C246 301.006 246.081 301.123 246.133 301.253C246.184 301.384 246.204 301.524 246.192 301.664C246.209 302.045 246.132 302.424 245.968 302.768C245.814 303.096 245.57 303.374 245.264 303.568C244.952 303.768 244.712 303.8 244.528 303.664C244.423 303.571 244.341 303.454 244.288 303.324C244.235 303.193 244.213 303.052 244.224 302.912V302.912Z" fill="#455A64"/>
<path d="M249.504 297.6C249.545 298.454 249.516 299.31 249.416 300.16C249.332 300.86 249.193 301.553 249 302.232C248.891 302.611 248.744 302.978 248.56 303.328C248.406 303.649 248.172 303.925 247.88 304.128C247.81 304.181 247.73 304.219 247.644 304.238C247.559 304.258 247.47 304.258 247.384 304.24C247.25 304.209 247.13 304.136 247.04 304.032C247.192 303.608 247.32 303.184 247.432 302.76C247.544 302.336 247.632 301.912 247.704 301.48C247.777 301.035 247.825 300.586 247.848 300.136C247.872 299.651 247.872 299.165 247.848 298.68C247.83 298.219 247.788 297.76 247.72 297.304C247.671 296.932 247.591 296.566 247.48 296.208C247.392 295.905 247.271 295.613 247.12 295.336C246.991 295.083 246.835 294.844 246.656 294.624C246.732 294.402 246.834 294.19 246.96 293.992C247.08 293.788 247.244 293.613 247.44 293.48C247.535 293.395 247.653 293.339 247.779 293.318C247.905 293.296 248.034 293.311 248.152 293.36C248.359 293.477 248.532 293.645 248.656 293.848C248.912 294.3 249.098 294.788 249.208 295.296C249.384 296.052 249.483 296.824 249.504 297.6Z" fill="#455A64"/>
<path d="M65.3761 91.1119C64.9821 90.0798 64.2256 89.2266 63.2481 88.7119V88.7119C62.6798 88.4159 62.0555 88.2429 61.4159 88.2043C60.7763 88.1657 60.1358 88.2624 59.5361 88.4879C57.3681 89.2879 56.4641 92.3439 56.9841 94.5359C55.9201 92.5439 53.2401 90.8399 51.0801 91.6559C50.479 91.8803 49.9323 92.2294 49.4759 92.6803C49.0195 93.1312 48.6638 93.6736 48.4321 94.2719V94.2719C48.0419 95.3029 48.0419 96.4409 48.4321 97.4719C49.6961 100.84 53.5121 101.528 56.9601 102.76L60.5841 104.04L62.4001 100.696C64.2161 97.5119 66.6401 94.4799 65.3761 91.1119Z" fill="#FFF0E1"/>
<path d="M252.248 116.096C251.852 115.066 251.096 114.213 250.12 113.696V113.696C249.553 113.397 248.929 113.221 248.289 113.181C247.649 113.141 247.008 113.238 246.408 113.464C244.24 114.264 243.336 117.32 243.856 119.512C242.8 117.52 240.112 115.816 237.952 116.632C237.351 116.848 236.803 117.189 236.342 117.631C235.882 118.074 235.52 118.608 235.28 119.2V119.2C234.896 120.232 234.896 121.368 235.28 122.4C236.544 125.76 240.368 126.456 243.808 127.68L247.432 128.96L249.328 125.616C251.088 122.496 253.512 119.464 252.248 116.096Z" fill="#FFF0E1"/>
<path d="M163.344 95.736C163.82 94.7374 163.914 93.5991 163.608 92.536V92.536C163.429 91.9259 163.123 91.3608 162.709 90.8781C162.295 90.3953 161.784 90.0061 161.208 89.736C159.144 88.752 156.36 90.192 155.152 92.064C155.848 89.944 155.224 86.872 153.16 85.888C152.589 85.6137 151.967 85.464 151.334 85.4488C150.7 85.4336 150.071 85.5533 149.488 85.8V85.8C148.483 86.2307 147.67 87.0128 147.2 88C145.664 91.2 147.792 94.4 149.272 97.688L150.872 101.144L154.544 100.192C157.992 99.288 161.808 98.944 163.344 95.736Z" fill="#FFF0E1"/>
<path d="M352.48 97.9602C352.964 96.9638 353.058 95.8224 352.744 94.7602V94.7602C352.566 94.1499 352.259 93.5845 351.846 93.1018C351.432 92.619 350.92 92.2298 350.344 91.9602C348.288 90.9762 345.504 92.4162 344.288 94.2882C344.984 92.1762 344.36 89.0962 342.296 88.1122C341.725 87.8399 341.102 87.6913 340.469 87.6761C339.837 87.6609 339.208 87.7795 338.624 88.0242V88.0242C337.611 88.4514 336.789 89.2337 336.312 90.2242C334.784 93.4242 336.912 96.6242 338.392 99.9122L339.992 103.368L343.672 102.416C347.136 101.512 350.952 101.168 352.48 97.9602Z" fill="#FFF0E1"/>
</svg>
