<svg width="64" height="64" viewBox="0 0 64 64" fill="none" xmlns="http://www.w3.org/2000/svg">
<path d="M32 0C23.3066 0 22.2214 0.04 18.808 0.192C15.4 0.352 13.08 0.888 11.04 1.68C8.936 2.496 7.14934 3.592 5.37066 5.37066C3.592 7.14934 2.49334 8.93334 1.68 11.04C0.888 13.08 0.349334 15.4 0.192 18.808C0.032 22.2214 0 23.3066 0 32C0 40.6934 0.04 41.7786 0.192 45.192C0.352 48.5974 0.888 50.92 1.68 52.96C2.496 55.0614 3.592 56.8506 5.37066 58.6294C7.14934 60.4054 8.93334 61.5066 11.04 62.32C13.0827 63.1094 15.4027 63.6506 18.808 63.808C22.2214 63.968 23.3066 64 32 64C40.6934 64 41.7786 63.96 45.192 63.808C48.5974 63.648 50.92 63.1094 52.96 62.32C55.0614 61.504 56.8506 60.4054 58.6294 58.6294C60.4054 56.8506 61.5066 55.0694 62.32 52.96C63.1094 50.92 63.6506 48.5974 63.808 45.192C63.968 41.7786 64 40.6934 64 32C64 23.3066 63.96 22.2214 63.808 18.808C63.648 15.4027 63.1094 13.0773 62.32 11.04C61.504 8.936 60.4054 7.14934 58.6294 5.37066C56.8506 3.592 55.0694 2.49334 52.96 1.68C50.92 0.888 48.5974 0.349334 45.192 0.192C41.7786 0.032 40.6934 0 32 0ZM32 5.76C40.5414 5.76 41.56 5.80266 44.9334 5.94934C48.0534 6.096 49.7466 6.61334 50.872 7.056C52.3706 7.63466 53.432 8.328 54.5574 9.44534C55.6746 10.5653 56.368 11.6293 56.9466 13.128C57.384 14.2533 57.9066 15.9467 58.048 19.0667C58.2 22.4426 58.2346 23.456 58.2346 32C58.2346 40.544 58.1946 41.56 58.0374 44.9334C57.8746 48.0534 57.3546 49.7466 56.9146 50.872C56.3174 52.3706 55.6374 53.432 54.5174 54.5574C53.4 55.6746 52.32 56.368 50.8374 56.9466C49.7174 57.384 47.9974 57.9066 44.8774 58.048C41.48 58.2 40.48 58.2346 31.92 58.2346C23.3574 58.2346 22.3574 58.1946 18.9627 58.0374C15.84 57.8746 14.12 57.3546 13 56.9146C11.4827 56.3174 10.44 55.6374 9.32266 54.5174C8.2 53.4 7.48266 52.32 6.92266 50.8374C6.48266 49.7174 5.96534 47.9974 5.80266 44.8774C5.68266 41.5174 5.64 40.48 5.64 31.96C5.64 23.4374 5.68266 22.3974 5.80266 18.9973C5.96534 15.8773 6.48266 14.16 6.92266 13.04C7.48266 11.52 8.2 10.48 9.32266 9.35734C10.44 8.24 11.4827 7.52 13 6.96266C14.12 6.52 15.8027 6 18.9227 5.84C22.3226 5.72 23.3226 5.68 31.88 5.68L32 5.76ZM32 15.568C22.92 15.568 15.568 22.928 15.568 32C15.568 41.08 22.928 48.432 32 48.432C41.08 48.432 48.432 41.072 48.432 32C48.432 22.92 41.072 15.568 32 15.568ZM32 42.6666C26.1066 42.6666 21.3334 37.8934 21.3334 32C21.3334 26.1066 26.1066 21.3334 32 21.3334C37.8934 21.3334 42.6666 26.1066 42.6666 32C42.6666 37.8934 37.8934 42.6666 32 42.6666ZM52.9226 14.92C52.9226 17.04 51.2 18.76 49.0826 18.76C46.9626 18.76 45.2426 17.0373 45.2426 14.92C45.2426 12.8027 46.9654 11.0827 49.0826 11.0827C51.1974 11.08 52.9226 12.8027 52.9226 14.92Z" fill="#C74323"/>
</svg>
