<svg width="204" height="40" viewBox="0 0 204 40" fill="none" xmlns="http://www.w3.org/2000/svg">
<path d="M35.6794 19.9371C35.6794 30.178 27.779 38.4388 18.0827 38.4388C8.38641 38.4388 0.485995 30.178 0.485995 19.9371C0.485995 9.69625 8.38641 1.43538 18.0827 1.43538C27.779 1.43538 35.6794 9.69625 35.6794 19.9371Z" fill="#D6E8E6" stroke="#C74323" stroke-width="0.971991"/>
<path d="M11.2527 16.0831C11.2527 17.4635 10.0986 18.6053 8.64636 18.6053C7.19416 18.6053 6.03998 17.4635 6.03998 16.0831C6.03998 14.7027 7.19416 13.5609 8.64636 13.5609C10.0986 13.5609 11.2527 14.7027 11.2527 16.0831Z" fill="#FFF0E1" stroke="#C74323" stroke-width="0.971991"/>
<path d="M16.8188 11.2701C16.8188 12.6505 15.6646 13.7922 14.2124 13.7922C12.7602 13.7922 11.6061 12.6505 11.6061 11.2701C11.6061 9.88967 12.7602 8.7479 14.2124 8.7479C15.6646 8.7479 16.8188 9.88967 16.8188 11.2701Z" fill="#FFF0E1" stroke="#C74323" stroke-width="0.971991"/>
<path d="M24.241 11.2701C24.241 12.6505 23.0868 13.7922 21.6346 13.7922C20.1824 13.7922 19.0282 12.6505 19.0282 11.2701C19.0282 9.88967 20.1824 8.7479 21.6346 8.7479C23.0868 8.7479 24.241 9.88967 24.241 11.2701Z" fill="#FFF0E1" stroke="#C74323" stroke-width="0.971991"/>
<path d="M29.807 16.0831C29.807 17.4635 28.6528 18.6053 27.2006 18.6053C25.7484 18.6053 24.5943 17.4635 24.5943 16.0831C24.5943 14.7027 25.7484 13.5609 27.2006 13.5609C28.6528 13.5609 29.807 14.7027 29.807 16.0831Z" fill="#FFF0E1" stroke="#C74323" stroke-width="0.971991"/>
<path d="M21.0954 19.3513L21.0953 19.3514L21.0974 19.3536C21.794 20.1391 22.4131 20.8489 23.0518 21.5812C23.4103 21.9922 23.7751 22.4104 24.1632 22.8531L24.5286 22.5327L24.1897 22.881C24.2877 22.9763 24.3861 23.0714 24.4845 23.1665C25.2175 23.8748 25.9495 24.5822 26.495 25.3682C27.097 26.2354 27.4364 27.1506 27.2817 28.2017C26.953 29.2848 26.162 30.3226 24.78 30.6232C24.6283 30.6501 24.3445 30.6461 23.9 30.6044C23.5344 30.5701 23.1021 30.5152 22.6089 30.4526C22.5152 30.4407 22.4192 30.4286 22.3211 30.4162C21.1033 30.2627 19.5893 30.0845 18.0223 30.0845H17.7996C16.232 30.0845 14.7176 30.2658 13.5001 30.4208C13.4135 30.4318 13.3286 30.4427 13.2454 30.4533C12.7386 30.5182 12.2956 30.5749 11.9224 30.6094C11.4754 30.6508 11.1934 30.6528 11.0453 30.624C9.65989 30.324 8.8691 29.2961 8.54056 28.2033C8.39147 27.1586 8.7333 26.246 9.33713 25.3795C9.88365 24.5952 10.6151 23.8884 11.3474 23.1808C11.4465 23.085 11.5457 22.9891 11.6445 22.8931L11.6573 22.8806L11.6692 22.8672C12.3681 22.0792 12.992 21.3638 13.6328 20.6292C13.9903 20.2193 14.3531 19.8033 14.737 19.3655C15.3021 18.7342 15.9494 18.1635 16.6917 17.9159L16.6917 17.916L16.7 17.9131C16.812 17.8735 16.9222 17.8444 17.0307 17.8252L17.0308 17.8252L17.0355 17.8243C17.3053 17.7738 17.5937 17.7724 17.9233 17.7724C18.2507 17.7724 18.5442 17.7735 18.8084 17.814C18.9154 17.8332 19.0239 17.862 19.1342 17.901L19.1342 17.9011L19.1425 17.9039C19.8871 18.1522 20.5475 18.7257 21.0954 19.3513Z" fill="#FFF0E1" stroke="#C74323" stroke-width="0.971991"/>
<g style="mix-blend-mode:multiply">
<path d="M58.8611 24.0151H46.5267L43.8228 30H42.1519L51.9344 8.73375H53.4838L63.2663 30H61.5953L58.8611 24.0151ZM58.2839 22.7087L52.6939 10.435L47.1343 22.7087H58.2839ZM80.589 7.45777V30H79.1003V26.2632C78.4725 27.4987 77.5915 28.4506 76.4573 29.119C75.3231 29.7873 74.037 30.1215 72.599 30.1215C71.1204 30.1215 69.7837 29.7772 68.5887 29.0886C67.3938 28.4 66.452 27.448 65.7634 26.2328C65.095 25.0176 64.7608 23.6303 64.7608 22.0707C64.7608 20.5112 65.095 19.1238 65.7634 17.9086C66.452 16.6731 67.3938 15.7212 68.5887 15.0529C69.7837 14.3642 71.1204 14.0199 72.599 14.0199C74.0167 14.0199 75.2826 14.3541 76.3965 15.0225C77.5307 15.6909 78.4219 16.6225 79.07 17.8175V7.45777H80.589ZM72.6901 28.7544C73.9053 28.7544 74.9889 28.4709 75.9408 27.9038C76.913 27.3367 77.6725 26.5468 78.2193 25.5341C78.7864 24.5214 79.07 23.367 79.07 22.0707C79.07 20.7745 78.7864 19.62 78.2193 18.6074C77.6725 17.5947 76.913 16.8048 75.9408 16.2377C74.9889 15.6706 73.9053 15.387 72.6901 15.387C71.4749 15.387 70.3812 15.6706 69.409 16.2377C68.4571 16.8048 67.6976 17.5947 67.1305 18.6074C66.5836 19.62 66.3102 20.7745 66.3102 22.0707C66.3102 23.367 66.5836 24.5214 67.1305 25.5341C67.6976 26.5468 68.4571 27.3367 69.409 27.9038C70.3812 28.4709 71.4749 28.7544 72.6901 28.7544ZM93.1909 30.1215C91.6921 30.1215 90.3351 29.7772 89.1199 29.0886C87.925 28.4 86.9832 27.448 86.2946 26.2328C85.6059 24.9974 85.2616 23.61 85.2616 22.0707C85.2616 20.5315 85.6059 19.1542 86.2946 17.939C86.9832 16.7035 87.925 15.7415 89.1199 15.0529C90.3351 14.3642 91.6921 14.0199 93.1909 14.0199C94.6897 14.0199 96.0365 14.3642 97.2315 15.0529C98.4467 15.7415 99.3986 16.7035 100.087 17.939C100.776 19.1542 101.12 20.5315 101.12 22.0707C101.12 23.61 100.776 24.9974 100.087 26.2328C99.3986 27.448 98.4467 28.4 97.2315 29.0886C96.0365 29.7772 94.6897 30.1215 93.1909 30.1215ZM93.1909 28.7544C94.4061 28.7544 95.4897 28.4709 96.4416 27.9038C97.4138 27.3367 98.1733 26.5468 98.7201 25.5341C99.2872 24.5214 99.5708 23.367 99.5708 22.0707C99.5708 20.7745 99.2872 19.62 98.7201 18.6074C98.1733 17.5947 97.4138 16.8048 96.4416 16.2377C95.4897 15.6706 94.4061 15.387 93.1909 15.387C91.9757 15.387 90.882 15.6706 89.9098 16.2377C88.9579 16.8048 88.1984 17.5947 87.6313 18.6074C87.0844 19.62 86.811 20.7745 86.811 22.0707C86.811 23.367 87.0844 24.5214 87.6313 25.5341C88.1984 26.5468 88.9579 27.3367 89.9098 27.9038C90.882 28.4709 91.9757 28.7544 93.1909 28.7544ZM113.701 28.9974C113.316 29.362 112.83 29.6456 112.243 29.8481C111.676 30.0304 111.078 30.1215 110.451 30.1215C109.073 30.1215 108.01 29.7468 107.261 28.9974C106.511 28.2278 106.136 27.1645 106.136 25.8075V15.4478H103.22V14.1415H106.136V10.6781H107.656V14.1415H112.699V15.4478H107.656V25.6556C107.656 26.6885 107.899 27.4784 108.385 28.0253C108.891 28.5519 109.63 28.8152 110.602 28.8152C111.595 28.8152 112.415 28.5215 113.063 27.9341L113.701 28.9974ZM130.771 22.4353H117.131C117.171 23.6708 117.485 24.7746 118.072 25.7468C118.66 26.6987 119.45 27.4379 120.442 27.9645C121.455 28.4911 122.589 28.7544 123.845 28.7544C124.878 28.7544 125.83 28.5721 126.7 28.2076C127.592 27.8227 128.331 27.2658 128.918 26.5366L129.799 27.5392C129.111 28.3696 128.24 29.0076 127.187 29.4532C126.154 29.8987 125.03 30.1215 123.814 30.1215C122.235 30.1215 120.827 29.7772 119.591 29.0886C118.356 28.4 117.384 27.448 116.675 26.2328C115.986 25.0176 115.642 23.6303 115.642 22.0707C115.642 20.5315 115.966 19.1542 116.614 17.939C117.283 16.7035 118.194 15.7415 119.348 15.0529C120.503 14.3642 121.799 14.0199 123.237 14.0199C124.675 14.0199 125.961 14.3642 127.095 15.0529C128.25 15.7212 129.151 16.663 129.799 17.8782C130.468 19.0935 130.802 20.4707 130.802 22.01L130.771 22.4353ZM123.237 15.3567C122.123 15.3567 121.121 15.6098 120.229 16.1162C119.338 16.6023 118.619 17.301 118.072 18.2124C117.546 19.1036 117.242 20.1163 117.161 21.2505H129.313C129.252 20.1163 128.949 19.1036 128.402 18.2124C127.855 17.3213 127.136 16.6225 126.245 16.1162C125.354 15.6098 124.351 15.3567 123.237 15.3567ZM150.843 30H154.671L145.375 8.73375H141.699L132.311 30H136.048L138.083 25.1999H148.808L150.843 30ZM139.42 22.01L143.43 12.5617L147.44 22.01H139.42ZM168.4 13.8377V16.6326C167.215 14.7491 165.271 13.6857 162.658 13.6857C158.101 13.6857 154.972 16.9972 154.972 21.8581C154.972 26.7797 158.071 30.1519 162.719 30.1519C165.302 30.1519 167.246 29.119 168.4 27.2354V35.8938H171.894V13.8377H168.4ZM163.448 27.2354C160.501 27.2354 158.496 25.048 158.466 21.9796C158.496 18.8808 160.532 16.663 163.448 16.663C166.365 16.663 168.4 18.8504 168.4 21.9796C168.4 25.048 166.365 27.2354 163.448 27.2354ZM188.38 13.8377V21.7973C188.38 24.6227 186.739 26.7797 183.944 26.8404C181.605 26.8404 180.177 25.3518 180.177 22.9214V13.8377H176.683V23.8935C176.683 27.7519 178.901 30.1215 182.607 30.1215C185.25 30.0911 187.286 29.0886 188.38 26.8404V30H191.873V13.8377H188.38ZM198.779 7.09321C197.625 7.09321 196.744 7.97424 196.744 9.21984C196.744 10.435 197.625 11.3161 198.779 11.3161C199.934 11.3161 200.815 10.435 200.815 9.21984C200.815 7.97424 199.934 7.09321 198.779 7.09321ZM197.048 13.8377V30H200.511V13.8377H197.048Z" fill="#C74323"/>
</g>
</svg>
