<svg width="235" height="45" viewBox="0 0 235 45" fill="none" xmlns="http://www.w3.org/2000/svg">
<path d="M42.8183 22.5251C42.8183 34.0642 33.3616 43.4285 21.6837 43.4285C10.0058 43.4285 0.549081 34.0642 0.549081 22.5251C0.549081 10.986 10.0058 1.62171 21.6837 1.62171C33.3616 1.62171 42.8183 10.986 42.8183 22.5251Z" fill="#D6E8E6" stroke="#C74323" stroke-width="1.09816"/>
<path d="M13.5273 18.1708C13.5273 19.7005 12.1589 21.0204 10.3682 21.0204C8.57742 21.0204 7.20908 19.7005 7.20908 18.1708C7.20908 16.6411 8.57742 15.3212 10.3682 15.3212C12.1589 15.3212 13.5273 16.6411 13.5273 18.1708Z" fill="#FFF0E1" stroke="#C74323" stroke-width="1.09816"/>
<path d="M20.2018 12.733C20.2018 14.2627 18.8334 15.5826 17.0427 15.5826C15.2519 15.5826 13.8836 14.2627 13.8836 12.733C13.8836 11.2033 15.2519 9.88345 17.0427 9.88345C18.8334 9.88345 20.2018 11.2033 20.2018 12.733Z" fill="#FFF0E1" stroke="#C74323" stroke-width="1.09816"/>
<path d="M29.102 12.733C29.102 14.2627 27.7336 15.5826 25.9428 15.5826C24.1521 15.5826 22.7837 14.2627 22.7837 12.733C22.7837 11.2033 24.1521 9.88345 25.9428 9.88345C27.7336 9.88345 29.102 11.2033 29.102 12.733Z" fill="#FFF0E1" stroke="#C74323" stroke-width="1.09816"/>
<path d="M35.7764 18.1708C35.7764 19.7005 34.4081 21.0204 32.6173 21.0204C30.8266 21.0204 29.4582 19.7005 29.4582 18.1708C29.4582 16.6411 30.8266 15.3212 32.6173 15.3212C34.4081 15.3212 35.7764 16.6411 35.7764 18.1708Z" fill="#FFF0E1" stroke="#C74323" stroke-width="1.09816"/>
<path d="M25.3325 21.8754L25.3325 21.8754L25.3349 21.8779C26.1702 22.7653 26.9126 23.5673 27.6785 24.3946C28.1085 24.8591 28.5459 25.3316 29.0113 25.8317L29.4132 25.4576L29.0422 25.8624C29.1596 25.97 29.2776 26.0774 29.3955 26.1848C30.2746 26.9852 31.1533 27.7852 31.8079 28.6738C32.5301 29.6541 32.9317 30.6809 32.7489 31.8556C32.358 33.0671 31.4109 34.2526 29.7271 34.5972C29.5356 34.6294 29.1866 34.6239 28.6534 34.5768C28.2138 34.538 27.6942 34.4758 27.1027 34.4051C26.9904 34.3917 26.8755 34.3779 26.758 34.364C25.2977 34.1905 23.4858 33.9897 21.6112 33.9897H21.3442C19.469 33.9897 17.6566 34.194 16.1967 34.3692C16.093 34.3816 15.9912 34.3939 15.8915 34.4059C15.2839 34.4792 14.7513 34.5434 14.3026 34.5825C13.7668 34.6292 13.4196 34.6325 13.2319 34.598C11.5443 34.254 10.5976 33.0797 10.207 31.8575C10.0308 30.6899 10.4353 29.6661 11.1598 28.6865C11.8156 27.7999 12.6937 27.0005 13.5718 26.201C13.6907 26.0927 13.8096 25.9845 13.928 25.876L13.9429 25.8623L13.9568 25.8475C14.7948 24.9573 15.543 24.1491 16.3113 23.3191C16.7401 22.856 17.1751 22.386 17.6356 21.8913C18.3119 21.1794 19.093 20.5282 19.9959 20.2445L19.9959 20.2446L20.0049 20.2416C20.1419 20.1959 20.2772 20.1622 20.411 20.1399L20.411 20.14L20.416 20.1391C20.7464 20.0808 21.0983 20.0794 21.4925 20.0794C21.8844 20.0794 22.2418 20.0805 22.5645 20.1272C22.6965 20.1495 22.8301 20.1829 22.9653 20.228L22.9653 20.2281L22.9744 20.2309C23.8799 20.5154 24.6765 21.1696 25.3325 21.8754Z" fill="#FFF0E1" stroke="#C74323" stroke-width="1.09816"/>
<g style="mix-blend-mode:multiply">
<path d="M69.0774 27.2382H55.1419L52.0871 34H50.1992L61.2516 9.97323H63.0021L74.0544 34H72.1666L69.0774 27.2382ZM68.4253 25.7622L62.1097 11.8954L55.8284 25.7622H68.4253ZM93.6258 8.53162V34H91.9439V29.7782C91.2345 31.174 90.2391 32.2495 88.9577 33.0046C87.6763 33.7597 86.2232 34.1373 84.5986 34.1373C82.9281 34.1373 81.4179 33.7483 80.0678 32.9703C78.7177 32.1923 77.6537 31.1168 76.8757 29.7438C76.1205 28.3709 75.743 26.8034 75.743 25.0414C75.743 23.2795 76.1205 21.712 76.8757 20.3391C77.6537 18.9432 78.7177 17.8677 80.0678 17.1126C81.4179 16.3346 82.9281 15.9456 84.5986 15.9456C86.2003 15.9456 87.6305 16.3232 88.8891 17.0783C90.1705 17.8334 91.1773 18.886 91.9096 20.2361V8.53162H93.6258ZM84.7015 32.5927C86.0745 32.5927 87.2987 32.2724 88.3742 31.6316C89.4726 30.9909 90.3307 30.0985 90.9485 28.9544C91.5892 27.8102 91.9096 26.5059 91.9096 25.0414C91.9096 23.577 91.5892 22.2726 90.9485 21.1285C90.3307 19.9844 89.4726 19.092 88.3742 18.4512C87.2987 17.8105 86.0745 17.4902 84.7015 17.4902C83.3286 17.4902 82.0929 17.8105 80.9945 18.4512C79.9191 19.092 79.061 19.9844 78.4202 21.1285C77.8024 22.2726 77.4935 23.577 77.4935 25.0414C77.4935 26.5059 77.8024 27.8102 78.4202 28.9544C79.061 30.0985 79.9191 30.9909 80.9945 31.6316C82.0929 32.2724 83.3286 32.5927 84.7015 32.5927ZM107.863 34.1373C106.17 34.1373 104.637 33.7483 103.264 32.9703C101.914 32.1923 100.85 31.1168 100.072 29.7438C99.294 28.348 98.9049 26.7805 98.9049 25.0414C98.9049 23.3024 99.294 21.7463 100.072 20.3734C100.85 18.9775 101.914 17.8906 103.264 17.1126C104.637 16.3346 106.17 15.9456 107.863 15.9456C109.557 15.9456 111.079 16.3346 112.429 17.1126C113.802 17.8906 114.877 18.9775 115.655 20.3734C116.433 21.7463 116.822 23.3024 116.822 25.0414C116.822 26.7805 116.433 28.348 115.655 29.7438C114.877 31.1168 113.802 32.1923 112.429 32.9703C111.079 33.7483 109.557 34.1373 107.863 34.1373ZM107.863 32.5927C109.236 32.5927 110.461 32.2724 111.536 31.6316C112.635 30.9909 113.493 30.0985 114.11 28.9544C114.751 27.8102 115.072 26.5059 115.072 25.0414C115.072 23.577 114.751 22.2726 114.11 21.1285C113.493 19.9844 112.635 19.092 111.536 18.4512C110.461 17.8105 109.236 17.4902 107.863 17.4902C106.491 17.4902 105.255 17.8105 104.157 18.4512C103.081 19.092 102.223 19.9844 101.582 21.1285C100.964 22.2726 100.655 23.577 100.655 25.0414C100.655 26.5059 100.964 27.8102 101.582 28.9544C102.223 30.0985 103.081 30.9909 104.157 31.6316C105.255 32.2724 106.491 32.5927 107.863 32.5927ZM131.036 32.8673C130.601 33.2792 130.052 33.5996 129.389 33.8284C128.748 34.0343 128.073 34.1373 127.364 34.1373C125.808 34.1373 124.606 33.714 123.76 32.8673C122.913 31.9978 122.49 30.7964 122.49 29.2633V17.5588H119.194V16.0829H122.49V12.17H124.206V16.0829H129.904V17.5588H124.206V29.0917C124.206 30.2587 124.48 31.1511 125.03 31.7689C125.602 32.3639 126.437 32.6614 127.535 32.6614C128.656 32.6614 129.583 32.3296 130.315 31.666L131.036 32.8673ZM150.322 25.4533H134.911C134.957 26.8492 135.311 28.0963 135.975 29.1946C136.638 30.2701 137.531 31.1053 138.652 31.7003C139.796 32.2952 141.078 32.5927 142.496 32.5927C143.663 32.5927 144.739 32.3868 145.723 31.9749C146.73 31.5401 147.565 30.9108 148.228 30.0871L149.224 31.2198C148.446 32.1579 147.462 32.8788 146.272 33.3822C145.105 33.8856 143.835 34.1373 142.462 34.1373C140.677 34.1373 139.087 33.7483 137.691 32.9703C136.295 32.1923 135.197 31.1168 134.396 29.7438C133.618 28.3709 133.229 26.8034 133.229 25.0414C133.229 23.3024 133.595 21.7463 134.327 20.3734C135.082 18.9775 136.112 17.8906 137.416 17.1126C138.721 16.3346 140.185 15.9456 141.81 15.9456C143.435 15.9456 144.888 16.3346 146.169 17.1126C147.473 17.8677 148.492 18.9318 149.224 20.3047C149.979 21.6777 150.357 23.2337 150.357 24.9728L150.322 25.4533ZM141.81 17.4559C140.551 17.4559 139.419 17.7419 138.412 18.3139C137.405 18.8631 136.593 19.6526 135.975 20.6823C135.38 21.6891 135.037 22.8333 134.945 24.1147H148.675C148.606 22.8333 148.263 21.6891 147.645 20.6823C147.027 19.6755 146.215 18.886 145.208 18.3139C144.201 17.7419 143.068 17.4559 141.81 17.4559ZM172.999 34H177.324L166.821 9.97323H162.668L152.062 34H156.284L158.583 28.5768H170.7L172.999 34ZM160.094 24.9728L164.624 14.298L169.155 24.9728H160.094ZM192.836 15.7397V18.8975C191.497 16.7694 189.3 15.568 186.348 15.568C181.2 15.568 177.664 19.3093 177.664 24.8012C177.664 30.3617 181.166 34.1716 186.417 34.1716C189.335 34.1716 191.531 33.0046 192.836 30.8765V40.6588H196.783V15.7397H192.836ZM187.241 30.8765C183.911 30.8765 181.646 28.4052 181.612 24.9385C181.646 21.4374 183.946 18.9318 187.241 18.9318C190.536 18.9318 192.836 21.4031 192.836 24.9385C192.836 28.4052 190.536 30.8765 187.241 30.8765ZM215.409 15.7397V24.7325C215.409 27.9247 213.555 30.3617 210.397 30.4303C207.754 30.4303 206.141 28.7484 206.141 26.0025V15.7397H202.194V27.1009C202.194 31.46 204.699 34.1373 208.887 34.1373C211.873 34.103 214.173 32.9703 215.409 30.4303V34H219.356V15.7397H215.409ZM227.158 8.11973C225.854 8.11973 224.859 9.11513 224.859 10.5224C224.859 11.8954 225.854 12.8908 227.158 12.8908C228.463 12.8908 229.458 11.8954 229.458 10.5224C229.458 9.11513 228.463 8.11973 227.158 8.11973ZM225.202 15.7397V34H229.115V15.7397H225.202Z" fill="#C74323"/>
</g>
</svg>
