<svg width="88" height="64" viewBox="0 0 88 64" fill="none" xmlns="http://www.w3.org/2000/svg">
<path d="M85.5475 9.92455C85.0538 8.0053 84.0804 6.25361 82.7245 4.84489C81.3688 3.43617 79.6781 2.41985 77.8219 1.89774C71.0105 -5.03969e-07 43.6875 0 43.6875 0C43.6875 0 16.3646 -5.03969e-07 9.54935 1.89774C7.69413 2.42078 6.00446 3.43746 4.64936 4.84607C3.29426 6.25471 2.32123 8.00592 1.82759 9.92455C0 17.0044 0 31.7728 0 31.7728C0 31.7728 0 46.5412 1.82759 53.621C2.32121 55.5404 3.29467 57.292 4.65051 58.7006C6.00632 60.1093 7.69692 61.1256 9.55301 61.6478C16.3646 63.5455 43.6875 63.5455 43.6875 63.5455C43.6875 63.5455 71.0105 63.5455 77.8257 61.6478C79.6819 61.1261 81.3726 60.1098 82.7286 58.7012C84.0845 57.2923 85.0577 55.5404 85.551 53.621C87.375 46.5412 87.375 31.7728 87.375 31.7728C87.375 31.7728 87.375 17.0044 85.5475 9.92455ZM34.7499 45.1808V18.3648L57.5875 31.7728L34.7499 45.1808Z" fill="#C74323"/>
</svg>
